<svg width="38" height="38" viewBox="0 0 38 38" fill="none" xmlns="http://www.w3.org/2000/svg">
<path d="M19 5.09375C11.3319 5.09375 5.09375 11.3319 5.09375 19C5.09375 26.6681 11.3319 32.9062 19 32.9062C26.6681 32.9062 32.9062 26.6681 32.9062 19C32.9062 11.3319 26.6681 5.09375 19 5.09375ZM26.9944 14.5775L16.5131 25.0594C16.4696 25.1029 16.4179 25.1375 16.361 25.1611C16.3041 25.1846 16.2431 25.1968 16.1816 25.1968C16.12 25.1968 16.059 25.1846 16.0021 25.1611C15.9452 25.1375 15.8935 25.1029 15.85 25.0594L11.0056 20.2156C10.9621 20.1721 10.9275 20.1204 10.9039 20.0635C10.8804 20.0066 10.8682 19.9456 10.8682 19.8841C10.8682 19.8225 10.8804 19.7615 10.9039 19.7046C10.9275 19.6477 10.9621 19.596 11.0056 19.5525L12.7731 17.785C12.861 17.6972 12.9802 17.6479 13.1044 17.6479C13.2286 17.6479 13.3477 17.6972 13.4356 17.785L16.1812 20.5294L24.5638 12.1475C24.6516 12.0597 24.7708 12.0104 24.895 12.0104C25.0192 12.0104 25.1384 12.0597 25.2263 12.1475L26.9944 13.915C27.0822 14.0029 27.1315 14.122 27.1315 14.2462C27.1315 14.3705 27.0822 14.4896 26.9944 14.5775Z" fill="url(#paint0_linear_578_465)"/>
<path d="M19 0.40625C8.7475 0.40625 0.40625 8.7475 0.40625 19C0.40625 29.2525 8.7475 37.5938 19 37.5938C29.2525 37.5938 37.5938 29.2525 37.5938 19C37.5938 8.7475 29.2525 0.40625 19 0.40625ZM19 33.8438C10.815 33.8438 4.15625 27.185 4.15625 19C4.15625 10.815 10.815 4.15625 19 4.15625C27.185 4.15625 33.8438 10.815 33.8438 19C33.8438 27.185 27.185 33.8438 19 33.8438Z" fill="url(#paint1_linear_578_465)"/>
<defs>
<linearGradient id="paint0_linear_578_465" x1="19" y1="5.09375" x2="19" y2="32.9062" gradientUnits="userSpaceOnUse">
<stop stop-color="#00588C"/>
<stop offset="1" stop-color="#0074B7"/>
</linearGradient>
<linearGradient id="paint1_linear_578_465" x1="19" y1="0.40625" x2="19" y2="37.5938" gradientUnits="userSpaceOnUse">
<stop stop-color="#F37021"/>
<stop offset="1" stop-color="#F89C3C"/>
</linearGradient>
</defs>
</svg>
