<svg width="34" height="36" viewBox="0 0 34 36" fill="none" xmlns="http://www.w3.org/2000/svg">
<path d="M23.8688 11.7893L26.3331 7.34059C26.5263 6.99648 26.5748 6.58974 26.468 6.20986C26.3612 5.82998 26.1079 5.50808 25.7638 5.31497C25.4197 5.12186 25.0129 5.07336 24.633 5.18014C24.2532 5.28691 23.9313 5.54023 23.7381 5.88434L21.8094 9.25122C21.6788 9.48079 21.5029 9.68136 21.2923 9.84071C21.0817 10.0001 20.8408 10.1149 20.5844 10.1781L15.83 11.3662L12.0475 7.89434C11.8435 7.70426 11.7101 7.45045 11.6694 7.17459C11.6286 6.89873 11.6828 6.6172 11.8231 6.37622L12.9369 4.45372C13.1351 4.10145 13.1947 3.68791 13.1041 3.29401C13.0134 2.90012 12.7791 2.5542 12.4469 2.32394C12.1147 2.09368 11.7086 1.99564 11.308 2.049C10.9073 2.10236 10.541 2.30329 10.2806 2.61247L8.32065 5.00122C7.86143 5.56344 7.61112 6.26735 7.61226 6.99327C7.6134 7.7192 7.86592 8.42232 8.3269 8.98309L12.0906 13.5562C12.3433 13.8607 12.4682 14.2511 12.4394 14.6456L12.2463 17.1712C12.2279 17.3866 12.1648 17.5959 12.061 17.7855C11.9571 17.9751 11.8148 18.141 11.6431 18.2725L7.89127 21.1162C7.53314 21.3922 7.23579 21.7391 7.01781 22.1352C6.79984 22.5313 6.66593 22.9681 6.62445 23.4183C6.58298 23.8685 6.63484 24.3225 6.77678 24.7517C6.91872 25.181 7.1477 25.5763 7.4494 25.9131L10.4669 29.2418C10.7116 29.5119 11.0465 29.6833 11.4086 29.7237C11.7708 29.7641 12.1353 29.6708 12.4334 29.4613C12.7316 29.2518 12.943 28.9406 13.0278 28.5862C13.1125 28.2318 13.0649 27.8586 12.8938 27.5368L11.4813 24.8868C11.4084 24.748 11.3652 24.5955 11.3544 24.439C11.3436 24.2826 11.3656 24.1256 11.4188 23.9781C11.4697 23.8295 11.5515 23.6934 11.6588 23.5787C11.7661 23.464 11.8964 23.3733 12.0413 23.3125L14.3056 22.3481C14.377 22.3183 14.4547 22.3071 14.5315 22.3157C14.6084 22.3243 14.6817 22.3524 14.7447 22.3973C14.8076 22.4421 14.8581 22.5023 14.8913 22.5721C14.9245 22.6419 14.9393 22.7191 14.9344 22.7962L14.7106 26.8525C14.5694 27.9125 15.6238 32.8112 15.7619 33.9275C15.84 34.3322 16.0696 34.6919 16.4038 34.9332C16.738 35.1745 17.1517 35.2791 17.5605 35.2259C17.9692 35.1726 18.3422 34.9654 18.6035 34.6466C18.8647 34.3277 18.9945 33.9212 18.9663 33.51L18.5181 28.315C18.3044 27.08 19.445 24.4325 19.7563 23.2437C19.9596 22.614 20.0317 21.9493 19.9681 21.2906L19.3456 14.67L22.9731 12.6856C23.3512 12.4785 23.662 12.1675 23.8688 11.7893Z" fill="url(#paint0_linear_589_401)"/>
<path d="M17.3793 8.80313C21.2524 8.68001 21.2512 3.05188 17.3793 2.92938C13.498 3.05063 13.4987 8.68188 17.3793 8.80313ZM7.04492 16.2131L6.0118 13.7681C5.96278 13.6503 5.87847 13.5506 5.77047 13.4827C5.66247 13.4147 5.53608 13.3819 5.40867 13.3888C5.28074 13.3964 5.15814 13.4427 5.05705 13.5215C4.95596 13.6003 4.88112 13.7078 4.84242 13.83L4.01492 16.5119C2.77242 15.3981 0.233674 15.8856 0.0142993 17.6819C-0.140076 18.8769 0.959299 19.8944 2.13555 20.0088C2.68042 20.1038 3.24127 19.9994 3.7155 19.7148C4.18972 19.4301 4.54561 18.9843 4.71805 18.4588L5.53305 15.8275L5.89367 16.6988C5.96117 16.8467 6.0837 16.9626 6.23523 17.0217C6.38677 17.0808 6.55537 17.0785 6.70523 17.0153C6.85509 16.952 6.9744 16.8329 7.03783 16.6831C7.10126 16.5333 7.1038 16.3647 7.04492 16.2131ZM33.5812 5.08876C33.2137 4.60568 32.7034 4.25068 32.1226 4.07419C31.5419 3.89771 30.9203 3.90871 30.3462 4.10563L30.6262 0.944383C30.6361 0.817824 30.6072 0.69125 30.5434 0.581504C30.4796 0.471757 30.3839 0.384042 30.269 0.330028C30.1541 0.276014 30.0255 0.258264 29.9003 0.279138C29.7751 0.300013 29.6592 0.358523 29.568 0.446883L27.5149 2.50001C27.4026 2.61719 27.3406 2.77372 27.3424 2.93604C27.3441 3.09836 27.4093 3.25354 27.5241 3.36832C27.6389 3.48311 27.7941 3.54835 27.9564 3.55007C28.1187 3.55178 28.2752 3.48984 28.3924 3.37751L29.2387 2.53751L28.9649 5.68563L28.9462 5.86626C28.8168 7.60376 31.1149 8.92751 32.7474 8.15563C33.033 8.04059 33.288 7.86098 33.4925 7.63087C33.6971 7.40077 33.8455 7.12643 33.9263 6.82935C34.0071 6.53227 34.0179 6.22052 33.9581 5.91854C33.8982 5.61656 33.7692 5.33254 33.5812 5.08876ZM27.628 23.7863C27.5369 23.6983 27.4212 23.6401 27.2962 23.6193C27.1713 23.5985 27.043 23.6161 26.9283 23.6697C26.8135 23.7233 26.7177 23.8105 26.6535 23.9197C26.5893 24.0288 26.5597 24.1549 26.5687 24.2813L26.8462 27.4431C24.183 26.4488 21.5499 30.0013 24.4474 31.4944C26.0012 32.2106 28.258 31.1044 28.2555 29.3169C28.2556 29.2797 28.2535 29.2426 28.2493 29.2056L27.9574 25.8744L28.7993 26.7156C28.9174 26.8249 29.0733 26.8841 29.2342 26.881C29.3951 26.8778 29.5485 26.8124 29.6623 26.6986C29.776 26.5848 29.8413 26.4313 29.8443 26.2704C29.8474 26.1095 29.788 25.9537 29.6787 25.8356L27.628 23.7863Z" fill="url(#paint1_linear_589_401)"/>
<defs>
<linearGradient id="paint0_linear_589_401" x1="16.567" y1="2.03479" x2="16.567" y2="35.2395" gradientUnits="userSpaceOnUse">
<stop stop-color="#00588C"/>
<stop offset="1" stop-color="#0074B7"/>
</linearGradient>
<linearGradient id="paint1_linear_589_401" x1="16.9979" y1="0.27063" x2="16.9979" y2="31.7151" gradientUnits="userSpaceOnUse">
<stop stop-color="#F37021"/>
<stop offset="1" stop-color="#F89C3C"/>
</linearGradient>
</defs>
</svg>
