<svg width="34" height="36" viewBox="0 0 34 36" fill="none" xmlns="http://www.w3.org/2000/svg">
<path d="M5.76266 14.8749L11.2552 15.1887C11.3125 15.1939 11.367 15.216 11.4118 15.2521C11.4566 15.2883 11.4898 15.3369 11.507 15.3918L12.2514 17.9505C12.2667 18.0091 12.263 18.0711 12.2409 18.1275C12.2188 18.1838 12.1794 18.2318 12.1283 18.2643L9.18829 20.0543C8.52846 20.454 7.9999 21.038 7.66765 21.7342C7.3354 22.4305 7.21396 23.2087 7.31829 23.973L7.68079 28.3093C7.74178 29.021 8.07918 29.6805 8.62065 30.1464C9.16212 30.6123 9.86456 30.8476 10.5774 30.8017C11.2903 30.7558 11.9568 30.4325 12.4341 29.9011C12.9114 29.3696 13.1615 28.6723 13.1308 27.9587L12.9464 24.7724C12.942 24.6483 12.9733 24.5255 13.0365 24.4186C13.0998 24.3117 13.1923 24.2252 13.3033 24.1693C14.252 23.5537 16.1889 22.3093 17.1295 21.7024C18.6133 23.3099 22.4689 27.4605 24.0002 29.1212C26.3333 31.4068 29.897 28.3524 28.072 25.7006C27.1283 24.5462 22.7158 19.2899 21.6752 18.0368C21.6454 18.0015 21.6247 17.9595 21.615 17.9144C21.6053 17.8693 21.6069 17.8224 21.6195 17.778L22.3083 15.3793C22.3249 15.3244 22.3581 15.276 22.4033 15.2408C22.4485 15.2055 22.5035 15.1851 22.5608 15.1824L28.2133 14.918C31.2245 14.7655 31.3814 10.1949 28.4039 9.7943L20.3158 8.78555C19.948 8.74313 19.5758 8.8094 19.2452 8.97617C18.6786 9.31639 18.0383 9.51474 17.3787 9.55435C16.719 9.59396 16.0596 9.47366 15.4564 9.20367C14.9789 8.90388 14.4191 8.76176 13.8564 8.79742L5.55329 9.98493C4.95479 10.0779 4.41154 10.3882 4.02739 10.8564C3.64325 11.3247 3.44516 11.9181 3.47099 12.5233C3.49682 13.1284 3.74477 13.7028 4.16742 14.1366C4.59007 14.5705 5.15779 14.8333 5.76204 14.8749H5.76266Z" fill="url(#paint0_linear_613_605)"/>
<path d="M14.392 7.56122C16.8595 9.80122 21.0845 7.88997 21.017 4.51685C21.0176 3.84354 20.8489 3.18088 20.5262 2.58988C20.2036 1.99889 19.7375 1.49855 19.1709 1.13492C18.6042 0.771298 17.9551 0.556073 17.2835 0.509063C16.6118 0.462053 15.9391 0.584769 15.3273 0.865912C14.7155 1.14706 14.1842 1.57759 13.7824 2.11789C13.3806 2.65818 13.1212 3.29087 13.0281 3.95771C12.9349 4.62455 13.011 5.30411 13.2494 5.93382C13.4877 6.56354 13.8806 7.12318 14.392 7.56122ZM28.847 24.6925C31.9995 28.5443 26.7282 33.43 23.1263 29.9881C22.7107 29.5418 17.1826 23.5762 16.9263 23.2956C16.2757 23.7137 14.8576 24.6343 14.1951 25.055L14.3551 27.8843C14.4087 28.9236 14.0513 29.9422 13.36 30.7201C12.6687 31.4979 11.6991 31.9725 10.6607 32.0412C9.62233 32.1099 8.59863 31.7673 7.81084 31.0873C7.02306 30.4074 6.53449 29.4447 6.45071 28.4075C6.38196 27.555 6.17946 25.1556 6.11321 24.3356C2.66821 25.4981 0.527588 27.2143 0.527588 29.1643C0.921963 37.615 33.0863 37.6087 33.4726 29.1643C33.4726 27.405 31.7251 25.8362 28.847 24.6925Z" fill="url(#paint1_linear_613_605)"/>
<defs>
<linearGradient id="paint0_linear_613_605" x1="17.0125" y1="8.77307" x2="17.0125" y2="30.8073" gradientUnits="userSpaceOnUse">
<stop stop-color="#00588C"/>
<stop offset="1" stop-color="#0074B7"/>
</linearGradient>
<linearGradient id="paint1_linear_613_605" x1="17.0001" y1="0.499268" x2="17.0001" y2="35.5" gradientUnits="userSpaceOnUse">
<stop stop-color="#F37021"/>
<stop offset="1" stop-color="#F89C3C"/>
</linearGradient>
</defs>
</svg>
