<svg id="experience" width="70" height="70" viewBox="0 0 70 70" fill="none" xmlns="http://www.w3.org/2000/svg">
<path d="M15.3502 29.5306L24.9781 30.0796C25.0786 30.0888 25.1741 30.1274 25.2527 30.1907C25.3313 30.2539 25.3893 30.339 25.4196 30.4351L26.7244 34.9128C26.7513 35.0153 26.7448 35.1237 26.706 35.2224C26.6672 35.3211 26.5981 35.4049 26.5086 35.4619L21.355 38.5943C20.1984 39.2938 19.2718 40.3157 18.6894 41.5341C18.107 42.7525 17.8942 44.1143 18.077 45.452L18.7125 53.0402C18.8194 54.2857 19.4108 55.4398 20.36 56.2551C21.3091 57.0705 22.5405 57.4821 23.79 57.4019C25.0396 57.3216 26.2079 56.7558 27.0446 55.8258C27.8813 54.8958 28.3197 53.6755 28.2659 52.4267L27.9427 46.8508C27.9349 46.6336 27.9897 46.4187 28.1006 46.2316C28.2115 46.0446 28.3738 45.8932 28.5683 45.7954C30.2314 44.7181 33.6265 42.5405 35.2754 41.4784C37.8763 44.2915 44.6349 51.555 47.3191 54.461C51.4088 58.4608 57.6558 53.1157 54.4567 48.475C52.8024 46.4549 45.0676 37.2567 43.2435 35.0637C43.1913 35.002 43.1551 34.9285 43.1381 34.8495C43.1211 34.7705 43.1238 34.6886 43.146 34.6109L44.3533 30.4132C44.3824 30.3172 44.4406 30.2325 44.5198 30.1708C44.5991 30.1091 44.6956 30.0734 44.7959 30.0687L54.7043 29.606C59.9828 29.3392 60.2578 21.3407 55.0385 20.6397L40.8606 18.8744C40.2159 18.8001 39.5634 18.9161 38.9839 19.208C37.9908 19.8033 36.8684 20.1504 35.7121 20.2198C34.5558 20.2891 33.3998 20.0785 32.3425 19.6061C31.5054 19.0814 30.5243 18.8327 29.5379 18.8952L14.9831 20.9732C13.934 21.1359 12.9817 21.6789 12.3084 22.4984C11.635 23.3178 11.2878 24.3563 11.333 25.4153C11.3783 26.4742 11.8129 27.4794 12.5538 28.2386C13.2947 28.9978 14.2899 29.4577 15.3491 29.5306H15.3502Z" fill="url(#paint0_linear_2164_384)"/>
<path d="M30.4765 16.7317C34.8018 20.6516 42.2079 17.307 42.0896 11.4042C42.0907 10.2259 41.7949 9.06626 41.2294 8.03204C40.6639 6.99782 39.8469 6.12224 38.8535 5.48591C37.8602 4.84958 36.7224 4.47294 35.5451 4.39068C34.3677 4.30841 33.1885 4.52316 32.116 5.01515C31.0436 5.50714 30.1123 6.26056 29.408 7.20606C28.7037 8.15156 28.249 9.25874 28.0857 10.4257C27.9224 11.5926 28.0558 12.7818 28.4736 13.8838C28.8914 14.9858 29.5802 15.9652 30.4765 16.7317ZM55.815 46.7108C61.3411 53.4514 52.101 62.0011 45.7872 55.9779C45.0586 55.197 35.3682 44.7574 34.9191 44.2663C33.7786 44.998 31.2927 46.6091 30.1314 47.3452L30.4119 52.2965C30.5059 54.1151 29.8793 55.8977 28.6675 57.2589C27.4557 58.6201 25.7561 59.4505 23.9359 59.5708C22.1157 59.691 20.3212 59.0914 18.9403 57.9015C17.5594 56.7117 16.703 55.0271 16.5561 53.2119C16.4356 51.7201 16.0806 47.5212 15.9645 46.0863C9.92569 48.1206 6.17334 51.124 6.17334 54.5364C6.86465 69.3247 63.2463 69.3138 63.9233 54.5364C63.9233 51.4576 60.8601 48.7123 55.815 46.7108Z" fill="url(#paint1_linear_2164_384)"/>
<defs>
<linearGradient id="paint0_linear_2164_384" x1="35.0703" y1="18.8525" x2="35.0703" y2="57.4117" gradientUnits="userSpaceOnUse">
<stop stop-color="#00588C"/>
<stop offset="1" stop-color="#0074B7"/>
</linearGradient>
<linearGradient id="paint1_linear_2164_384" x1="35.0483" y1="4.37354" x2="35.0483" y2="65.6235" gradientUnits="userSpaceOnUse">
<stop stop-color="#F37021"/>
<stop offset="1" stop-color="#F89C3C"/>
</linearGradient>
</defs>
</svg>
