<svg id="kids" width="36" height="34" viewBox="0 0 36 34" fill="none" xmlns="http://www.w3.org/2000/svg">
<path d="M34.783 20.3494C33.8849 19.8269 32.4005 20.4388 31.7636 20.7507C33.3374 12.5244 30.0286 7.31007 23.7699 4.8007C24.009 5.77546 24.0248 6.79165 23.8161 7.77338C23.6074 8.75511 23.1796 9.67699 22.5647 10.4702C21.9497 11.2634 21.1635 11.9074 20.2647 12.3541C19.366 12.8009 18.3779 13.0388 17.3743 13.0501C12.8743 13.1201 9.88365 8.10757 12.9411 4.55945C6.2474 6.8507 2.59365 12.2394 4.23365 20.7507C2.99303 20.0894 0.4574 19.4657 0.50115 21.9357C0.43865 24.2688 2.93428 26.8482 5.27178 25.5601C5.33428 27.9176 8.97927 33.2051 17.9986 33.8026C18.7952 33.8007 19.5893 33.7152 20.368 33.5476C29.4705 31.5538 30.5855 26.7701 30.7255 25.5726C32.9205 26.8413 35.613 24.2938 35.4962 21.9482C35.5326 21.6422 35.4855 21.332 35.36 21.0505C35.2344 20.7691 35.0351 20.5268 34.783 20.3494Z" fill="url(#paint0_linear_577_378)"/>
<path d="M17.68 7.75007C16.5475 7.34569 17.2419 6.13882 16.1513 6.22757C16.0688 6.24128 15.9899 6.27112 15.9191 6.31538C15.8482 6.35964 15.7868 6.41745 15.7383 6.4855C15.6898 6.55355 15.6552 6.6305 15.6365 6.71193C15.6179 6.79337 15.6154 6.87769 15.6294 6.96007C15.8263 8.51694 17.7706 9.87257 19.33 8.45069C20.87 7.02694 19.84 4.32569 17.8588 3.95382C14.8881 3.12194 11.7975 6.76757 13.3938 9.50819C13.8555 10.3104 14.5511 10.9526 15.3877 11.3487C16.2242 11.7449 17.1618 11.8762 18.075 11.7251C22.2656 11.2626 24.225 5.83132 21.2663 2.81319C19.82 1.26632 17.6363 0.784443 14.6544 1.20194C14.5703 1.21257 14.4891 1.23987 14.4157 1.28225C14.3422 1.32463 14.278 1.38123 14.2267 1.44874C14.1754 1.51625 14.1381 1.59332 14.1169 1.67543C14.0958 1.75754 14.0912 1.84304 14.1035 1.92693C14.1158 2.01083 14.1448 2.09142 14.1886 2.164C14.2324 2.23658 14.2903 2.29968 14.3588 2.34962C14.4274 2.39956 14.5052 2.43532 14.5877 2.45482C14.6702 2.47433 14.7558 2.47717 14.8394 2.46319C17.28 2.13632 19.5563 2.30882 20.8456 4.34194C22.395 6.68569 20.6881 10.1938 17.9094 10.4632C17.252 10.5785 16.5752 10.491 15.9687 10.2124C15.3623 9.93371 14.855 9.47709 14.5144 8.90319C13.6488 7.55132 14.8931 5.48444 16.4769 5.17694C17.4756 4.95069 18.665 5.38319 18.795 6.54569C18.8283 6.703 18.8234 6.86601 18.7806 7.02101C18.7378 7.17602 18.6585 7.3185 18.5493 7.4365C18.44 7.55449 18.3041 7.64455 18.1528 7.69911C18.0016 7.75368 17.8394 7.77115 17.68 7.75007Z" fill="url(#paint1_linear_577_378)"/>
<path d="M5.48859 8.08127C7.48551 5.61109 10.2418 3.86892 13.3298 3.12502C14.1223 3.06877 13.0948 2.59189 12.8967 2.32314C11.7785 1.40859 10.4655 0.762512 9.05865 0.43455C7.65178 0.106587 6.18846 0.105465 4.78109 0.431269C4.75516 0.437795 4.73118 0.450456 4.71117 0.468185C4.69115 0.485914 4.67569 0.508192 4.66609 0.533144C4.64734 0.577519 3.16921 4.87689 5.27734 8.35502C5.34796 8.25939 5.41796 8.17064 5.48796 8.08127H5.48859ZM23.4061 3.33564C26.3153 4.18493 28.8772 5.94107 30.7186 8.34814C32.8211 4.87064 31.3436 0.577519 31.3242 0.533144C27.9098 -0.513106 24.6967 1.22752 23.1198 3.18314C23.1573 3.30814 23.3005 3.28877 23.4061 3.33564Z" fill="url(#paint2_linear_577_378)"/>
<defs>
<linearGradient id="paint0_linear_577_378" x1="18.0041" y1="4.55945" x2="18.0041" y2="33.8026" gradientUnits="userSpaceOnUse">
<stop stop-color="#F37021"/>
<stop offset="1" stop-color="#F89C3C"/>
</linearGradient>
<linearGradient id="paint1_linear_577_378" x1="17.8219" y1="1.05859" x2="17.8219" y2="11.7861" gradientUnits="userSpaceOnUse">
<stop stop-color="#00588C"/>
<stop offset="1" stop-color="#0074B7"/>
</linearGradient>
<linearGradient id="paint2_linear_577_378" x1="17.9958" y1="0.187744" x2="17.9958" y2="8.35502" gradientUnits="userSpaceOnUse">
<stop stop-color="#00588C"/>
<stop offset="1" stop-color="#0074B7"/>
</linearGradient>
</defs>
</svg>
