<svg id="list" width="28" height="36" viewBox="0 0 28 36" fill="none" xmlns="http://www.w3.org/2000/svg">
<path d="M17.1544 31.955H0.561279V32.955C0.562601 33.6296 0.831158 34.2761 1.30815 34.7531C1.78515 35.2301 2.43171 35.4987 3.10628 35.5H17.7482C16.9657 34.6656 17.1757 33.0125 17.1544 31.955ZM26.2507 5.68313V3.16563C26.2487 2.45829 25.9664 1.78058 25.4657 1.28095C24.965 0.781315 24.2867 0.500493 23.5794 0.5H22.8157V7.44188H24.4919C24.9582 7.44138 25.4053 7.25592 25.735 6.9262C26.0647 6.59648 26.2502 6.14942 26.2507 5.68313ZM26.3275 10.9925C26.0495 10.8273 25.7401 10.7218 25.419 10.6826C25.098 10.6435 24.7723 10.6716 24.4627 10.7651C24.1531 10.8586 23.8663 11.0155 23.6207 11.2259C23.375 11.4362 23.1758 11.6954 23.0357 11.9869L25.2888 13.3444C25.411 13.4216 25.4981 13.5437 25.5314 13.6845C25.5646 13.8252 25.5413 13.9734 25.4666 14.0971C25.3918 14.2209 25.2715 14.3104 25.1314 14.3465C24.9914 14.3826 24.8428 14.3623 24.7175 14.29C24.0957 13.9337 23.0825 13.2856 22.4694 12.9325L16.3519 23.0562C16.6575 23.2369 17.4407 23.7137 17.7369 23.8919C17.8592 23.9691 17.9463 24.0912 17.9795 24.232C18.0127 24.3727 17.9895 24.5209 17.9147 24.6446C17.8399 24.7684 17.7196 24.8579 17.5796 24.894C17.4395 24.9301 17.2909 24.9098 17.1657 24.8375C17.0482 24.7731 16.3113 24.3175 16.2144 24.26L16.7644 26.7337C16.7644 26.7794 16.8119 26.7919 16.8469 26.7887L19.9688 25.9419C19.9772 25.9396 19.9849 25.9356 19.9915 25.9299C19.9981 25.9243 20.0034 25.9173 20.0069 25.9094C21.6657 23.1719 25.34 17.0769 27.1082 14.1531C27.4233 13.6304 27.5181 13.0039 27.3717 12.4113C27.2254 11.8187 26.8498 11.3084 26.3275 10.9925Z" fill="url(#paint0_linear_612_592)"/>
<path d="M20.2763 26.9975L17.3413 27.6956C17.1561 27.7385 16.9643 27.7443 16.7768 27.7127C16.5894 27.6811 16.41 27.6127 16.2491 27.5115C16.0882 27.4103 15.9489 27.2783 15.8392 27.123C15.7295 26.9678 15.6517 26.7924 15.6101 26.6069L14.8901 23.3862C14.9882 23.2006 21.7163 12.0475 21.7163 12.0475V0.5H6.25632C5.26255 0.501158 4.30981 0.8964 3.60705 1.59904C2.90429 2.30168 2.50889 3.25436 2.50757 4.24812V30.8563H17.7051C17.7775 30.8554 17.8494 30.8691 17.9165 30.8964C17.9836 30.9238 18.0446 30.9642 18.0958 31.0155C18.1471 31.0667 18.1876 31.1277 18.2149 31.1948C18.2423 31.2619 18.2559 31.3338 18.2551 31.4062V33.775C18.2551 34.2342 18.4375 34.6745 18.7621 34.9992C19.0868 35.3238 19.5272 35.5062 19.9863 35.5062C20.4455 35.5062 20.8858 35.3238 21.2105 34.9992C21.5352 34.6745 21.7176 34.2342 21.7176 33.775V25.2062L20.7276 26.8438L20.2763 26.9975ZM16.1263 18.7638H10.9938C10.8526 18.757 10.7195 18.6962 10.622 18.5939C10.5244 18.4916 10.47 18.3557 10.47 18.2144C10.47 18.073 10.5244 17.9371 10.622 17.8348C10.7195 17.7326 10.8526 17.6717 10.9938 17.665H16.1276C16.2687 17.6717 16.4019 17.7326 16.4994 17.8348C16.5969 17.9371 16.6514 18.073 16.6514 18.2144C16.6514 18.3557 16.5969 18.4916 16.4994 18.5939C16.4019 18.6962 16.2687 18.757 16.1276 18.7638H16.1263ZM13.3457 22.815C13.3459 22.8873 13.3319 22.9589 13.3043 23.0257C13.2768 23.0925 13.2362 23.1532 13.1851 23.2042C13.134 23.2553 13.0733 23.2958 13.0064 23.3232C12.9396 23.3507 12.868 23.3647 12.7957 23.3644H10.9938C10.9201 23.3669 10.8466 23.3545 10.7777 23.328C10.7089 23.3015 10.646 23.2614 10.593 23.2101C10.5399 23.1588 10.4977 23.0974 10.4689 23.0294C10.4401 22.9615 10.4253 22.8885 10.4253 22.8147C10.4253 22.7409 10.4401 22.6679 10.4689 22.5999C10.4977 22.532 10.5399 22.4706 10.593 22.4193C10.646 22.368 10.7089 22.3279 10.7777 22.3014C10.8466 22.2749 10.9201 22.2625 10.9938 22.265H12.7969C12.9426 22.2655 13.0821 22.3236 13.1851 22.4267C13.288 22.5297 13.3454 22.6693 13.3457 22.815ZM18.7813 14.1637H10.9938C10.9201 14.1662 10.8466 14.1539 10.7777 14.1274C10.7089 14.1009 10.646 14.0608 10.593 14.0095C10.5399 13.9582 10.4977 13.8967 10.4689 13.8288C10.4401 13.7609 10.4253 13.6878 10.4253 13.6141C10.4253 13.5403 10.4401 13.4672 10.4689 13.3993C10.4977 13.3314 10.5399 13.2699 10.593 13.2187C10.646 13.1674 10.7089 13.1273 10.7777 13.1008C10.8466 13.0743 10.9201 13.0619 10.9938 13.0644H18.7813C18.9239 13.0692 19.059 13.1292 19.1582 13.2318C19.2573 13.3343 19.3128 13.4714 19.3128 13.6141C19.3128 13.7567 19.2573 13.8938 19.1582 13.9964C19.059 14.0989 18.9239 14.1589 18.7813 14.1637ZM19.3313 9.01375C19.3316 9.08607 19.3176 9.15774 19.2901 9.22462C19.2626 9.2915 19.2221 9.35226 19.171 9.4034C19.1198 9.45453 19.0591 9.49504 18.9922 9.52256C18.9253 9.55008 18.8536 9.56408 18.7813 9.56375H10.9938C10.8479 9.56375 10.7081 9.5058 10.6049 9.40266C10.5018 9.29951 10.4438 9.15962 10.4438 9.01375C10.4438 8.86788 10.5018 8.72799 10.6049 8.62484C10.7081 8.5217 10.8479 8.46375 10.9938 8.46375H18.7813C18.8538 8.46291 18.9257 8.47657 18.9928 8.50391C19.0599 8.53125 19.1209 8.57173 19.1721 8.62297C19.2233 8.67421 19.2638 8.73518 19.2912 8.80229C19.3185 8.86939 19.3322 8.94129 19.3313 9.01375ZM6.77757 4.52875H17.4401C17.5826 4.53356 17.7178 4.59358 17.8169 4.69614C17.9161 4.7987 17.9715 4.93578 17.9715 5.07844C17.9715 5.2211 17.9161 5.35817 17.8169 5.46074C17.7178 5.5633 17.5826 5.62332 17.4401 5.62813H6.77757C6.63499 5.62332 6.49986 5.5633 6.4007 5.46074C6.30154 5.35817 6.24611 5.2211 6.24611 5.07844C6.24611 4.93578 6.30154 4.7987 6.4007 4.69614C6.49986 4.59358 6.63499 4.53356 6.77757 4.52875ZM7.58569 27.97H5.43694C5.29577 27.9633 5.16261 27.9024 5.06509 27.8002C4.96756 27.6979 4.91316 27.562 4.91316 27.4206C4.91316 27.2793 4.96756 27.1434 5.06509 27.0411C5.16261 26.9388 5.29577 26.878 5.43694 26.8713H7.58569C7.72686 26.878 7.86002 26.9388 7.95755 27.0411C8.05507 27.1434 8.10948 27.2793 8.10948 27.4206C8.10948 27.562 8.05507 27.6979 7.95755 27.8002C7.86002 27.9024 7.72686 27.9633 7.58569 27.97ZM7.58569 23.3644H5.43694C5.29436 23.3596 5.15923 23.2995 5.06007 23.197C4.96091 23.0944 4.90548 22.9573 4.90548 22.8147C4.90548 22.672 4.96091 22.535 5.06007 22.4324C5.15923 22.3298 5.29436 22.2698 5.43694 22.265H7.58569C7.72827 22.2698 7.8634 22.3298 7.96256 22.4324C8.06172 22.535 8.11715 22.672 8.11715 22.8147C8.11715 22.9573 8.06172 23.0944 7.96256 23.197C7.8634 23.2995 7.72827 23.3596 7.58569 23.3644ZM7.58569 18.7644H5.43694C5.29107 18.7644 5.15118 18.7064 5.04803 18.6033C4.94489 18.5001 4.88694 18.3602 4.88694 18.2144C4.88694 18.0685 4.94489 17.9286 5.04803 17.8255C5.15118 17.7223 5.29107 17.6644 5.43694 17.6644H7.58569C7.73156 17.6644 7.87146 17.7223 7.9746 17.8255C8.07775 17.9286 8.13569 18.0685 8.13569 18.2144C8.13569 18.3602 8.07775 18.5001 7.9746 18.6033C7.87146 18.7064 7.73156 18.7644 7.58569 18.7644ZM7.58569 14.1637H5.43694C5.29436 14.1589 5.15923 14.0989 5.06007 13.9964C4.96091 13.8938 4.90548 13.7567 4.90548 13.6141C4.90548 13.4714 4.96091 13.3343 5.06007 13.2318C5.15923 13.1292 5.29436 13.0692 5.43694 13.0644H7.58569C7.72827 13.0692 7.8634 13.1292 7.96256 13.2318C8.06172 13.3343 8.11715 13.4714 8.11715 13.6141C8.11715 13.7567 8.06172 13.8938 7.96256 13.9964C7.8634 14.0989 7.72827 14.1589 7.58569 14.1637ZM7.58569 9.56375H5.43694C5.29107 9.56375 5.15118 9.5058 5.04803 9.40266C4.94489 9.29951 4.88694 9.15962 4.88694 9.01375C4.88694 8.86788 4.94489 8.72799 5.04803 8.62484C5.15118 8.5217 5.29107 8.46375 5.43694 8.46375H7.58569C7.73156 8.46375 7.87146 8.5217 7.9746 8.62484C8.07775 8.72799 8.13569 8.86788 8.13569 9.01375C8.13569 9.15962 8.07775 9.29951 7.9746 9.40266C7.87146 9.5058 7.73156 9.56375 7.58569 9.56375ZM13.9888 27.97H10.9932C10.852 27.9633 10.7189 27.9024 10.6213 27.8002C10.5238 27.6979 10.4694 27.562 10.4694 27.4206C10.4694 27.2793 10.5238 27.1434 10.6213 27.0411C10.7189 26.9388 10.852 26.878 10.9932 26.8713H13.9888C14.13 26.878 14.2631 26.9388 14.3607 27.0411C14.4582 27.1434 14.5126 27.2793 14.5126 27.4206C14.5126 27.562 14.4582 27.6979 14.3607 27.8002C14.2631 27.9024 14.13 27.9633 13.9888 27.97Z" fill="url(#paint1_linear_612_592)"/>
<defs>
<linearGradient id="paint0_linear_612_592" x1="14.0001" y1="0.5" x2="14.0001" y2="35.5" gradientUnits="userSpaceOnUse">
<stop stop-color="#F37021"/>
<stop offset="1" stop-color="#F89C3C"/>
</linearGradient>
<linearGradient id="paint1_linear_612_592" x1="12.1126" y1="0.5" x2="12.1126" y2="35.5062" gradientUnits="userSpaceOnUse">
<stop stop-color="#00588C"/>
<stop offset="1" stop-color="#0074B7"/>
</linearGradient>
</defs>
</svg>
