<svg id="list" width="70" height="70" viewBox="0 0 70 70" fill="none" xmlns="http://www.w3.org/2000/svg">
<path d="M40.6525 59.4114H11.4824V61.1611C11.4847 62.3414 11.9569 63.4727 12.7954 64.3073C13.6339 65.1419 14.7706 65.6118 15.9564 65.6141H41.6963C40.3207 64.1542 40.6899 61.2617 40.6525 59.4114ZM56.6434 13.4438V9.03901C56.6399 7.8014 56.1437 6.61562 55.2636 5.74142C54.3834 4.86721 53.1909 4.37586 51.9475 4.375H50.6048V16.5211H53.5516C54.3713 16.5202 55.1572 16.1958 55.7369 15.6188C56.3165 15.0419 56.6425 14.2597 56.6434 13.4438ZM56.7786 22.7336C56.2898 22.4446 55.7459 22.2599 55.1815 22.1914C54.6171 22.1229 54.0446 22.172 53.5003 22.3357C52.956 22.4993 52.4519 22.7739 52.02 23.1419C51.5881 23.5099 51.2379 23.9634 50.9916 24.4734L54.9525 26.8486C55.1674 26.9838 55.3205 27.1974 55.3789 27.4437C55.4374 27.6899 55.3965 27.9492 55.265 28.1657C55.1336 28.3823 54.9221 28.539 54.6759 28.6021C54.4297 28.6651 54.1684 28.6297 53.9482 28.5032C52.855 27.8799 51.074 26.7458 49.9961 26.128L39.2418 43.8414C39.7791 44.1574 41.1558 44.9918 41.6766 45.3035C41.8915 45.4386 42.0446 45.6523 42.103 45.8985C42.1615 46.1448 42.1206 46.404 41.9891 46.6206C41.8577 46.8371 41.6461 46.9938 41.3999 47.0569C41.1537 47.12 40.8925 47.0845 40.6723 46.958C40.4658 46.8454 39.1704 46.0482 39.0001 45.9476L39.9669 50.2759C39.9669 50.3557 40.0504 50.3776 40.112 50.3721L45.6001 48.8903C45.6148 48.8864 45.6285 48.8793 45.6401 48.8695C45.6517 48.8596 45.6609 48.8473 45.6671 48.8335C48.5832 44.0437 55.0426 33.3794 58.1509 28.2637C58.7049 27.349 58.8716 26.2529 58.6143 25.2161C58.357 24.1792 57.6967 23.2864 56.7786 22.7336Z" fill="url(#paint0_linear_2164_407)"/>
<path d="M46.1406 50.7373L40.981 51.9588C40.6554 52.0338 40.3182 52.044 39.9887 51.9887C39.6591 51.9334 39.3439 51.8138 39.061 51.6367C38.7781 51.4597 38.5332 51.2287 38.3404 50.957C38.1476 50.6853 38.0107 50.3784 37.9375 50.0539L36.6718 44.4188C36.8443 44.094 48.6721 24.5795 48.6721 24.5795V4.375H21.494C19.747 4.37703 18.0721 5.06858 16.8367 6.29798C15.6012 7.52738 14.9061 9.19427 14.9038 10.933V57.489H41.6205C41.7478 57.4875 41.8742 57.5114 41.9922 57.5592C42.1102 57.6071 42.2174 57.6779 42.3074 57.7675C42.3975 57.8572 42.4687 57.9639 42.5167 58.0813C42.5648 58.1987 42.5888 58.3245 42.5873 58.4513V62.5959C42.5873 63.3992 42.908 64.1697 43.4788 64.7378C44.0495 65.3059 44.8236 65.625 45.6308 65.625C46.438 65.625 47.2121 65.3059 47.7829 64.7378C48.3536 64.1697 48.6743 63.3992 48.6743 62.5959V47.6032L46.9339 50.4683L46.1406 50.7373ZM38.8451 36.3309H29.8223C29.5742 36.3191 29.3401 36.2127 29.1686 36.0337C28.9972 35.8547 28.9015 35.6169 28.9015 35.3696C28.9015 35.1223 28.9972 34.8845 29.1686 34.7056C29.3401 34.5266 29.5742 34.4202 29.8223 34.4084H38.8473C39.0954 34.4202 39.3295 34.5266 39.501 34.7056C39.6724 34.8845 39.7681 35.1223 39.7681 35.3696C39.7681 35.6169 39.6724 35.8547 39.501 36.0337C39.3295 36.2127 39.0954 36.3191 38.8473 36.3309H38.8451ZM33.9568 43.4193C33.9573 43.5457 33.9326 43.671 33.8841 43.7879C33.8357 43.9048 33.7644 44.011 33.6746 44.1003C33.5847 44.1897 33.4779 44.2605 33.3604 44.3085C33.2429 44.3566 33.117 44.3811 32.99 44.3805H29.8223C29.6927 44.3849 29.5635 44.3632 29.4424 44.3168C29.3214 44.2705 29.2109 44.2003 29.1177 44.1106C29.0244 44.0208 28.9503 43.9133 28.8996 43.7945C28.849 43.6756 28.8229 43.5478 28.8229 43.4187C28.8229 43.2896 28.849 43.1618 28.8996 43.043C28.9503 42.9241 29.0244 42.8166 29.1177 42.7269C29.2109 42.6372 29.3214 42.567 29.4424 42.5206C29.5635 42.4743 29.6927 42.4526 29.8223 42.457H32.9922C33.2482 42.4578 33.4935 42.5595 33.6745 42.7398C33.8555 42.9201 33.9563 43.1644 33.9568 43.4193ZM43.5125 28.2823H29.8223C29.6927 28.2866 29.5635 28.265 29.4424 28.2186C29.3214 28.1722 29.2109 28.1021 29.1177 28.0124C29.0244 27.9226 28.9503 27.8151 28.8996 27.6963C28.849 27.5774 28.8229 27.4496 28.8229 27.3205C28.8229 27.1914 28.849 27.0636 28.8996 26.9448C28.9503 26.8259 29.0244 26.7184 29.1177 26.6287C29.2109 26.5389 29.3214 26.4688 29.4424 26.4224C29.5635 26.376 29.6927 26.3544 29.8223 26.3587H43.5125C43.7631 26.3671 44.0007 26.4722 44.175 26.6516C44.3493 26.8311 44.4468 27.0709 44.4468 27.3205C44.4468 27.5701 44.3493 27.81 44.175 27.9894C44.0007 28.1689 43.7631 28.2739 43.5125 28.2823ZM44.4794 19.2714C44.4799 19.3979 44.4553 19.5233 44.4069 19.6404C44.3586 19.7574 44.2874 19.8637 44.1975 19.9532C44.1076 20.0426 44.0007 20.1135 43.8832 20.1617C43.7656 20.2098 43.6396 20.2343 43.5125 20.2337H29.8223C29.5659 20.2337 29.32 20.1323 29.1386 19.9519C28.9573 19.7714 28.8554 19.5266 28.8554 19.2714C28.8554 19.0162 28.9573 18.7714 29.1386 18.5909C29.32 18.4105 29.5659 18.3091 29.8223 18.3091H43.5125C43.6399 18.3076 43.7662 18.3315 43.8842 18.3793C44.0022 18.4272 44.1094 18.498 44.1994 18.5877C44.2895 18.6773 44.3607 18.784 44.4088 18.9014C44.4568 19.0188 44.4808 19.1446 44.4794 19.2714ZM22.4103 11.4241H41.1546C41.4053 11.4325 41.6428 11.5375 41.8171 11.7169C41.9915 11.8964 42.0889 12.1362 42.0889 12.3858C42.0889 12.6354 41.9915 12.8753 41.8171 13.0547C41.6428 13.2342 41.4053 13.3392 41.1546 13.3476H22.4103C22.1597 13.3392 21.9221 13.2342 21.7478 13.0547C21.5735 12.8753 21.476 12.6354 21.476 12.3858C21.476 12.1362 21.5735 11.8964 21.7478 11.7169C21.9221 11.5375 22.1597 11.4325 22.4103 11.4241ZM23.831 52.4389H20.0535C19.8054 52.4271 19.5713 52.3207 19.3998 52.1417C19.2284 51.9628 19.1327 51.725 19.1327 51.4777C19.1327 51.2304 19.2284 50.9926 19.3998 50.8136C19.5713 50.6347 19.8054 50.5282 20.0535 50.5164H23.831C24.0791 50.5282 24.3132 50.6347 24.4847 50.8136C24.6561 50.9926 24.7518 51.2304 24.7518 51.4777C24.7518 51.725 24.6561 51.9628 24.4847 52.1417C24.3132 52.3207 24.0791 52.4271 23.831 52.4389ZM23.831 44.3805H20.0535C19.8029 44.3721 19.5653 44.2671 19.391 44.0876C19.2167 43.9082 19.1193 43.6683 19.1193 43.4187C19.1193 43.1691 19.2167 42.9293 19.391 42.7498C19.5653 42.5704 19.8029 42.4654 20.0535 42.457H23.831C24.0816 42.4654 24.3192 42.5704 24.4935 42.7498C24.6678 42.9293 24.7653 43.1691 24.7653 43.4187C24.7653 43.6683 24.6678 43.9082 24.4935 44.0876C24.3192 44.2671 24.0816 44.3721 23.831 44.3805ZM23.831 36.3319H20.0535C19.7971 36.3319 19.5512 36.2306 19.3699 36.0501C19.1885 35.8696 19.0867 35.6248 19.0867 35.3696C19.0867 35.1144 19.1885 34.8696 19.3699 34.6892C19.5512 34.5087 19.7971 34.4073 20.0535 34.4073H23.831C24.0874 34.4073 24.3333 34.5087 24.5147 34.6892C24.696 34.8696 24.7978 35.1144 24.7978 35.3696C24.7978 35.6248 24.696 35.8696 24.5147 36.0501C24.3333 36.2306 24.0874 36.3319 23.831 36.3319ZM23.831 28.2823H20.0535C19.8029 28.2739 19.5653 28.1689 19.391 27.9894C19.2167 27.81 19.1193 27.5701 19.1193 27.3205C19.1193 27.0709 19.2167 26.8311 19.391 26.6516C19.5653 26.4722 19.8029 26.3671 20.0535 26.3587H23.831C24.0816 26.3671 24.3192 26.4722 24.4935 26.6516C24.6678 26.8311 24.7653 27.0709 24.7653 27.3205C24.7653 27.5701 24.6678 27.81 24.4935 27.9894C24.3192 28.1689 24.0816 28.2739 23.831 28.2823ZM23.831 20.2337H20.0535C19.7971 20.2337 19.5512 20.1323 19.3699 19.9519C19.1885 19.7714 19.0867 19.5266 19.0867 19.2714C19.0867 19.0162 19.1885 18.7714 19.3699 18.5909C19.5512 18.4105 19.7971 18.3091 20.0535 18.3091H23.831C24.0874 18.3091 24.3333 18.4105 24.5147 18.5909C24.696 18.7714 24.7978 19.0162 24.7978 19.2714C24.7978 19.5266 24.696 19.7714 24.5147 19.9519C24.3333 20.1323 24.0874 20.2337 23.831 20.2337ZM35.0874 52.4389H29.8212C29.5731 52.4271 29.339 52.3207 29.1675 52.1417C28.9961 51.9628 28.9004 51.725 28.9004 51.4777C28.9004 51.2304 28.9961 50.9926 29.1675 50.8136C29.339 50.6347 29.5731 50.5282 29.8212 50.5164H35.0874C35.3356 50.5282 35.5697 50.6347 35.7411 50.8136C35.9126 50.9926 36.0082 51.2304 36.0082 51.4777C36.0082 51.725 35.9126 51.9628 35.7411 52.1417C35.5697 52.3207 35.3356 52.4271 35.0874 52.4389Z" fill="url(#paint1_linear_2164_407)"/>
<defs>
<linearGradient id="paint0_linear_2164_407" x1="35.1074" y1="4.375" x2="35.1074" y2="65.6141" gradientUnits="userSpaceOnUse">
<stop stop-color="#F37021"/>
<stop offset="1" stop-color="#F89C3C"/>
</linearGradient>
<linearGradient id="paint1_linear_2164_407" x1="31.7891" y1="4.375" x2="31.7891" y2="65.625" gradientUnits="userSpaceOnUse">
<stop stop-color="#00588C"/>
<stop offset="1" stop-color="#0074B7"/>
</linearGradient>
</defs>
</svg>
