<svg width="24" height="24" viewBox="0 0 24 24" fill="none" xmlns="http://www.w3.org/2000/svg">
<path d="M22.8208 11.5672L12.4379 1.17928C12.3232 1.06449 12.1676 1 12.0053 1C11.8431 1 11.6874 1.06449 11.5727 1.17928C11.458 1.29408 11.3935 1.44977 11.3935 1.61211C11.3935 1.77445 11.458 1.93015 11.5727 2.04494L20.911 11.3878L1.62245 11.388C1.54122 11.3866 1.46053 11.4014 1.38507 11.4315C1.30962 11.4616 1.24091 11.5065 1.18297 11.5634C1.12503 11.6204 1.07901 11.6883 1.04759 11.7633C1.01618 11.8383 1 11.9187 1 12C1 12.0813 1.01618 12.1617 1.04759 12.2367C1.07901 12.3117 1.12503 12.3796 1.18297 12.4366C1.24091 12.4935 1.30962 12.5384 1.38507 12.5685C1.46053 12.5986 1.54122 12.6134 1.62245 12.612L20.9112 12.612L11.5727 21.9551C11.458 22.0699 11.3935 22.2255 11.3935 22.3879C11.3935 22.5502 11.458 22.7059 11.5727 22.8207C11.6874 22.9355 11.8431 23 12.0053 23C12.1676 23 12.3232 22.9355 12.4379 22.8207L22.8208 12.4328C22.9355 12.318 23 12.1623 23 12C23 11.8377 22.9355 11.682 22.8208 11.5672Z" fill="white" stroke="white" stroke-width="2"/>
</svg>
