<svg id="pain" width="26" height="36" viewBox="0 0 26 36" fill="none" xmlns="http://www.w3.org/2000/svg">
<path d="M22.7968 10.1363L7.8062 0.791883C7.40221 0.538893 6.91833 0.445828 6.44932 0.530914C5.98031 0.616 5.55995 0.873106 5.27058 1.25188L0.549952 7.41563C0.26731 7.78485 0.128362 8.24415 0.158941 8.70813C0.189521 9.17211 0.387547 9.6092 0.716202 9.93813C2.26808 11.4838 5.80683 14.5113 12.0787 17.36C12.2307 17.4308 12.3501 17.5566 12.413 17.7121C12.4758 17.8675 12.4774 18.041 12.4175 18.1975C11.7981 19.73 11.0893 21.9206 11.2175 23.6644C11.4352 26.4481 11.1362 29.2481 10.3356 31.9231C10.2474 32.1948 10.2205 32.4827 10.2569 32.766C10.2932 33.0493 10.3919 33.3211 10.5458 33.5617C10.6996 33.8024 10.9049 34.0059 11.1468 34.1578C11.3888 34.3097 11.6613 34.406 11.945 34.44C11.945 34.44 20.6381 35.5 20.715 35.5C21.159 35.4992 21.5892 35.3449 21.9325 35.0632C22.2758 34.7815 22.5112 34.3898 22.5987 33.9544L25.805 17.75C26.2431 12.73 22.9487 10.2031 22.7968 10.1363ZM12.36 14.62C10.4131 14.2294 10.1012 12.7169 10.265 11.8544L4.59995 7.90688C4.46925 7.80637 4.38238 7.65929 4.35745 7.4963C4.33253 7.33331 4.37147 7.16699 4.46616 7.03201C4.56085 6.89703 4.70398 6.8038 4.86572 6.77175C5.02746 6.73971 5.19532 6.77132 5.33433 6.86001L11.1018 10.8838C11.2865 11.0424 11.422 11.2505 11.4922 11.4837C11.5624 11.7168 11.5645 11.9651 11.4981 12.1994C11.3606 13.5613 13.9781 13.9706 13.8675 12.0013C13.9281 11.1469 14.5756 11.6181 15.0875 10.7556C15.1883 10.5453 15.2256 10.31 15.1946 10.0788C15.1636 9.8476 15.0658 9.63046 14.9131 9.45408C14.7604 9.27769 14.5595 9.14975 14.3351 9.08596C14.1107 9.02217 13.8726 9.02532 13.65 9.09501C13.402 9.23804 13.1214 9.3149 12.8352 9.31818C12.549 9.32146 12.2667 9.25107 12.0156 9.11376L6.22808 5.32001C6.15674 5.27425 6.09518 5.21481 6.04695 5.14512C5.99873 5.07543 5.96479 4.99687 5.94712 4.91398C5.92944 4.83109 5.92837 4.74552 5.94397 4.66222C5.95956 4.57892 5.99152 4.49953 6.03799 4.42865C6.08445 4.35778 6.14451 4.29681 6.21468 4.24929C6.28485 4.20176 6.36375 4.16862 6.44681 4.15178C6.52987 4.13493 6.61545 4.13472 6.69859 4.15115C6.78173 4.16758 6.86079 4.20033 6.9312 4.24751L12.6925 8.03501C12.7943 8.09251 13.005 7.99001 13.0562 7.95813C13.6229 7.7382 14.2493 7.72668 14.8237 7.92562C15.3981 8.12457 15.8832 8.52105 16.1925 9.04438C16.4968 9.63158 16.5561 10.3155 16.3573 10.9463C16.1585 11.5771 15.7179 12.1034 15.1318 12.41C15.1041 12.7408 15.0092 13.0624 14.8528 13.3552C14.6964 13.648 14.4819 13.9057 14.2224 14.1126C13.9628 14.3195 13.6638 14.4713 13.3435 14.5585C13.0233 14.6458 12.6886 14.6667 12.36 14.62ZM20.4018 24.4631C20.3312 24.4956 20.2712 24.4713 20.2099 24.5206L18.875 31.8656C18.8399 32.0273 18.7436 32.1692 18.6062 32.2614C18.4688 32.3535 18.301 32.3888 18.1381 32.3599C17.9752 32.3309 17.8299 32.2399 17.7327 32.106C17.6355 31.9721 17.5939 31.8057 17.6168 31.6419L18.9775 24.1688C19.0494 23.9258 19.1891 23.7084 19.3803 23.5421C19.5715 23.3758 19.8062 23.2675 20.0568 23.23C20.3607 23.108 20.6048 22.8721 20.7372 22.5726C20.8696 22.2731 20.8798 21.9338 20.7656 21.6269C20.709 21.4271 20.6057 21.2435 20.4644 21.0914C20.323 20.9392 20.1475 20.8228 19.9524 20.7517C19.7572 20.6806 19.548 20.6569 19.3419 20.6825C19.1358 20.708 18.9387 20.7822 18.7668 20.8988C17.9256 21.205 18.1106 20.3606 17.0231 20.26C16.7609 20.2542 16.5028 20.3253 16.2806 20.4644C16.0583 20.6036 15.8816 20.8047 15.7723 21.043C15.6629 21.2813 15.6256 21.5464 15.6651 21.8057C15.7046 22.0649 15.819 22.3069 15.9943 22.5019C16.2415 22.6744 16.4397 22.9081 16.5696 23.1801C16.6995 23.4521 16.7567 23.7531 16.7356 24.0538L15.5981 31.4313C15.5727 31.5981 15.4821 31.748 15.3462 31.8481C15.2103 31.9481 15.0402 31.9901 14.8734 31.9647C14.7066 31.9393 14.5566 31.8487 14.4566 31.7128C14.3565 31.5769 14.3146 31.4068 14.34 31.24L15.465 23.8819C15.49 23.7025 15.215 23.5113 15.2087 23.5113C14.7498 23.0616 14.4653 22.4637 14.4058 21.824C14.3463 21.1842 14.5156 20.5441 14.8837 20.0175C15.0994 19.7433 15.367 19.5144 15.6713 19.3438C15.9756 19.1732 16.3105 19.0643 16.657 19.0234C17.0034 18.9824 17.3545 19.0103 17.6902 19.1052C18.0258 19.2002 18.3395 19.3605 18.6131 19.5769C20.3212 18.8656 21.7249 20.29 21.9856 21.2694C22.1988 21.9029 22.1517 22.5952 21.8547 23.1941C21.5578 23.7929 21.0352 24.2494 20.4018 24.4631ZM22.4074 16.7406C22.2547 16.9539 22.0486 17.1234 21.8099 17.2321C21.5711 17.3408 21.308 17.3849 21.0468 17.36L18.5556 17.1238C18.296 17.0967 18.0481 17.0023 17.8362 16.85C17.6243 16.6977 17.4559 16.4927 17.3475 16.2554C17.2392 16.018 17.1947 15.7564 17.2185 15.4965C17.2423 15.2367 17.3335 14.9875 17.4831 14.7738L18.9331 12.73C19.0869 12.5191 19.293 12.352 19.5311 12.2451C19.7692 12.1381 20.0311 12.0951 20.2909 12.1202C20.5507 12.1453 20.7995 12.2377 21.0127 12.3883C21.2259 12.5388 21.3962 12.7423 21.5068 12.9788L22.5481 15.2588C22.6558 15.4966 22.6995 15.7585 22.6748 16.0184C22.6502 16.2783 22.558 16.5273 22.4074 16.7406Z" fill="url(#paint0_linear_577_387)"/>
<path d="M20.3436 13.5088C20.3293 13.4734 20.3055 13.4425 20.2749 13.4196C20.2444 13.3967 20.2081 13.3825 20.1701 13.3786C20.1321 13.3746 20.0937 13.3811 20.0591 13.3974C20.0245 13.4136 19.9949 13.4389 19.9736 13.4707L18.5236 15.5144C18.5014 15.545 18.4876 15.5809 18.4838 15.6186C18.4799 15.6562 18.4861 15.6942 18.5018 15.7286C18.5174 15.763 18.5419 15.7927 18.5728 15.8146C18.6036 15.8365 18.6397 15.8498 18.6774 15.8532L21.168 16.0894C21.2056 16.0942 21.2438 16.0887 21.2785 16.0737C21.3133 16.0586 21.3434 16.0345 21.3656 16.0038C21.3879 15.9732 21.4014 15.9371 21.4049 15.8993C21.4084 15.8616 21.4017 15.8236 21.3855 15.7894L20.3436 13.5088Z" fill="url(#paint1_linear_577_387)"/>
<defs>
<linearGradient id="paint0_linear_577_387" x1="12.9999" y1="0.500183" x2="12.9999" y2="35.5" gradientUnits="userSpaceOnUse">
<stop stop-color="#F37021"/>
<stop offset="1" stop-color="#F89C3C"/>
</linearGradient>
<linearGradient id="paint1_linear_577_387" x1="19.9443" y1="13.3774" x2="19.9443" y2="16.0911" gradientUnits="userSpaceOnUse">
<stop stop-color="#00588C"/>
<stop offset="1" stop-color="#0074B7"/>
</linearGradient>
</defs>
</svg>
