<svg width="70" height="70" viewBox="0 0 70 70" fill="none" xmlns="http://www.w3.org/2000/svg">
<path d="M61.5323 22.2619V16.0209C61.532 14.9058 61.0927 13.8365 60.3108 13.048C59.5289 12.2595 58.4686 11.8164 57.3629 11.8161C57.3629 11.8161 50.518 11.8194 49.6769 11.8161C49.424 10.5261 48.7352 9.36441 47.728 8.52925C46.7207 7.69409 45.4574 7.23714 44.1534 7.23633C35.8812 7.6996 37.2298 19.8374 45.3937 18.4509C45.6706 18.3917 45.9594 18.4434 46.1992 18.595C46.439 18.7467 46.6109 18.9864 46.6786 19.2635C46.7464 19.5406 46.7046 19.8334 46.5622 20.0801C46.4198 20.3267 46.1879 20.5079 45.9154 20.5853C44.6827 20.8625 43.4017 20.8353 42.1816 20.5061C40.9615 20.1769 39.8382 19.5553 38.9075 18.6943C37.9767 17.8333 37.2659 16.7583 36.8355 15.5608C36.4052 14.3632 36.268 13.0786 36.4357 11.8161H22.5502C22.2975 10.526 21.6088 9.36419 20.6015 8.529C19.5942 7.69381 18.3307 7.23693 17.0267 7.23633C8.91088 7.64666 9.99153 19.5947 18.0658 18.4895C18.3455 18.4436 18.632 18.5091 18.8647 18.6722C19.0974 18.8353 19.2582 19.0832 19.3132 19.3636C19.3681 19.644 19.3128 19.9349 19.1591 20.175C19.0053 20.4151 18.7651 20.5855 18.4891 20.6503C17.4522 20.8448 16.387 20.826 15.3575 20.595C14.328 20.364 13.3553 19.9257 12.498 19.3062C11.6406 18.6868 10.9162 17.899 10.3682 16.9903C9.82022 16.0815 9.45994 15.0705 9.30901 14.0178C9.18911 13.2889 9.18911 12.545 9.30901 11.8161C8.70423 11.7234 8.08678 11.7622 7.49808 11.9299C6.90938 12.0976 6.36305 12.3903 5.89576 12.7884C5.42846 13.1865 5.051 13.6809 4.78871 14.2382C4.52642 14.7955 4.38536 15.403 4.375 16.0198V22.263L61.5323 22.2619ZM40.8895 11.815C41.1179 11.1227 41.5566 10.5204 42.1434 10.0936C42.7302 9.66677 43.4353 9.43707 44.1588 9.43707C44.8823 9.43707 45.5875 9.66677 46.1743 10.0936C46.7611 10.5204 47.1998 11.1227 47.4281 11.815H40.8895ZM13.764 11.815C13.9926 11.1231 14.4313 10.5212 15.0179 10.0947C15.6046 9.66824 16.3095 9.43873 17.0327 9.43873C17.7559 9.43873 18.4608 9.66824 19.0475 10.0947C19.6341 10.5212 20.0728 11.1231 20.3014 11.815H13.764ZM61.3901 41.9235C53.7884 35.2854 41.5961 40.9671 41.676 51.1493C41.6838 54.3523 42.9489 57.422 45.1947 59.687C47.4405 61.9521 50.4843 63.2282 53.6604 63.2363C64.8093 63.2308 69.8428 49.0447 61.3901 41.9235ZM53.6615 41.8352C53.8778 41.8431 54.0826 41.9353 54.2328 42.0924C54.383 42.2495 54.467 42.4592 54.467 42.6774C54.467 42.8956 54.383 43.1053 54.2328 43.2624C54.0826 43.4195 53.8778 43.5117 53.6615 43.5196C53.4453 43.5117 53.2405 43.4195 53.0903 43.2624C52.9401 43.1053 52.8561 42.8956 52.8561 42.6774C52.8561 42.4592 52.9401 42.2495 53.0903 42.0924C53.2405 41.9353 53.4453 41.8431 53.6615 41.8352ZM45.6715 46.4923C45.7843 46.3053 45.965 46.1702 46.1752 46.1158C46.3854 46.0615 46.6084 46.0921 46.7964 46.2013C46.9845 46.3104 47.1228 46.4894 47.1817 46.7C47.2407 46.9106 47.2157 47.1361 47.112 47.3284C46.9993 47.5153 46.8185 47.6504 46.6083 47.7048C46.3981 47.7591 46.1752 47.7285 45.9871 47.6193C45.7991 47.5102 45.6608 47.3312 45.6018 47.1206C45.5428 46.91 45.5679 46.6845 45.6715 46.4923ZM47.2214 55.4312C47.2069 55.6088 47.1372 55.7772 47.0222 55.9124C46.9072 56.0477 46.7528 56.1429 46.581 56.1844C46.4093 56.226 46.2289 56.2118 46.0656 56.1439C45.9022 56.076 45.7643 55.9579 45.6715 55.8063C45.6083 55.6936 45.5719 55.5676 45.5652 55.4383C45.5585 55.309 45.5816 55.1799 45.6328 55.0611C45.684 54.9424 45.7619 54.8372 45.8603 54.754C45.9586 54.6708 46.0748 54.6118 46.1997 54.5815C46.3245 54.5513 46.4546 54.5508 46.5797 54.5799C46.7049 54.6091 46.8215 54.6671 46.9206 54.7495C47.0197 54.8319 47.0984 54.9364 47.1506 55.0547C47.2028 55.173 47.227 55.3019 47.2214 55.4312ZM53.6615 60.4501C53.4476 60.439 53.246 60.3455 53.0985 60.1889C52.9509 60.0323 52.8686 59.8245 52.8686 59.6084C52.8686 59.3924 52.9509 59.1846 53.0985 59.028C53.246 58.8714 53.4476 58.7779 53.6615 58.7668C53.8778 58.7747 54.0826 58.8669 54.2328 59.024C54.383 59.1811 54.467 59.3908 54.467 59.609C54.467 59.8272 54.383 60.0369 54.2328 60.194C54.0826 60.3511 53.8778 60.4422 53.6615 60.4501ZM58.1919 55.8173C58.0958 55.9131 57.9817 55.9886 57.8563 56.0394C57.7309 56.0903 57.5968 56.1154 57.4616 56.1133C57.3265 56.1113 57.1931 56.0821 57.0693 56.0275C56.9455 55.9729 56.8337 55.8939 56.7405 55.7953L52.92 51.8751C52.7323 51.6802 52.6265 51.4198 52.6246 51.1482V46.2507C52.6246 45.9734 52.7339 45.7074 52.9283 45.5113C53.1228 45.3152 53.3865 45.205 53.6615 45.205C53.9365 45.205 54.2003 45.3152 54.3947 45.5113C54.5892 45.7074 54.6984 45.9734 54.6984 46.2507V50.7191L58.2138 54.3414C58.4047 54.54 58.5096 54.8069 58.5055 55.0834C58.5014 55.3599 58.3886 55.6246 58.1919 55.8173ZM61.6526 55.8063C61.5383 55.9934 61.3558 56.1279 61.1444 56.1811C60.9329 56.2343 60.7092 56.202 60.5211 56.0911C60.3329 55.9802 60.1953 55.7994 60.1376 55.5875C60.0798 55.3755 60.1066 55.1492 60.2121 54.9569C60.3265 54.7699 60.509 54.6353 60.7204 54.5821C60.9319 54.5289 61.1556 54.5612 61.3437 54.6721C61.5319 54.7831 61.6695 54.9638 61.7272 55.1758C61.785 55.3877 61.7582 55.614 61.6526 55.8063ZM61.3464 47.6372C61.1552 47.7481 60.9282 47.7778 60.7153 47.7199C60.5024 47.662 60.321 47.5211 60.2111 47.3284C60.1011 47.1356 60.0716 46.9066 60.129 46.6919C60.1865 46.4772 60.3261 46.2943 60.5173 46.1834C60.7085 46.0725 60.9355 46.0428 61.1484 46.1007C61.3613 46.1586 61.5427 46.2995 61.6526 46.4923C61.7626 46.685 61.7921 46.914 61.7347 47.1287C61.6772 47.3434 61.5376 47.5263 61.3464 47.6372Z" fill="url(#paint0_linear_791_1131)"/>
<path d="M39.4928 51.148C39.3429 39.8849 52.3742 32.9027 61.5323 39.2705V24.4634H4.375V54.3192C4.375 54.8715 4.48288 55.4184 4.69249 55.9286C4.90209 56.4388 5.20931 56.9024 5.59659 57.2929C5.98388 57.6833 6.44365 57.993 6.94964 58.2043C7.45563 58.4155 7.99793 58.5242 8.54556 58.524H41.5338C40.1907 56.3028 39.4842 53.7496 39.4928 51.148ZM21.7321 32.7648H44.1763C44.4658 32.7648 44.7435 32.8808 44.9482 33.0872C45.1529 33.2937 45.2679 33.5737 45.2679 33.8657C45.2679 34.1576 45.1529 34.4376 44.9482 34.6441C44.7435 34.8505 44.4658 34.9665 44.1763 34.9665H21.7321C21.4426 34.9665 21.1649 34.8505 20.9602 34.6441C20.7555 34.4376 20.6405 34.1576 20.6405 33.8657C20.6405 33.5737 20.7555 33.2937 20.9602 33.0872C21.1649 32.8808 21.4426 32.7648 21.7321 32.7648ZM36.8404 50.2259H15.2252C14.9356 50.2259 14.6578 50.1098 14.453 49.9033C14.2482 49.6967 14.1331 49.4166 14.1331 49.1245C14.1331 48.8324 14.2482 48.5522 14.453 48.3457C14.6578 48.1392 14.9356 48.0231 15.2252 48.0231H36.8404C37.1299 48.0231 37.4075 48.1391 37.6123 48.3455C37.817 48.552 37.932 48.832 37.932 49.1239C37.932 49.4159 37.817 49.6959 37.6123 49.9023C37.4075 50.1088 37.1299 50.2259 36.8404 50.2259ZM36.8404 42.5962H15.2252C14.9357 42.5962 14.6581 42.4802 14.4534 42.2738C14.2487 42.0673 14.1337 41.7873 14.1337 41.4953C14.1337 41.2034 14.2487 40.9234 14.4534 40.7169C14.6581 40.5105 14.9357 40.3945 15.2252 40.3945H36.8404C37.1299 40.3945 37.4075 40.5105 37.6123 40.7169C37.817 40.9234 37.932 41.2034 37.932 41.4953C37.932 41.7873 37.817 42.0673 37.6123 42.2738C37.4075 42.4802 37.1299 42.5962 36.8404 42.5962Z" fill="url(#paint1_linear_791_1131)"/>
<defs>
<linearGradient id="paint0_linear_791_1131" x1="35" y1="7.23633" x2="35" y2="63.2363" gradientUnits="userSpaceOnUse">
<stop stop-color="#F37021"/>
<stop offset="1" stop-color="#F89C3C"/>
</linearGradient>
<linearGradient id="paint1_linear_791_1131" x1="32.9537" y1="24.4634" x2="32.9537" y2="58.524" gradientUnits="userSpaceOnUse">
<stop stop-color="#00588C"/>
<stop offset="1" stop-color="#0074B7"/>
</linearGradient>
</defs>
</svg>
