<svg width="36" height="32" viewBox="0 0 36 32" fill="none" xmlns="http://www.w3.org/2000/svg">
<path d="M33.1606 8.64876V5.11251C33.1605 4.48068 32.9094 3.87478 32.4626 3.42801C32.0159 2.98124 31.41 2.73018 30.7781 2.73001C30.7781 2.73001 26.8669 2.73188 26.3862 2.73001C26.2417 1.99903 25.8481 1.34082 25.2726 0.867603C24.697 0.394387 23.9751 0.135472 23.23 0.13501C18.5031 0.39751 19.2737 7.27501 23.9387 6.48939C24.097 6.45585 24.262 6.48514 24.399 6.57106C24.536 6.65698 24.6343 6.7928 24.673 6.94982C24.7117 7.10685 24.6878 7.27276 24.6064 7.41252C24.5251 7.55228 24.3925 7.65492 24.2369 7.69876C23.5324 7.85583 22.8005 7.84045 22.1033 7.6539C21.4061 7.46735 20.7643 7.11517 20.2324 6.6273C19.7005 6.13944 19.2944 5.53033 19.0485 4.85179C18.8026 4.17325 18.7242 3.44535 18.82 2.73001H10.8856C10.7412 1.99898 10.3477 1.3407 9.77207 0.867461C9.19648 0.394225 8.47453 0.135353 7.72938 0.13501C3.09188 0.36751 3.70938 7.13751 8.32312 6.51126C8.48297 6.48526 8.64666 6.52238 8.77965 6.61479C8.91264 6.70719 9.00453 6.84766 9.03591 7.00653C9.0673 7.1654 9.03573 7.33025 8.94786 7.46629C8.86 7.60232 8.72272 7.6989 8.565 7.73563C7.9725 7.84582 7.36384 7.83515 6.77556 7.70428C6.18728 7.5734 5.63151 7.32502 5.1416 6.97404C4.65169 6.62305 4.23775 6.1767 3.92462 5.66178C3.61149 5.14685 3.40562 4.57397 3.31937 3.97751C3.25086 3.5645 3.25086 3.14302 3.31937 2.73001C2.97379 2.67746 2.62097 2.69944 2.28458 2.79446C1.94818 2.88948 1.636 3.05534 1.36898 3.28093C1.10196 3.50651 0.886279 3.7866 0.736402 4.10239C0.586524 4.41818 0.505921 4.76238 0.5 5.11189V8.64938L33.1606 8.64876ZM21.365 2.72938C21.4955 2.33709 21.7461 1.99583 22.0815 1.75398C22.4168 1.51214 22.8197 1.38199 23.2331 1.38199C23.6466 1.38199 24.0495 1.51214 24.3848 1.75398C24.7201 1.99583 24.9708 2.33709 25.1012 2.72938H21.365ZM5.865 2.72938C5.99562 2.33732 6.24631 1.99629 6.58155 1.75463C6.91678 1.51297 7.31956 1.38293 7.73281 1.38293C8.14607 1.38293 8.54885 1.51297 8.88408 1.75463C9.21931 1.99629 9.47 2.33732 9.60063 2.72938H5.865ZM33.0794 19.7894C28.7356 16.0281 21.7688 19.2475 21.8144 25.0169C21.8188 26.8318 22.5417 28.5711 23.825 29.8545C25.1083 31.1379 26.8476 31.861 28.6625 31.8656C35.0331 31.8625 37.9094 23.8244 33.0794 19.7894ZM28.6631 19.7394C28.7867 19.7439 28.9037 19.7961 28.9895 19.8851C29.0754 19.9741 29.1234 20.0929 29.1234 20.2166C29.1234 20.3402 29.0754 20.459 28.9895 20.548C28.9037 20.6371 28.7867 20.6893 28.6631 20.6938C28.5396 20.6893 28.4225 20.6371 28.3367 20.548C28.2509 20.459 28.2029 20.3402 28.2029 20.2166C28.2029 20.0929 28.2509 19.9741 28.3367 19.8851C28.4225 19.7961 28.5396 19.7439 28.6631 19.7394ZM24.0975 22.3781C24.1619 22.2722 24.2652 22.1956 24.3853 22.1648C24.5054 22.134 24.6328 22.1514 24.7403 22.2133C24.8477 22.2751 24.9268 22.3765 24.9605 22.4959C24.9942 22.6152 24.9799 22.743 24.9206 22.8519C24.8562 22.9578 24.7529 23.0344 24.6328 23.0652C24.5127 23.096 24.3853 23.0786 24.2778 23.0168C24.1704 22.9549 24.0914 22.8535 24.0577 22.7342C24.024 22.6148 24.0383 22.4871 24.0975 22.3781ZM24.9831 27.4431C24.9748 27.5437 24.935 27.6392 24.8693 27.7158C24.8036 27.7924 24.7154 27.8463 24.6172 27.8699C24.5191 27.8935 24.416 27.8854 24.3227 27.8469C24.2293 27.8085 24.1505 27.7415 24.0975 27.6556C24.0614 27.5918 24.0406 27.5204 24.0367 27.4471C24.0329 27.3739 24.0461 27.3007 24.0754 27.2334C24.1046 27.1661 24.1491 27.1066 24.2053 27.0594C24.2616 27.0122 24.3279 26.9788 24.3993 26.9617C24.4706 26.9446 24.545 26.9442 24.6165 26.9608C24.688 26.9773 24.7546 27.0102 24.8112 27.0569C24.8678 27.1035 24.9128 27.1627 24.9427 27.2298C24.9725 27.2968 24.9863 27.3698 24.9831 27.4431ZM28.6631 30.2869C28.5409 30.2806 28.4257 30.2276 28.3414 30.1389C28.2571 30.0502 28.21 29.9324 28.21 29.81C28.21 29.6876 28.2571 29.5699 28.3414 29.4811C28.4257 29.3924 28.5409 29.3394 28.6631 29.3331C28.7867 29.3376 28.9037 29.3898 28.9895 29.4788C29.0754 29.5678 29.1234 29.6867 29.1234 29.8103C29.1234 29.934 29.0754 30.0528 28.9895 30.1418C28.9037 30.2308 28.7867 30.2824 28.6631 30.2869ZM31.2519 27.6619C31.1969 27.7162 31.1318 27.7589 31.0601 27.7878C30.9885 27.8166 30.9118 27.8308 30.8346 27.8296C30.7574 27.8285 30.6811 27.8119 30.6104 27.781C30.5396 27.75 30.4758 27.7053 30.4225 27.6494L28.2394 25.4281C28.1321 25.3177 28.0717 25.1702 28.0706 25.0163V22.2413C28.0706 22.0841 28.133 21.9334 28.2442 21.8223C28.3553 21.7112 28.506 21.6488 28.6631 21.6488C28.8203 21.6488 28.971 21.7112 29.0821 21.8223C29.1932 21.9334 29.2556 22.0841 29.2556 22.2413V24.7731L31.2644 26.8256C31.3735 26.9381 31.4334 27.0893 31.4311 27.246C31.4287 27.4027 31.3643 27.5527 31.2519 27.6619ZM33.2294 27.6556C33.164 27.7616 33.0598 27.8379 32.9389 27.868C32.8181 27.8982 32.6903 27.8799 32.5828 27.817C32.4753 27.7542 32.3966 27.6517 32.3636 27.5317C32.3306 27.4116 32.3459 27.2833 32.4062 27.1744C32.4716 27.0684 32.5759 26.9922 32.6967 26.962C32.8175 26.9318 32.9453 26.9502 33.0528 27.013C33.1604 27.0759 33.239 27.1783 33.272 27.2984C33.305 27.4185 33.2897 27.5467 33.2294 27.6556ZM33.0544 23.0269C32.9451 23.0897 32.8154 23.1066 32.6938 23.0737C32.5721 23.0409 32.4684 22.9611 32.4056 22.8519C32.3428 22.7426 32.3259 22.6129 32.3588 22.4913C32.3916 22.3696 32.4714 22.266 32.5806 22.2031C32.6899 22.1403 32.8196 22.1235 32.9412 22.1563C33.0629 22.1891 33.1666 22.2689 33.2294 22.3781C33.2922 22.4874 33.3091 22.6171 33.2762 22.7388C33.2434 22.8604 33.1636 22.9641 33.0544 23.0269Z" fill="url(#paint0_linear_607_527)"/>
<path d="M20.5669 25.0162C20.4812 18.6344 27.9275 14.6781 33.1606 18.2862V9.89624H0.5V26.8131C0.5 27.126 0.561646 27.4359 0.681417 27.725C0.801188 28.0141 0.976737 28.2768 1.19804 28.498C1.41934 28.7193 1.68206 28.8947 1.97119 29.0144C2.26032 29.1341 2.5702 29.1957 2.88313 29.1956H21.7331C20.9657 27.937 20.562 26.4904 20.5669 25.0162ZM10.4181 14.6H23.2431C23.4086 14.6 23.5672 14.6657 23.6842 14.7827C23.8012 14.8997 23.8669 15.0583 23.8669 15.2237C23.8669 15.3892 23.8012 15.5478 23.6842 15.6648C23.5672 15.7818 23.4086 15.8475 23.2431 15.8475H10.4181C10.2527 15.8475 10.094 15.7818 9.97707 15.6648C9.86009 15.5478 9.79438 15.3892 9.79438 15.2237C9.79438 15.0583 9.86009 14.8997 9.97707 14.7827C10.094 14.6657 10.2527 14.6 10.4181 14.6ZM19.0513 24.4937H6.7C6.53449 24.4937 6.37576 24.428 6.25872 24.311C6.14169 24.1939 6.07594 24.0352 6.07594 23.8697C6.07594 23.7042 6.14169 23.5454 6.25872 23.4284C6.37576 23.3114 6.53449 23.2456 6.7 23.2456H19.0513C19.2167 23.2456 19.3753 23.3113 19.4923 23.4283C19.6093 23.5453 19.675 23.7039 19.675 23.8694C19.675 24.0348 19.6093 24.1934 19.4923 24.3104C19.3753 24.4274 19.2167 24.4937 19.0513 24.4937ZM19.0513 20.1706H6.7C6.53457 20.1706 6.37592 20.1049 6.25894 19.9879C6.14197 19.8709 6.07625 19.7123 6.07625 19.5469C6.07625 19.3814 6.14197 19.2228 6.25894 19.1058C6.37592 18.9888 6.53457 18.9231 6.7 18.9231H19.0513C19.2167 18.9231 19.3753 18.9888 19.4923 19.1058C19.6093 19.2228 19.675 19.3814 19.675 19.5469C19.675 19.7123 19.6093 19.8709 19.4923 19.9879C19.3753 20.1049 19.2167 20.1706 19.0513 20.1706Z" fill="url(#paint1_linear_607_527)"/>
<defs>
<linearGradient id="paint0_linear_607_527" x1="17.9996" y1="0.13501" x2="17.9996" y2="31.8656" gradientUnits="userSpaceOnUse">
<stop stop-color="#F37021"/>
<stop offset="1" stop-color="#F89C3C"/>
</linearGradient>
<linearGradient id="paint1_linear_607_527" x1="16.8303" y1="9.89624" x2="16.8303" y2="29.1956" gradientUnits="userSpaceOnUse">
<stop stop-color="#00588C"/>
<stop offset="1" stop-color="#0074B7"/>
</linearGradient>
</defs>
</svg>
