<svg width="24" height="24" viewBox="0 0 24 24" fill="none" xmlns="http://www.w3.org/2000/svg">
<path d="M1.1792 11.5672L11.5621 1.17928C11.6768 1.06449 11.8324 1 11.9947 1C12.1569 1 12.3126 1.06449 12.4273 1.17928C12.542 1.29408 12.6065 1.44977 12.6065 1.61211C12.6065 1.77445 12.542 1.93015 12.4273 2.04494L3.08899 11.3878L22.3776 11.388C22.4588 11.3866 22.5395 11.4014 22.6149 11.4315C22.6904 11.4616 22.7591 11.5065 22.817 11.5634C22.875 11.6204 22.921 11.6883 22.9524 11.7633C22.9838 11.8383 23 11.9187 23 12C23 12.0813 22.9838 12.1617 22.9524 12.2367C22.921 12.3117 22.875 12.3796 22.817 12.4366C22.7591 12.4935 22.6904 12.5384 22.6149 12.5685C22.5395 12.5986 22.4588 12.6134 22.3776 12.612L3.08878 12.612L12.4273 21.9551C12.542 22.0699 12.6065 22.2255 12.6065 22.3879C12.6065 22.5502 12.542 22.7059 12.4273 22.8207C12.3126 22.9355 12.1569 23 11.9947 23C11.8324 23 11.6768 22.9355 11.5621 22.8207L1.1792 12.4328C1.06446 12.318 0.999998 12.1623 0.999998 12C0.999998 11.8377 1.06446 11.682 1.1792 11.5672Z" fill="white" stroke="white" stroke-width="2"/>
</svg>
