<svg width="32" height="36" viewBox="0 0 32 36" fill="none" xmlns="http://www.w3.org/2000/svg">
<path d="M30.9874 7.90626C30.9694 7.60806 30.8477 7.32555 30.6434 7.10757C30.4391 6.88959 30.1651 6.74985 29.8687 6.71251C26.5124 6.31876 25.2062 2.90001 24.7937 1.44376C24.7186 1.17182 24.5561 0.932126 24.3314 0.761591C24.1066 0.591057 23.8321 0.499143 23.5499 0.500006H8.44369C8.1628 0.501131 7.88995 0.593909 7.6666 0.764246C7.44324 0.934582 7.28159 1.17317 7.20619 1.44376C6.79369 2.90001 5.48744 6.31876 2.1312 6.71251C1.8348 6.74985 1.56076 6.88959 1.35648 7.10757C1.1522 7.32555 1.0305 7.60806 1.01245 7.90626C0.812445 10.9688 0.549945 26.6625 15.3437 35.3188C15.5419 35.437 15.7683 35.5 15.9991 35.5011C16.2299 35.5022 16.4568 35.4414 16.6562 35.325C31.4499 26.6625 31.1874 10.9688 30.9874 7.90626ZM16.3437 32.2313C16.2411 32.297 16.1218 32.332 15.9999 32.332C15.8781 32.332 15.7588 32.297 15.6562 32.2313C5.09995 25.2688 3.82494 14.1438 3.76244 9.68751C3.76124 9.5597 3.79883 9.43452 3.87024 9.32852C3.94166 9.22251 4.04354 9.14066 4.16245 9.09376C5.36262 8.5766 6.44776 7.82555 7.35452 6.88446C8.26128 5.94336 8.97149 4.83107 9.4437 3.61251C9.49215 3.50046 9.57251 3.40516 9.67476 3.33848C9.77701 3.27179 9.89663 3.23668 10.0187 3.23751H21.9812C22.1033 3.23668 22.2229 3.27179 22.3251 3.33848C22.4274 3.40516 22.5077 3.50046 22.5562 3.61251C23.0296 4.83136 23.741 5.94376 24.6488 6.88483C25.5566 7.8259 26.6427 8.57681 27.8437 9.09376C27.9619 9.14099 28.0629 9.22311 28.1332 9.32918C28.2036 9.43526 28.2399 9.56025 28.2374 9.68751C28.1812 14.1438 26.8999 25.2688 16.3437 32.2313Z" fill="url(#paint0_linear_589_377)"/>
<path d="M21.575 4.48755H10.425C9.3578 6.94546 7.43762 8.93445 5.0188 10.0875C5.1563 14.5375 6.5688 24.5188 16 30.9563C25.4313 24.5188 26.85 14.5375 26.9813 10.0875C24.5638 8.93264 22.6442 6.94422 21.575 4.48755ZM23.3563 13.7813L22.1125 14.7563C22.2379 15.2655 22.3009 15.7881 22.3 16.3125C22.2987 17.9813 21.6352 19.5814 20.4552 20.7614C19.2752 21.9415 17.6751 22.605 16.0063 22.6063C7.6538 22.2632 7.6613 10.3532 16.0063 10.0125C17.4709 10.0132 18.8896 10.5237 20.0188 11.4563C20.082 11.5088 20.1342 11.5733 20.1725 11.646C20.2108 11.7187 20.2344 11.7983 20.2419 11.8801C20.2495 11.9619 20.2408 12.0444 20.2165 12.1229C20.1921 12.2014 20.1526 12.2744 20.1 12.3375C20.0475 12.4007 19.9831 12.453 19.9103 12.4913C19.8376 12.5296 19.7581 12.5531 19.6763 12.5607C19.5944 12.5682 19.5119 12.5596 19.4334 12.5352C19.3549 12.5109 19.282 12.4713 19.2188 12.4188C18.4809 11.8088 17.5846 11.4215 16.6346 11.3021C15.6847 11.1827 14.7204 11.3361 13.8545 11.7445C12.9886 12.1529 12.2568 12.7993 11.7447 13.6082C11.2325 14.4172 10.9613 15.3551 10.9625 16.3125C11.2394 23.0038 20.7738 23.0019 21.05 16.3125C21.0523 16.0824 21.0356 15.8525 21 15.625L16.3438 19.275C16.2283 19.3644 16.0853 19.4108 15.9393 19.4063C15.7933 19.4017 15.6535 19.3465 15.5438 19.25L12.7438 16.7813C12.6262 16.6693 12.5567 16.516 12.5499 16.3538C12.543 16.1916 12.5994 16.033 12.7071 15.9115C12.8149 15.79 12.9655 15.7151 13.1274 15.7024C13.2893 15.6898 13.4498 15.7405 13.575 15.8438L15.9813 17.9688C17.125 17.0738 21.5313 13.625 22.5875 12.7938C22.7185 12.6919 22.8846 12.6461 23.0493 12.6666C23.2139 12.6871 23.3637 12.7722 23.4657 12.9032C23.5676 13.0341 23.6134 13.2002 23.5928 13.3649C23.5723 13.5296 23.4872 13.6794 23.3563 13.7813Z" fill="url(#paint1_linear_589_377)"/>
<defs>
<linearGradient id="paint0_linear_589_377" x1="15.9999" y1="0.5" x2="15.9999" y2="35.5011" gradientUnits="userSpaceOnUse">
<stop stop-color="#00588C"/>
<stop offset="1" stop-color="#0074B7"/>
</linearGradient>
<linearGradient id="paint1_linear_589_377" x1="16" y1="4.48755" x2="16" y2="30.9563" gradientUnits="userSpaceOnUse">
<stop stop-color="#F37021"/>
<stop offset="1" stop-color="#F89C3C"/>
</linearGradient>
</defs>
</svg>
