<svg width="70" height="70" viewBox="0 0 70 70" fill="none" xmlns="http://www.w3.org/2000/svg">
<path d="M45.4283 58.8667V59.2889C45.4283 59.2889 50.2055 59.2921 50.9143 59.2889V56.4494C50.914 55.8853 50.7337 55.3355 50.3988 54.8778C50.0638 54.4201 49.5913 54.0776 49.0478 53.8988L36.4239 48.8204V40.4476C35.0263 40.4454 32.3355 40.4476 30.9379 40.4476V48.8215L18.3262 53.8889C17.7768 54.0646 17.2981 54.4072 16.9588 54.8674C16.6194 55.3276 16.437 55.8818 16.4375 56.4505V59.2899C17.1407 59.2845 21.9235 59.2899 21.9235 59.2899C21.9268 58.9235 21.8602 58.5134 22.3301 58.3548L30.9379 54.5342V55.0921C30.9529 55.8084 31.2564 56.4896 31.7815 56.9857C32.3067 57.4817 33.0105 57.7521 33.7381 57.7373C34.4657 57.7225 35.1576 57.4238 35.6615 56.9068C36.1654 56.3898 36.44 55.6969 36.425 54.9805V54.5233L45.0783 58.3767C45.18 58.4141 45.2678 58.4809 45.3303 58.5684C45.3927 58.6558 45.4269 58.7598 45.4283 58.8667ZM36.4239 30.1661H30.9379V33.0854H36.4239V30.1661ZM47.4525 5.37695H42.9619C43.283 6.5821 43.3901 7.83282 43.2786 9.07389C43.2824 9.65644 43.175 10.2345 42.9619 10.778H47.4525C47.7868 10.778 48.1179 10.8429 48.4267 10.9691C48.7355 11.0952 49.0161 11.28 49.2522 11.513C49.5684 11.8306 49.7943 12.2244 49.9073 12.655C50.0203 13.0856 50.0164 13.5378 49.896 13.9665C49.7756 14.3951 49.543 14.7851 49.2214 15.0974C48.8998 15.4097 48.5005 15.6333 48.0635 15.7459L34.7385 17.7278C33.6561 17.9757 32.691 18.5776 32.0009 19.4352C31.3108 20.2929 30.9365 21.3555 30.939 22.4496V27.9403H36.4228V23.3071C36.4182 23.1974 36.45 23.0893 36.5133 22.9989C36.5766 22.9086 36.6681 22.8409 36.7738 22.8062L49.25 21.0124C58.4755 18.7177 56.9868 5.56946 47.4514 5.37695H47.4525Z" fill="url(#paint0_linear_2346_302)"/>
<path d="M21.0859 11.7689H38.2671C38.9943 11.77 39.6922 11.487 40.2076 10.9819C40.7229 10.4767 41.0136 9.79087 41.0156 9.07493V7.07005C41.0109 6.355 40.7197 5.67069 40.2051 5.16598C39.6906 4.66128 38.9945 4.377 38.2682 4.375H21.0859C20.3601 4.37558 19.6641 4.65971 19.1509 5.165C18.6377 5.6703 18.3491 6.35545 18.3485 7.07005V9.07493C18.3491 9.78952 18.6377 10.4747 19.1509 10.98C19.6641 11.4853 20.3601 11.7683 21.0859 11.7689ZM51.3554 61.5157H44.9884L44.2752 63.4429C44.1877 63.6893 44.1612 63.9526 44.1978 64.2111C44.2345 64.4696 44.3332 64.7157 44.4858 64.9291C44.6384 65.1424 44.8406 65.3169 45.0754 65.4379C45.3103 65.559 45.571 65.6231 45.8361 65.625H50.5078C50.7721 65.6219 51.0318 65.5568 51.2655 65.4351C51.4991 65.3135 51.7 65.1388 51.8515 64.9256C52.003 64.7123 52.1007 64.4666 52.1365 64.2088C52.1723 63.9509 52.1453 63.6884 52.0576 63.4429L51.3554 61.5157ZM22.3635 61.5157H15.9954L15.2833 63.4429C15.1958 63.6893 15.1693 63.9526 15.2059 64.2111C15.2426 64.4696 15.3413 64.7157 15.4939 64.9291C15.6465 65.1424 15.8487 65.3169 16.0835 65.4379C16.3184 65.559 16.5792 65.6231 16.8442 65.625H21.5159C21.7802 65.6219 22.0399 65.5568 22.2736 65.4351C22.5073 65.3135 22.7081 65.1388 22.8596 64.9256C23.0111 64.7123 23.1088 64.4666 23.1446 64.2088C23.1804 63.9509 23.1534 63.6884 23.0657 63.4429L22.3635 61.5157ZM30.938 35.3123V38.2184H36.424V35.3123H30.938Z" fill="url(#paint1_linear_2346_302)"/>
<defs>
<linearGradient id="paint0_linear_2346_302" x1="35.9387" y1="5.37695" x2="35.9387" y2="59.2903" gradientUnits="userSpaceOnUse">
<stop stop-color="#F37021"/>
<stop offset="1" stop-color="#F89C3C"/>
</linearGradient>
<linearGradient id="paint1_linear_2346_302" x1="33.6709" y1="4.375" x2="33.6709" y2="65.625" gradientUnits="userSpaceOnUse">
<stop stop-color="#00588C"/>
<stop offset="1" stop-color="#0074B7"/>
</linearGradient>
</defs>
</svg>
