<svg id="reabilitation" width="24" height="36" viewBox="0 0 24 36" fill="none" xmlns="http://www.w3.org/2000/svg">
<path d="M17.6912 31.6375V31.8788C17.6912 31.8788 20.3787 31.8806 20.7775 31.8788V30.2563C20.7773 29.9339 20.6759 29.6198 20.4875 29.3582C20.299 29.0967 20.0332 28.901 19.7275 28.7988L12.6256 25.8969V21.1125C11.8393 21.1113 10.3256 21.1125 9.53934 21.1125V25.8975L2.44434 28.7931C2.13528 28.8935 1.86597 29.0893 1.67508 29.3522C1.48419 29.6152 1.38153 29.9319 1.38184 30.2569V31.8794C1.77746 31.8763 4.46809 31.8794 4.46809 31.8794C4.46996 31.67 4.43246 31.4356 4.69684 31.345L9.53934 29.1619V29.4806C9.54779 29.89 9.71851 30.2792 10.0139 30.5627C10.3094 30.8461 10.7053 31.0007 11.1146 30.9922C11.524 30.9837 11.9132 30.813 12.1967 30.5176C12.4802 30.2222 12.6347 29.8262 12.6262 29.4169V29.1556L17.4943 31.3575C17.5515 31.3789 17.6009 31.4171 17.6361 31.4671C17.6712 31.517 17.6904 31.5764 17.6912 31.6375ZM12.6256 15.2375H9.53934V16.9056H12.6256V15.2375ZM18.83 1.07251H16.3037C16.4844 1.76116 16.5446 2.47584 16.4818 3.18501C16.484 3.51789 16.4236 3.8482 16.3037 4.15876H18.83C19.0181 4.15877 19.2043 4.19587 19.378 4.26794C19.5518 4.34001 19.7096 4.44563 19.8425 4.57876C20.0203 4.76025 20.1474 4.98528 20.211 5.23132C20.2745 5.47736 20.2723 5.73579 20.2046 5.98072C20.1369 6.22565 20.006 6.44849 19.8251 6.62694C19.6442 6.80539 19.4196 6.93317 19.1737 6.99751L11.6775 8.13001C11.0685 8.27168 10.5256 8.61562 10.1374 9.10567C9.74915 9.59573 9.53854 10.2029 9.53996 10.8281V13.9656H12.625V11.3181C12.6224 11.2555 12.6403 11.1937 12.6759 11.142C12.7115 11.0904 12.763 11.0517 12.8225 11.0319L19.8412 10.0069C25.0312 8.69563 24.1937 1.18251 18.8293 1.07251H18.83Z" fill="url(#paint0_linear_613_622)"/>
<path d="M3.99683 4.725H13.6625C14.0716 4.72566 14.4642 4.56391 14.7541 4.27528C15.0441 3.98664 15.2075 3.59473 15.2087 3.18563V2.04C15.2061 1.63141 15.0422 1.24038 14.7528 0.951982C14.4633 0.663584 14.0717 0.501145 13.6631 0.5H3.99683C3.5885 0.500331 3.19699 0.662687 2.90825 0.951421C2.61952 1.24016 2.45717 1.63167 2.45683 2.04V3.18563C2.45717 3.59396 2.61952 3.98547 2.90825 4.2742C3.19699 4.56294 3.5885 4.72467 3.99683 4.725ZM21.0256 33.1512H17.4437L17.0425 34.2525C16.9932 34.3933 16.9783 34.5438 16.9989 34.6914C17.0195 34.8391 17.0751 34.9798 17.1609 35.1017C17.2468 35.2236 17.3605 35.3233 17.4926 35.3925C17.6248 35.4616 17.7715 35.4983 17.9206 35.4994H20.5487C20.6974 35.4976 20.8435 35.4604 20.975 35.3909C21.1064 35.3214 21.2195 35.2216 21.3047 35.0997C21.3899 34.9778 21.4448 34.8374 21.465 34.6901C21.4852 34.5428 21.4699 34.3928 21.4206 34.2525L21.0256 33.1512ZM4.71558 33.1512H1.13308L0.732459 34.2525C0.683243 34.3933 0.668319 34.5438 0.688925 34.6914C0.709531 34.8391 0.765074 34.9798 0.850939 35.1017C0.936805 35.2236 1.05052 35.3233 1.18264 35.3925C1.31475 35.4616 1.46146 35.4983 1.61058 35.4994H4.23871C4.3874 35.4976 4.53352 35.4604 4.66498 35.3909C4.79644 35.3214 4.90945 35.2216 4.99467 35.0997C5.07988 34.9778 5.13484 34.8374 5.155 34.6901C5.17515 34.5428 5.15993 34.3928 5.11058 34.2525L4.71558 33.1512ZM9.53933 18.1781V19.8388H12.6256V18.1781H9.53933Z" fill="url(#paint1_linear_613_622)"/>
<defs>
<linearGradient id="paint0_linear_613_622" x1="12.3526" y1="1.07251" x2="12.3526" y2="31.8796" gradientUnits="userSpaceOnUse">
<stop stop-color="#F37021"/>
<stop offset="1" stop-color="#F89C3C"/>
</linearGradient>
<linearGradient id="paint1_linear_613_622" x1="11.0768" y1="0.5" x2="11.0768" y2="35.4994" gradientUnits="userSpaceOnUse">
<stop stop-color="#00588C"/>
<stop offset="1" stop-color="#0074B7"/>
</linearGradient>
</defs>
</svg>
