<svg width="50" height="50" viewBox="0 0 50 50" fill="none" xmlns="http://www.w3.org/2000/svg">
<path d="M32.4487 42.0478V42.3493C32.4487 42.3493 35.8609 42.3517 36.3672 42.3493V40.3212C36.367 39.9182 36.2382 39.5255 35.999 39.1986C35.7598 38.8717 35.4222 38.627 35.0341 38.4993L26.0169 34.8718V28.8913C25.0187 28.8897 23.0967 28.8913 22.0984 28.8913V34.8726L13.09 38.4922C12.6976 38.6177 12.3557 38.8624 12.1133 39.1911C11.8709 39.5199 11.7406 39.9157 11.741 40.3219V42.3501C12.2433 42.3462 15.6595 42.3501 15.6595 42.3501C15.6619 42.0884 15.6143 41.7954 15.95 41.6821L22.0984 38.9532V39.3516C22.1091 39.8633 22.3259 40.3498 22.701 40.7042C23.0761 41.0585 23.5788 41.2517 24.0985 41.2411C24.6183 41.2305 25.1125 41.0171 25.4724 40.6478C25.8323 40.2785 26.0285 39.7836 26.0177 39.2719V38.9454L32.1987 41.6978C32.2713 41.7245 32.3341 41.7722 32.3787 41.8347C32.4233 41.8971 32.4477 41.9714 32.4487 42.0478ZM26.0169 21.5474H22.0984V23.6326H26.0169V21.5474ZM33.8945 3.84082H30.687C30.9163 4.70164 30.9929 5.59501 30.9131 6.48149C30.9159 6.89759 30.8392 7.3105 30.687 7.6987H33.8945C34.1333 7.69872 34.3698 7.74509 34.5904 7.83518C34.811 7.92527 35.0114 8.0573 35.1801 8.22371C35.4059 8.45057 35.5673 8.73187 35.648 9.03943C35.7287 9.34699 35.7259 9.67002 35.6399 9.97619C35.5539 10.2824 35.3877 10.5609 35.158 10.784C34.9283 11.007 34.6431 11.1668 34.331 11.2472L24.8131 12.6629C24.04 12.8399 23.3506 13.2699 22.8577 13.8825C22.3648 14.495 22.0974 15.2541 22.0992 16.0356V19.9575H26.0161V16.6481C26.0129 16.5697 26.0356 16.4925 26.0808 16.4279C26.1261 16.3634 26.1914 16.3151 26.2669 16.2903L35.1785 15.009C41.7681 13.3699 40.7048 3.97832 33.8937 3.84082H33.8945Z" fill="url(#paint0_linear_2346_234)"/>
<path d="M15.0613 8.40634H27.3335C27.853 8.40717 28.3515 8.20498 28.7196 7.84418C29.0877 7.48338 29.2953 6.99348 29.2968 6.48209V5.05003C29.2934 4.53928 29.0854 4.05049 28.7179 3.68999C28.3503 3.32948 27.8531 3.12643 27.3343 3.125H15.0613C14.5428 3.12541 14.0457 3.32836 13.6791 3.68929C13.3125 4.05021 13.1064 4.53961 13.106 5.05003V6.48209C13.1064 6.99252 13.3125 7.48191 13.6791 7.84284C14.0457 8.20376 14.5428 8.40593 15.0613 8.40634ZM36.6823 43.9398H32.1345L31.625 45.3164C31.5626 45.4923 31.5436 45.6804 31.5698 45.8651C31.5959 46.0497 31.6665 46.2255 31.7755 46.3779C31.8845 46.5303 32.0289 46.6549 32.1966 46.7414C32.3644 46.8278 32.5506 46.8736 32.74 46.875H36.0769C36.2656 46.8728 36.4512 46.8263 36.6181 46.7394C36.785 46.6525 36.9285 46.5277 37.0367 46.3754C37.1449 46.2231 37.2147 46.0476 37.2402 45.8634C37.2658 45.6792 37.2465 45.4917 37.1839 45.3164L36.6823 43.9398ZM15.9738 43.9398H11.4252L10.9165 45.3164C10.8541 45.4923 10.8351 45.6804 10.8613 45.8651C10.8874 46.0497 10.958 46.2255 11.067 46.3779C11.176 46.5303 11.3204 46.6549 11.4881 46.7414C11.6559 46.8278 11.8421 46.8736 12.0315 46.875H15.3684C15.5572 46.8728 15.7427 46.8263 15.9096 46.7394C16.0765 46.6525 16.22 46.5277 16.3282 46.3754C16.4364 46.2231 16.5062 46.0476 16.5318 45.8634C16.5574 45.6792 16.538 45.4917 16.4754 45.3164L15.9738 43.9398ZM22.0985 25.2231V27.2989H26.017V25.2231H22.0985Z" fill="url(#paint1_linear_2346_234)"/>
<defs>
<linearGradient id="paint0_linear_2346_234" x1="25.6704" y1="3.84082" x2="25.6704" y2="42.3504" gradientUnits="userSpaceOnUse">
<stop stop-color="#00588C"/>
<stop offset="1" stop-color="#0074B7"/>
</linearGradient>
<linearGradient id="paint1_linear_2346_234" x1="24.0505" y1="3.125" x2="24.0505" y2="46.875" gradientUnits="userSpaceOnUse">
<stop stop-color="#F37021"/>
<stop offset="1" stop-color="#F89C3C"/>
</linearGradient>
</defs>
</svg>
