<svg width="18" height="19" viewBox="0 0 18 19" fill="none" xmlns="http://www.w3.org/2000/svg">
<path d="M8.0166 0.50293C8.30878 0.502473 8.63478 0.50293 9.00098 0.50293C11.9322 0.50293 12.2801 0.512834 13.4375 0.56543C14.508 0.614381 15.0895 0.794051 15.4766 0.944336C15.9888 1.14333 16.3543 1.38138 16.7383 1.76562C17.1224 2.14983 17.3601 2.51604 17.5596 3.02832C17.7098 3.4149 17.8898 3.99615 17.9385 5.06641C17.9911 6.22345 18.002 6.57147 18.002 9.50098C18.002 12.431 17.9911 12.7792 17.9385 13.9365C17.8895 15.007 17.7099 15.588 17.5596 15.9746C17.3606 16.487 17.1226 16.8523 16.7383 17.2363C16.354 17.6206 15.9891 17.8586 15.4766 18.0576C15.09 18.2086 14.508 18.3866 13.4375 18.4355C12.2804 18.4881 11.9323 18.5 9.00098 18.5C6.06934 18.5 5.72184 18.4882 4.56445 18.4355C3.49392 18.3861 2.91266 18.2069 2.52539 18.0566C2.01322 17.8577 1.64687 17.6205 1.2627 17.2363C0.878403 16.852 0.640872 16.4862 0.441406 15.9736C0.291135 15.5871 0.112192 15.0059 0.0634766 13.9355C0.0108763 12.7783 1.03359e-06 12.4305 0 9.49902C0 6.56717 0.0108741 6.22074 0.0634766 5.06348C0.112428 3.99295 0.29112 3.41145 0.441406 3.02441C0.640394 2.51216 0.878469 2.14594 1.2627 1.76172C1.64693 1.37749 2.01312 1.13987 2.52539 0.94043C2.91243 0.789458 3.49392 0.610704 4.56445 0.561523C5.57728 0.515777 5.97029 0.502287 8.0166 0.5V0.50293ZM8.71094 3.87305C5.73184 4.02408 3.3623 6.48731 3.3623 9.50391C3.36231 12.6178 5.88711 15.1416 9.00098 15.1416C12.1149 15.1416 14.6387 12.6178 14.6387 9.50391C14.6387 6.39005 12.1148 3.86531 9.00098 3.86523L8.71094 3.87305ZM14.8623 2.3252C14.1351 2.3252 13.5442 2.91516 13.5439 3.64258C13.5439 4.36999 14.1349 4.96094 14.8623 4.96094C15.5896 4.96077 16.1797 4.36989 16.1797 3.64258C16.1794 2.91549 15.5894 2.32536 14.8623 2.3252Z" fill="url(#paint0_linear_805_1407)"/>
<path d="M9.00244 5.82617C11.0324 5.82617 12.6782 7.47177 12.6782 9.50194C12.6782 11.5319 11.0324 13.1777 9.00244 13.1777C6.97226 13.1777 5.32666 11.5319 5.32666 9.50194C5.32666 7.47177 6.97226 5.82617 9.00244 5.82617Z" fill="url(#paint1_linear_805_1407)"/>
<defs>
<linearGradient id="paint0_linear_805_1407" x1="9.00094" y1="0.5" x2="9.00094" y2="18.5" gradientUnits="userSpaceOnUse">
<stop stop-color="#F37021"/>
<stop offset="1" stop-color="#F89C3C"/>
</linearGradient>
<linearGradient id="paint1_linear_805_1407" x1="9.00244" y1="5.82617" x2="9.00244" y2="13.1777" gradientUnits="userSpaceOnUse">
<stop stop-color="#00588C"/>
<stop offset="1" stop-color="#0074B7"/>
</linearGradient>
</defs>
</svg>
