<svg width="38" height="22" viewBox="0 0 38 22" fill="none" xmlns="http://www.w3.org/2000/svg">
<path d="M13.3737 6.94282C12.5424 6.45824 10.7045 5.35606 9.89685 4.88098C8.79466 5.43886 6.63781 5.88136 3.88235 3.27521C3.55755 2.96764 3.15018 2.76135 2.71003 2.68157C2.26988 2.60179 1.81602 2.65197 1.40393 2.82598C0.991841 2.99999 0.639373 3.29028 0.389612 3.66138C0.13985 4.03248 0.00361471 4.46831 -0.00244141 4.91559V5.82028C3.1738 7.77896 7.78207 9.97247 13.3744 6.94282H13.3737ZM27.7367 16.1892H32.0505C34.1763 16.0973 36.1828 15.1813 37.6449 13.6353C37.7958 13.4742 37.9037 13.2776 37.9586 13.0637C38.0135 12.8499 38.0137 12.6256 37.9591 12.4117C37.1732 10.1462 35.0204 9.48857 32.2955 9.04539C30.8634 8.87273 29.4839 8.39979 28.2471 7.65748C27.9146 8.14138 27.2535 9.15805 26.9271 9.6372C26.8278 9.78696 26.6731 9.89115 26.497 9.92685C26.3209 9.96255 26.1379 9.92684 25.9881 9.82757C25.8384 9.7283 25.7342 9.57361 25.6985 9.39752C25.6628 9.22143 25.6985 9.03837 25.7977 8.88861L27.0635 6.98354L25.1034 5.88815C24.7817 6.37001 24.1126 7.38261 23.7909 7.8543C23.6908 8.00414 23.5353 8.1081 23.3586 8.14329C23.1818 8.17848 22.9984 8.14203 22.8485 8.04195C22.6987 7.94187 22.5947 7.78637 22.5595 7.60964C22.5243 7.43291 22.5608 7.24945 22.6609 7.0996L23.913 5.22168L21.9605 4.13307C21.9387 4.12085 20.6974 6.05171 20.4904 6.21188C20.3649 6.30498 20.2108 6.35127 20.0548 6.34273C19.8987 6.3342 19.7506 6.27138 19.636 6.16515C19.5214 6.05891 19.4475 5.91596 19.4272 5.76101C19.4069 5.60607 19.4413 5.4489 19.5247 5.31669L20.77 3.45914L18.81 2.37053C18.5148 2.83339 17.8381 3.80934 17.5449 4.26202C17.4448 4.41187 17.2892 4.51579 17.1124 4.55092C16.9356 4.58604 16.7521 4.54951 16.6022 4.44934C16.4524 4.34917 16.3485 4.19357 16.3134 4.01678C16.2782 3.84 16.3148 3.65649 16.4149 3.50664C16.6769 3.08993 17.3474 2.12756 17.6196 1.70406L16.5717 1.11225C15.911 0.745388 15.1407 0.627403 14.4005 0.779679C13.6603 0.931955 12.9992 1.34441 12.5369 1.94228L10.9855 3.94915C11.732 4.38893 24.8584 12.1612 24.8584 12.1612C26.1323 12.7951 27.0221 15.0592 27.7367 16.1892Z" fill="url(#paint0_linear_576_372)"/>
<path d="M-0.00244141 17.55V17.8832C-0.00226147 18.7855 0.356246 19.6507 0.994251 20.2888C1.63226 20.9268 2.49753 21.2853 3.3998 21.2854H29.7504C33.5049 21.3425 36.9886 18.9548 37.8403 15.3388C36.2038 16.6892 34.1698 17.4659 32.0498 17.55H-0.00244141ZM-0.00244141 12.2841V16.1892H5.6924C4.35567 14.2148 2.32104 12.8195 -0.00244141 12.2841Z" fill="url(#paint1_linear_576_372)"/>
<path d="M7.25763 16.1892H26.1794C25.6778 15.4047 25.0324 13.7731 24.165 13.332L14.6872 7.71856C12.7183 9.04754 10.3953 9.75385 8.0198 9.74579C5.18579 9.6943 2.41664 8.88892 -0.00292969 7.41248V10.9097C1.51886 11.2076 2.95713 11.8345 4.21119 12.7466C5.46525 13.6587 6.50477 14.8339 7.25696 16.1899L7.25763 16.1892Z" fill="url(#paint2_linear_576_372)"/>
<defs>
<linearGradient id="paint0_linear_576_372" x1="18.9987" y1="0.714844" x2="18.9987" y2="16.1892" gradientUnits="userSpaceOnUse">
<stop stop-color="#00588C"/>
<stop offset="1" stop-color="#0074B7"/>
</linearGradient>
<linearGradient id="paint1_linear_576_372" x1="18.9189" y1="12.2841" x2="18.9189" y2="21.2864" gradientUnits="userSpaceOnUse">
<stop stop-color="#F37021"/>
<stop offset="1" stop-color="#F89C3C"/>
</linearGradient>
<linearGradient id="paint2_linear_576_372" x1="13.0882" y1="7.41248" x2="13.0882" y2="16.1899" gradientUnits="userSpaceOnUse">
<stop stop-color="#00588C"/>
<stop offset="1" stop-color="#0074B7"/>
</linearGradient>
</defs>
</svg>
