<svg xmlns="http://www.w3.org/2000/svg" >
<symbol id="stairs" viewBox="0 0 60 60">
<path d="m34.875 19.4463-.8-.0006v-6.8905a.608365.608365 0 0 0-.0875-.3138L27.1375.361815c-.0696-.117795-.1757-.209495-.302-.261107-.1264-.051613-.2661-.060305-.3978-.02475-.1317.035556-.2482.113406-.3318.221673-.0835.108267-.1295.241005-.1309.37796V7.86107h-15.95V.675591C10.0235.538689 9.9774.406044 9.89381.29788 9.81022.189716 9.69369.111969 9.56199.076494a.622601.622601 0 0 0-.39762.024892c-.12629.051626-.2323.143304-.30187.261056L2.0125 12.242c-.05714.0946-.0874.2031-.0875.3138v6.8874s-.33062.0031-.8.0031c-.165605.0005-.324289.0668-.441393.1844-.117103.1175-.18311.2769-.183604.4432v5.353c-.000248.0825.015749.1642.047071.2404.031321.0763.077349.1456.135435.2039a.624156.624156 0 0 0 .203024.136c.07594.0314.157327.0475.239467.0472h33.75c.0821.0003.1635-.0158.2395-.0472a.624627.624627 0 0 0 .203-.136c.0581-.0583.1041-.1276.1354-.2039.0313-.0762.0473-.1579.0471-.2404v-5.353c-.0005-.1663-.0665-.3257-.1836-.4432-.1171-.1176-.2758-.1839-.4414-.1844Zm-2.05-4.2485c.0019.5924 0 2.8742-.0006 4.2473-8.4038-.0095-24.87252.0113-29.65002-.0032.01562-1.9887-.01063-4.7374 0-6.7229l5.6-9.70829c-.00063 1.58332.00125 6.11237 0 7.62479H27.2244c.0012-1.45783 0-6.09419 0-7.62479l5.6 9.70829c.0137.2008-.0088 2.347.0006 2.4788Z" fill="url(#paint0_linear_576_367)"/><path d="M31.6936 16.2959c-.0004-.1662-.0665-.3256-.1836-.4432-.1171-.1175-.2757-.1838-.4414-.1843h-1.0187c-1.7688-.0032-23.62375-.0013-25.11875 0-.16561.0005-.32429.0668-.44139.1843-.11711.1176-.18311.277-.18361.4432v1.889H31.6936c.0013-.4192-.0012-1.4842 0-1.889Zm-2.8937-1.8889h1.25c.0006-.4179-.0013-1.4791 0-1.8827.0008-.0826-.0148-.1646-.0459-.2411a.622152.622152 0 0 0-.1353-.2045c-.0582-.0584-.1274-.1046-.2036-.1358-.0762-.0313-.1579-.0469-.2402-.0461-.8219.01-2.6719-.0188-3.45 0-.0006-.0063-15.9625.0119-15.95-.0063h-1.25c.01063.0176-2.19937 0-2.2.0063-.08231-.0008-.16395.0148-.24016.0461-.07621.0312-.14544.0774-.20364.1358a.622207.622207 0 0 0-.13532.2045c-.03112.0765-.04671.1585-.04588.2411-.00187.3992.00125 1.4704 0 1.8827h22.85Z" fill="url(#paint1_linear_576_367)"/><defs><linearGradient id="paint0_linear_576_367" x1="18" y1=".054443" x2="18" y2="26.0544" gradientUnits="userSpaceOnUse"><stop stop-color="#F37021"/><stop offset="1" stop-color="#F89C3C"/></linearGradient><linearGradient id="paint1_linear_576_367" x1="18.0001" y1="11.8903" x2="18.0001" y2="18.1849" gradientUnits="userSpaceOnUse"><stop stop-color="#00588C"/><stop offset="1" stop-color="#0074B7"/></linearGradient></defs>
</symbol>
<symbol id="email-icon" viewBox="0 0 32 26">
  <path fill-rule="evenodd" clip-rule="evenodd" d="M3.33317.334106H28.6665c1.749 0 3.1667 1.417764 3.1667 3.166664V22.5008c0 1.7489-1.4177 3.1666-3.1667 3.1666H3.33317c-1.7489 0-3.166666-1.4177-3.166666-3.1666V3.50077c0-1.7489 1.417766-3.166664 3.166666-3.166664ZM18.6123 18.4633l10.0542-7.0459V8.09244L17.029 16.2466c-.6189.4296-1.4394.4296-2.0583 0L3.33317 8.09244v3.32496l10.05413 7.0459c1.5691 1.0967 3.656 1.0967 5.225 0Z" fill="#fff"/>
</symbol>
<symbol></symbol>
<symbol></symbol>
<symbol></symbol>
<symbol></symbol>

</svg>