
<svg xmlns="http://www.w3.org/2000/svg" style="display: none;">

  
  <symbol id="check" viewBox="0 0 36 34">
    <path d="M0.461426 6.15234H27.6002V33.2911H0.461426V6.15234Z" fill="url(#paint0_linear_761_619)"/>
    <path d="M14.1383 29.2411L13.9661 28.9479C11.3277 24.4533 4.31828 14.9159 4.24782 14.82L4.14697 14.6831L6.53451 12.324L14.0941 17.6026C18.8541 11.4257 23.2945 7.18371 26.191 4.70609C29.3592 1.99617 31.4218 0.748939 31.4426 0.736862L31.4893 0.708862H35.5383L35.1527 1.05232C25.2015 9.91586 14.4142 28.7565 14.3065 28.9458L14.1383 29.2411Z" fill="url(#paint1_linear_761_619)"/>
    <defs>
      <linearGradient id="paint0_linear_761_619" x1="14.0308" y1="6.15234" x2="14.0308" y2="33.2911" gradientUnits="userSpaceOnUse">
        <stop stop-color="#00588C"/>
        <stop offset="1" stop-color="#0074B7"/>
      </linearGradient>
      <linearGradient id="paint1_linear_761_619" x1="19.8426" y1="0.708862" x2="19.8426" y2="29.2411" gradientUnits="userSpaceOnUse">
        <stop stop-color="#F37021"/>
        <stop offset="1" stop-color="#F89C3C"/>
      </linearGradient>
    </defs>
  </symbol>

  
  <symbol id="checkbox" viewBox="0 0 38 38">
    <path d="M19 5.09375C11.3319 5.09375 5.09375 11.3319 5.09375 19C5.09375 26.6681 11.3319 32.9062 19 32.9062C26.6681 32.9062 32.9062 26.6681 32.9062 19C32.9062 11.3319 26.6681 5.09375 19 5.09375ZM26.9944 14.5775L16.5131 25.0594C16.4696 25.1029 16.4179 25.1375 16.361 25.1611C16.3041 25.1846 16.2431 25.1968 16.1816 25.1968C16.12 25.1968 16.059 25.1846 16.0021 25.1611C15.9452 25.1375 15.8935 25.1029 15.85 25.0594L11.0056 20.2156C10.9621 20.1721 10.9275 20.1204 10.9039 20.0635C10.8804 20.0066 10.8682 19.9456 10.8682 19.8841C10.8682 19.8225 10.8804 19.7615 10.9039 19.7046C10.9275 19.6477 10.9621 19.596 11.0056 19.5525L12.7731 17.785C12.861 17.6972 12.9802 17.6479 13.1044 17.6479C13.2286 17.6479 13.3477 17.6972 13.4356 17.785L16.1812 20.5294L24.5638 12.1475C24.6516 12.0597 24.7708 12.0104 24.895 12.0104C25.0192 12.0104 25.1384 12.0597 25.2263 12.1475L26.9944 13.915C27.0822 14.0029 27.1315 14.122 27.1315 14.2462C27.1315 14.3705 27.0822 14.4896 26.9944 14.5775Z" fill="url(#paint0_linear_578_465)"/>
    <path d="M19 0.40625C8.7475 0.40625 0.40625 8.7475 0.40625 19C0.40625 29.2525 8.7475 37.5938 19 37.5938C29.2525 37.5938 37.5938 29.2525 37.5938 19C37.5938 8.7475 29.2525 0.40625 19 0.40625ZM19 33.8438C10.815 33.8438 4.15625 27.185 4.15625 19C4.15625 10.815 10.815 4.15625 19 4.15625C27.185 4.15625 33.8438 10.815 33.8438 19C33.8438 27.185 27.185 33.8438 19 33.8438Z" fill="url(#paint1_linear_578_465)"/>
    <defs>
      <linearGradient id="paint0_linear_578_465" x1="19" y1="5.09375" x2="19" y2="32.9062" gradientUnits="userSpaceOnUse">
        <stop stop-color="#00588C"/>
        <stop offset="1" stop-color="#0074B7"/>
      </linearGradient>
      <linearGradient id="paint1_linear_578_465" x1="19" y1="0.40625" x2="19" y2="37.5938" gradientUnits="userSpaceOnUse">
        <stop stop-color="#F37021"/>
        <stop offset="1" stop-color="#F89C3C"/>
      </linearGradient>
    </defs>
  </symbol>

  
  <symbol id="danse" viewBox="0 0 34 36">
    <path d="M23.8688 11.7893L26.3331 7.34059C26.5263 6.99648 26.5748 6.58974 26.468 6.20986C26.3612 5.82998 26.1079 5.50808 25.7638 5.31497C25.4197 5.12186 25.0129 5.07336 24.633 5.18014C24.2532 5.28691 23.9313 5.54023 23.7381 5.88434L21.8094 9.25122C21.6788 9.48079 21.5029 9.68136 21.2923 9.84071C21.0817 10.0001 20.8408 10.1149 20.5844 10.1781L15.83 11.3662L12.0475 7.89434C11.8435 7.70426 11.7101 7.45045 11.6694 7.17459C11.6286 6.89873 11.6828 6.6172 11.8231 6.37622L12.9369 4.45372C13.1351 4.10145 13.1947 3.68791 13.1041 3.29401C13.0134 2.90012 12.7791 2.5542 12.4469 2.32394C12.1147 2.09368 11.7086 1.99564 11.308 2.049C10.9073 2.10236 10.541 2.30329 10.2806 2.61247L8.32065 5.00122C7.86143 5.56344 7.61112 6.26735 7.61226 6.99327C7.6134 7.7192 7.86592 8.42232 8.3269 8.98309L12.0906 13.5562C12.3433 13.8607 12.4682 14.2511 12.4394 14.6456L12.2463 17.1712C12.2279 17.3866 12.1648 17.5959 12.061 17.7855C11.9571 17.9751 11.8148 18.141 11.6431 18.2725L7.89127 21.1162C7.53314 21.3922 7.23579 21.7391 7.01781 22.1352C6.79984 22.5313 6.66593 22.9681 6.62445 23.4183C6.58298 23.8685 6.63484 24.3225 6.77678 24.7517C6.91872 25.181 7.1477 25.5763 7.4494 25.9131L10.4669 29.2418C10.7116 29.5119 11.0465 29.6833 11.4086 29.7237C11.7708 29.7641 12.1353 29.6708 12.4334 29.4613C12.7316 29.2518 12.943 28.9406 13.0278 28.5862C13.1125 28.2318 13.0649 27.8586 12.8938 27.5368L11.4813 24.8868C11.4084 24.748 11.3652 24.5955 11.3544 24.439C11.3436 24.2826 11.3656 24.1256 11.4188 23.9781C11.4697 23.8295 11.5515 23.6934 11.6588 23.5787C11.7661 23.464 11.8964 23.3733 12.0413 23.3125L14.3056 22.3481C14.377 22.3183 14.4547 22.3071 14.5315 22.3157C14.6084 22.3243 14.6817 22.3524 14.7447 22.3973C14.8076 22.4421 14.8581 22.5023 14.8913 22.5721C14.9245 22.6419 14.9393 22.7191 14.9344 22.7962L14.7106 26.8525C14.5694 27.9125 15.6238 32.8112 15.7619 33.9275C15.84 34.3322 16.0696 34.6919 16.4038 34.9332C16.738 35.1745 17.1517 35.2791 17.5605 35.2259C17.9692 35.1726 18.3422 34.9654 18.6035 34.6466C18.8647 34.3277 18.9945 33.9212 18.9663 33.51L18.5181 28.315C18.3044 27.08 19.445 24.4325 19.7563 23.2437C19.9596 22.614 20.0317 21.9493 19.9681 21.2906L19.3456 14.67L22.9731 12.6856C23.3512 12.4785 23.662 12.1675 23.8688 11.7893Z" fill="url(#paint0_linear_589_401)"/>
    <path d="M17.3793 8.80313C21.2524 8.68001 21.2512 3.05188 17.3793 2.92938C13.498 3.05063 13.4987 8.68188 17.3793 8.80313ZM7.04492 16.2131L6.0118 13.7681C5.96278 13.6503 5.87847 13.5506 5.77047 13.4827C5.66247 13.4147 5.53608 13.3819 5.40867 13.3888C5.28074 13.3964 5.15814 13.4427 5.05705 13.5215C4.95596 13.6003 4.88112 13.7078 4.84242 13.83L4.01492 16.5119C2.77242 15.3981 0.233674 15.8856 0.0142993 17.6819C-0.140076 18.8769 0.959299 19.8944 2.13555 20.0088C2.68042 20.1038 3.24127 19.9994 3.7155 19.7148C4.18972 19.4301 4.54561 18.9843 4.71805 18.4588L5.53305 15.8275L5.89367 16.6988C5.96117 16.8467 6.0837 16.9626 6.23523 17.0217C6.38677 17.0808 6.55537 17.0785 6.70523 17.0153C6.85509 16.952 6.9744 16.8329 7.03783 16.6831C7.10126 16.5333 7.1038 16.3647 7.04492 16.2131ZM33.5812 5.08876C33.2137 4.60568 32.7034 4.25068 32.1226 4.07419C31.5419 3.89771 30.9203 3.90871 30.3462 4.10563L30.6262 0.944383C30.6361 0.817824 30.6072 0.69125 30.5434 0.581504C30.4796 0.471757 30.3839 0.384042 30.269 0.330028C30.1541 0.276014 30.0255 0.258264 29.9003 0.279138C29.7751 0.300013 29.6592 0.358523 29.568 0.446883L27.5149 2.50001C27.4026 2.61719 27.3406 2.77372 27.3424 2.93604C27.3441 3.09836 27.4093 3.25354 27.5241 3.36832C27.6389 3.48311 27.7941 3.54835 27.9564 3.55007C28.1187 3.55178 28.2752 3.48984 28.3924 3.37751L29.2387 2.53751L28.9649 5.68563L28.9462 5.86626C28.8168 7.60376 31.1149 8.92751 32.7474 8.15563C33.033 8.04059 33.288 7.86098 33.4925 7.63087C33.6971 7.40077 33.8455 7.12643 33.9263 6.82935C34.0071 6.53227 34.0179 6.22052 33.9581 5.91854C33.8982 5.61656 33.7692 5.33254 33.5812 5.08876ZM27.628 23.7863C27.5369 23.6983 27.4212 23.6401 27.2962 23.6193C27.1713 23.5985 27.043 23.6161 26.9283 23.6697C26.8135 23.7233 26.7177 23.8105 26.6535 23.9197C26.5893 24.0288 26.5597 24.1549 26.5687 24.2813L26.8462 27.4431C24.183 26.4488 21.5499 30.0013 24.4474 31.4944C26.0012 32.2106 28.258 31.1044 28.2555 29.3169C28.2556 29.2797 28.2535 29.2426 28.2493 29.2056L27.9574 25.8744L28.7993 26.7156C28.9174 26.8249 29.0733 26.8841 29.2342 26.881C29.3951 26.8778 29.5485 26.8124 29.6623 26.6986C29.776 26.5848 29.8413 26.4313 29.8443 26.2704C29.8474 26.1095 29.788 25.9537 29.6787 25.8356L27.628 23.7863Z" fill="url(#paint1_linear_589_401)"/>
    <defs>
      <linearGradient id="paint0_linear_589_401" x1="16.567" y1="2.03479" x2="16.567" y2="35.2395" gradientUnits="userSpaceOnUse">
        <stop stop-color="#00588C"/>
        <stop offset="1" stop-color="#0074B7"/>
      </linearGradient>
      <linearGradient id="paint1_linear_589_401" x1="16.9979" y1="0.27063" x2="16.9979" y2="31.7151" gradientUnits="userSpaceOnUse">
        <stop stop-color="#F37021"/>
        <stop offset="1" stop-color="#F89C3C"/>
      </linearGradient>
    </defs>
  </symbol>

  
  <symbol id="time" viewBox="0 0 36 32">
    <path d="M31.125 0.837524H4.875C3.71508 0.838848 2.60305 1.30021 1.78287 2.12039C0.962685 2.94058 0.501323 4.05261 0.5 5.21252V26.7875C0.501323 27.9474 0.962685 29.0595 1.78287 29.8797C2.60305 30.6998 3.71508 31.1612 4.875 31.1625H31.125C32.2849 31.1612 33.3969 30.6998 34.2171 29.8797C35.0373 29.0595 35.4987 27.9474 35.5 26.7875V5.21252C35.4987 4.05261 35.0373 2.94058 34.2171 2.12039C33.3969 1.30021 32.2849 0.838848 31.125 0.837524ZM26.4813 24.3C19.0819 31.8388 6.19375 26.6725 6.125 16C6.12913 12.8518 7.38157 9.8338 9.60767 7.6077C11.8338 5.3816 14.8518 4.12916 18 4.12502C28.5275 4.1644 33.7812 16.8606 26.4813 24.3Z" fill="url(#paint0_linear_588_556)"/>
    <path d="M26.7563 15.375H28.6063C28.4662 12.9938 27.5257 10.7298 25.9375 8.95005L24.6375 10.25C24.5793 10.3083 24.5101 10.3545 24.434 10.3861C24.3578 10.4176 24.2762 10.4339 24.1938 10.4339C24.1114 10.4339 24.0298 10.4176 23.9536 10.3861C23.8775 10.3545 23.8083 10.3083 23.75 10.25C23.6918 10.1918 23.6456 10.1226 23.614 10.0465C23.5825 9.97032 23.5662 9.88871 23.5662 9.8063C23.5662 9.72389 23.5825 9.64228 23.614 9.56614C23.6456 9.49001 23.6918 9.42082 23.75 9.36255L25.05 8.06255C23.2703 6.47436 21.0063 5.53394 18.625 5.3938V7.2438C18.625 7.40956 18.5592 7.56853 18.442 7.68574C18.3248 7.80295 18.1658 7.8688 18 7.8688C17.8343 7.8688 17.6753 7.80295 17.5581 7.68574C17.4409 7.56853 17.375 7.40956 17.375 7.2438V5.3938C14.9938 5.53394 12.7298 6.47436 10.95 8.06255L12.25 9.36255C12.3358 9.45088 12.3938 9.56239 12.4168 9.6833C12.4399 9.80422 12.427 9.92925 12.3798 10.0429C12.3326 10.1566 12.2532 10.254 12.1512 10.323C12.0493 10.392 11.9294 10.4297 11.8063 10.4313C11.6407 10.4295 11.482 10.3647 11.3625 10.25L10.0625 8.95005C8.47436 10.7298 7.53394 12.9938 7.3938 15.375H9.2438C9.40956 15.375 9.56853 15.4409 9.68574 15.5581C9.80295 15.6753 9.8688 15.8343 9.8688 16C9.8688 16.1658 9.80295 16.3248 9.68574 16.442C9.56853 16.5592 9.40956 16.625 9.2438 16.625H7.3938C7.53394 19.0063 8.47436 21.2703 10.0625 23.05L11.3625 21.75C11.4208 21.6918 11.49 21.6456 11.5661 21.614C11.6423 21.5825 11.7239 21.5662 11.8063 21.5662C11.8887 21.5662 11.9703 21.5825 12.0465 21.614C12.1226 21.6456 12.1918 21.6918 12.25 21.75C12.3083 21.8083 12.3545 21.8775 12.3861 21.9536C12.4176 22.0298 12.4339 22.1114 12.4339 22.1938C12.4339 22.2762 12.4176 22.3578 12.3861 22.434C12.3545 22.5101 12.3083 22.5793 12.25 22.6375L10.95 23.9375C12.7298 25.5257 14.9938 26.4662 17.375 26.6063V24.7563C17.375 24.5905 17.4409 24.4316 17.5581 24.3144C17.6753 24.1971 17.8343 24.1313 18 24.1313C18.1658 24.1313 18.3248 24.1971 18.442 24.3144C18.5592 24.4316 18.625 24.5905 18.625 24.7563V26.6063C21.0063 26.4662 23.2703 25.5257 25.05 23.9375L23.75 22.6375C23.6918 22.5793 23.6456 22.5101 23.614 22.434C23.5825 22.3578 23.5662 22.2762 23.5662 22.1938C23.5662 22.1114 23.5825 22.0298 23.614 21.9536C23.6456 21.8775 23.6918 21.8083 23.75 21.75C23.8083 21.6918 23.8775 21.6456 23.9536 21.614C24.0298 21.5825 24.1114 21.5662 24.1938 21.5662C24.2762 21.5662 24.3578 21.5825 24.434 21.614C24.5101 21.6456 24.5793 21.6918 24.6375 21.75L25.9375 23.05C27.5257 21.2703 28.4662 19.0063 28.6063 16.625H26.7563C26.5905 16.625 26.4316 16.5592 26.3144 16.442C26.1971 16.3248 26.1313 16.1658 26.1313 16C26.1313 15.8343 26.1971 15.6753 26.3144 15.5581C26.4316 15.4409 26.5905 15.375 26.7563 15.375ZM23.3313 16.6625H20.1938C20.0854 17.0168 19.8871 17.3369 19.6184 17.5918C19.3496 17.8467 19.0194 18.0278 18.66 18.1173C18.3005 18.2069 17.924 18.2019 17.567 18.1029C17.2101 18.0039 16.8848 17.8142 16.6229 17.5522C16.3609 17.2903 16.1712 16.965 16.0722 16.6081C15.9732 16.2511 15.9682 15.8746 16.0578 15.5151C16.1473 15.1557 16.3284 14.8255 16.5833 14.5567C16.8382 14.288 17.1583 14.0897 17.5125 13.9813V10.65C17.5125 10.4843 17.5784 10.3253 17.6956 10.2081C17.8128 10.0909 17.9718 10.025 18.1376 10.025C18.3033 10.025 18.4623 10.0909 18.5795 10.2081C18.6967 10.3253 18.7626 10.4843 18.7626 10.65V13.9813C19.1009 14.0828 19.4088 14.2667 19.6586 14.5165C19.9084 14.7663 20.0923 15.0742 20.1938 15.4125H23.3313C23.4971 15.4125 23.656 15.4784 23.7732 15.5956C23.8905 15.7128 23.9563 15.8718 23.9563 16.0375C23.9563 16.2033 23.8905 16.3623 23.7732 16.4795C23.656 16.5967 23.4971 16.6625 23.3313 16.6625Z" fill="url(#paint1_linear_588_556)"/>
    <path d="M18.1376 15.1376C17.8997 15.1376 17.6716 15.2321 17.5034 15.4003C17.3352 15.5685 17.2407 15.7966 17.2407 16.0344C17.2407 16.2723 17.3352 16.5004 17.5034 16.6686C17.6716 16.8368 17.8997 16.9313 18.1376 16.9313C18.3755 16.9313 18.6036 16.8368 18.7718 16.6686C18.94 16.5004 19.0345 16.2723 19.0345 16.0344C19.0345 15.7966 18.94 15.5685 18.7718 15.4003C18.6036 15.2321 18.3755 15.1376 18.1376 15.1376Z" fill="url(#paint2_linear_588_556)"/>
    <defs>
      <linearGradient id="paint0_linear_588_556" x1="18" y1="0.837524" x2="18" y2="31.1625" gradientUnits="userSpaceOnUse">
        <stop stop-color="#00588C"/>
        <stop offset="1" stop-color="#0074B7"/>
      </linearGradient>
      <linearGradient id="paint1_linear_588_556" x1="18" y1="5.3938" x2="18" y2="26.6063" gradientUnits="userSpaceOnUse">
        <stop stop-color="#F37021"/>
        <stop offset="1" stop-color="#F89C3C"/>
      </linearGradient>
      <linearGradient id="paint2_linear_588_556" x1="18.1376" y1="15.1376" x2="18.1376" y2="16.9313" gradientUnits="userSpaceOnUse">
        <stop stop-color="#00588C"/>
        <stop offset="1" stop-color="#0074B7"/>
      </linearGradient>
    </defs>
  </symbol>

  
  <symbol id="res-icon" width="18" height="19" viewBox="0 0 18 19">
    <path d="M8.0166 0.50293C8.30878 0.502473 8.63478 0.50293 9.00098 0.50293C11.9322 0.50293 12.2801 0.512834 13.4375 0.56543C14.508 0.614381 15.0895 0.794051 15.4766 0.944336C15.9888 1.14333 16.3543 1.38138 16.7383 1.76562C17.1224 2.14983 17.3601 2.51604 17.5596 3.02832C17.7098 3.4149 17.8898 3.99615 17.9385 5.06641C17.9911 6.22345 18.002 6.57147 18.002 9.50098C18.002 12.431 17.9911 12.7792 17.9385 13.9365C17.8895 15.007 17.7099 15.588 17.5596 15.9746C17.3606 16.487 17.1226 16.8523 16.7383 17.2363C16.354 17.6206 15.9891 17.8586 15.4766 18.0576C15.09 18.2086 14.508 18.3866 13.4375 18.4355C12.2804 18.4881 11.9323 18.5 9.00098 18.5C6.06934 18.5 5.72184 18.4882 4.56445 18.4355C3.49392 18.3861 2.91266 18.2069 2.52539 18.0566C2.01322 17.8577 1.64687 17.6205 1.2627 17.2363C0.878403 16.852 0.640872 16.4862 0.441406 15.9736C0.291135 15.5871 0.112192 15.0059 0.0634766 13.9355C0.0108763 12.7783 1.03359e-06 12.4305 0 9.49902C0 6.56717 0.0108741 6.22074 0.0634766 5.06348C0.112428 3.99295 0.29112 3.41145 0.441406 3.02441C0.640394 2.51216 0.878469 2.14594 1.2627 1.76172C1.64693 1.37749 2.01312 1.13987 2.52539 0.94043C2.91243 0.789458 3.49392 0.610704 4.56445 0.561523C5.57728 0.515777 5.97029 0.502287 8.0166 0.5V0.50293ZM8.71094 3.87305C5.73184 4.02408 3.3623 6.48731 3.3623 9.50391C3.36231 12.6178 5.88711 15.1416 9.00098 15.1416C12.1149 15.1416 14.6387 12.6178 14.6387 9.50391C14.6387 6.39005 12.1148 3.86531 9.00098 3.86523L8.71094 3.87305ZM14.8623 2.3252C14.1351 2.3252 13.5442 2.91516 13.5439 3.64258C13.5439 4.36999 14.1349 4.96094 14.8623 4.96094C15.5896 4.96077 16.1797 4.36989 16.1797 3.64258C16.1794 2.91549 15.5894 2.32536 14.8623 2.3252Z" fill="url(#paint0_linear_805_1407)" />
    <path d="M9.00244 5.82617C11.0324 5.82617 12.6782 7.47177 12.6782 9.50194C12.6782 11.5319 11.0324 13.1777 9.00244 13.1777C6.97226 13.1777 5.32666 11.5319 5.32666 9.50194C5.32666 7.47177 6.97226 5.82617 9.00244 5.82617Z" fill="url(#paint1_linear_805_1407)" />
    <defs>
      <linearGradient id="paint0_linear_805_1407" x1="9.00094" y1="0.5" x2="9.00094" y2="18.5" gradientUnits="userSpaceOnUse">
        <stop stop-color="#F37021" />
        <stop offset="1" stop-color="#F89C3C" />
      </linearGradient>
      <linearGradient id="paint1_linear_805_1407" x1="9.00244" y1="5.82617" x2="9.00244" y2="13.1777" gradientUnits="userSpaceOnUse">
        <stop stop-color="#00588C" />
        <stop offset="1" stop-color="#0074B7" />
      </linearGradient>
    </defs>
  </symbol>

</svg>
