
<svg xmlns="http://www.w3.org/2000/svg" style="display: none;">

  
  <symbol id="check" viewBox="0 0 36 34">
    <path d="M0.461426 6.15234H27.6002V33.2911H0.461426V6.15234Z" fill="url(#paint0_linear_761_619)"/>
    <path d="M14.1383 29.2411L13.9661 28.9479C11.3277 24.4533 4.31828 14.9159 4.24782 14.82L4.14697 14.6831L6.53451 12.324L14.0941 17.6026C18.8541 11.4257 23.2945 7.18371 26.191 4.70609C29.3592 1.99617 31.4218 0.748939 31.4426 0.736862L31.4893 0.708862H35.5383L35.1527 1.05232C25.2015 9.91586 14.4142 28.7565 14.3065 28.9458L14.1383 29.2411Z" fill="url(#paint1_linear_761_619)"/>
    <defs>
      <linearGradient id="paint0_linear_761_619" x1="14.0308" y1="6.15234" x2="14.0308" y2="33.2911" gradientUnits="userSpaceOnUse">
        <stop stop-color="#00588C"/>
        <stop offset="1" stop-color="#0074B7"/>
      </linearGradient>
      <linearGradient id="paint1_linear_761_619" x1="19.8426" y1="0.708862" x2="19.8426" y2="29.2411" gradientUnits="userSpaceOnUse">
        <stop stop-color="#F37021"/>
        <stop offset="1" stop-color="#F89C3C"/>
      </linearGradient>
    </defs>
  </symbol>

  
  <symbol id="checkbox" viewBox="0 0 38 38">
    <path d="M19 5.09375C11.3319 5.09375 5.09375 11.3319 5.09375 19C5.09375 26.6681 11.3319 32.9062 19 32.9062C26.6681 32.9062 32.9062 26.6681 32.9062 19C32.9062 11.3319 26.6681 5.09375 19 5.09375ZM26.9944 14.5775L16.5131 25.0594C16.4696 25.1029 16.4179 25.1375 16.361 25.1611C16.3041 25.1846 16.2431 25.1968 16.1816 25.1968C16.12 25.1968 16.059 25.1846 16.0021 25.1611C15.9452 25.1375 15.8935 25.1029 15.85 25.0594L11.0056 20.2156C10.9621 20.1721 10.9275 20.1204 10.9039 20.0635C10.8804 20.0066 10.8682 19.9456 10.8682 19.8841C10.8682 19.8225 10.8804 19.7615 10.9039 19.7046C10.9275 19.6477 10.9621 19.596 11.0056 19.5525L12.7731 17.785C12.861 17.6972 12.9802 17.6479 13.1044 17.6479C13.2286 17.6479 13.3477 17.6972 13.4356 17.785L16.1812 20.5294L24.5638 12.1475C24.6516 12.0597 24.7708 12.0104 24.895 12.0104C25.0192 12.0104 25.1384 12.0597 25.2263 12.1475L26.9944 13.915C27.0822 14.0029 27.1315 14.122 27.1315 14.2462C27.1315 14.3705 27.0822 14.4896 26.9944 14.5775Z" fill="url(#paint0_linear_578_465)"/>
    <path d="M19 0.40625C8.7475 0.40625 0.40625 8.7475 0.40625 19C0.40625 29.2525 8.7475 37.5938 19 37.5938C29.2525 37.5938 37.5938 29.2525 37.5938 19C37.5938 8.7475 29.2525 0.40625 19 0.40625ZM19 33.8438C10.815 33.8438 4.15625 27.185 4.15625 19C4.15625 10.815 10.815 4.15625 19 4.15625C27.185 4.15625 33.8438 10.815 33.8438 19C33.8438 27.185 27.185 33.8438 19 33.8438Z" fill="url(#paint1_linear_578_465)"/>
    <defs>
      <linearGradient id="paint0_linear_578_465" x1="19" y1="5.09375" x2="19" y2="32.9062" gradientUnits="userSpaceOnUse">
        <stop stop-color="#00588C"/>
        <stop offset="1" stop-color="#0074B7"/>
      </linearGradient>
      <linearGradient id="paint1_linear_578_465" x1="19" y1="0.40625" x2="19" y2="37.5938" gradientUnits="userSpaceOnUse">
        <stop stop-color="#F37021"/>
        <stop offset="1" stop-color="#F89C3C"/>
      </linearGradient>
    </defs>
  </symbol>

  
  <symbol id="danse" viewBox="0 0 34 36">
    <path d="M23.8688 11.7893L26.3331 7.34059C26.5263 6.99648 26.5748 6.58974 26.468 6.20986C26.3612 5.82998 26.1079 5.50808 25.7638 5.31497C25.4197 5.12186 25.0129 5.07336 24.633 5.18014C24.2532 5.28691 23.9313 5.54023 23.7381 5.88434L21.8094 9.25122C21.6788 9.48079 21.5029 9.68136 21.2923 9.84071C21.0817 10.0001 20.8408 10.1149 20.5844 10.1781L15.83 11.3662L12.0475 7.89434C11.8435 7.70426 11.7101 7.45045 11.6694 7.17459C11.6286 6.89873 11.6828 6.6172 11.8231 6.37622L12.9369 4.45372C13.1351 4.10145 13.1947 3.68791 13.1041 3.29401C13.0134 2.90012 12.7791 2.5542 12.4469 2.32394C12.1147 2.09368 11.7086 1.99564 11.308 2.049C10.9073 2.10236 10.541 2.30329 10.2806 2.61247L8.32065 5.00122C7.86143 5.56344 7.61112 6.26735 7.61226 6.99327C7.6134 7.7192 7.86592 8.42232 8.3269 8.98309L12.0906 13.5562C12.3433 13.8607 12.4682 14.2511 12.4394 14.6456L12.2463 17.1712C12.2279 17.3866 12.1648 17.5959 12.061 17.7855C11.9571 17.9751 11.8148 18.141 11.6431 18.2725L7.89127 21.1162C7.53314 21.3922 7.23579 21.7391 7.01781 22.1352C6.79984 22.5313 6.66593 22.9681 6.62445 23.4183C6.58298 23.8685 6.63484 24.3225 6.77678 24.7517C6.91872 25.181 7.1477 25.5763 7.4494 25.9131L10.4669 29.2418C10.7116 29.5119 11.0465 29.6833 11.4086 29.7237C11.7708 29.7641 12.1353 29.6708 12.4334 29.4613C12.7316 29.2518 12.943 28.9406 13.0278 28.5862C13.1125 28.2318 13.0649 27.8586 12.8938 27.5368L11.4813 24.8868C11.4084 24.748 11.3652 24.5955 11.3544 24.439C11.3436 24.2826 11.3656 24.1256 11.4188 23.9781C11.4697 23.8295 11.5515 23.6934 11.6588 23.5787C11.7661 23.464 11.8964 23.3733 12.0413 23.3125L14.3056 22.3481C14.377 22.3183 14.4547 22.3071 14.5315 22.3157C14.6084 22.3243 14.6817 22.3524 14.7447 22.3973C14.8076 22.4421 14.8581 22.5023 14.8913 22.5721C14.9245 22.6419 14.9393 22.7191 14.9344 22.7962L14.7106 26.8525C14.5694 27.9125 15.6238 32.8112 15.7619 33.9275C15.84 34.3322 16.0696 34.6919 16.4038 34.9332C16.738 35.1745 17.1517 35.2791 17.5605 35.2259C17.9692 35.1726 18.3422 34.9654 18.6035 34.6466C18.8647 34.3277 18.9945 33.9212 18.9663 33.51L18.5181 28.315C18.3044 27.08 19.445 24.4325 19.7563 23.2437C19.9596 22.614 20.0317 21.9493 19.9681 21.2906L19.3456 14.67L22.9731 12.6856C23.3512 12.4785 23.662 12.1675 23.8688 11.7893Z" fill="url(#paint0_linear_589_401)"/>
    <path d="M17.3793 8.80313C21.2524 8.68001 21.2512 3.05188 17.3793 2.92938C13.498 3.05063 13.4987 8.68188 17.3793 8.80313ZM7.04492 16.2131L6.0118 13.7681C5.96278 13.6503 5.87847 13.5506 5.77047 13.4827C5.66247 13.4147 5.53608 13.3819 5.40867 13.3888C5.28074 13.3964 5.15814 13.4427 5.05705 13.5215C4.95596 13.6003 4.88112 13.7078 4.84242 13.83L4.01492 16.5119C2.77242 15.3981 0.233674 15.8856 0.0142993 17.6819C-0.140076 18.8769 0.959299 19.8944 2.13555 20.0088C2.68042 20.1038 3.24127 19.9994 3.7155 19.7148C4.18972 19.4301 4.54561 18.9843 4.71805 18.4588L5.53305 15.8275L5.89367 16.6988C5.96117 16.8467 6.0837 16.9626 6.23523 17.0217C6.38677 17.0808 6.55537 17.0785 6.70523 17.0153C6.85509 16.952 6.9744 16.8329 7.03783 16.6831C7.10126 16.5333 7.1038 16.3647 7.04492 16.2131ZM33.5812 5.08876C33.2137 4.60568 32.7034 4.25068 32.1226 4.07419C31.5419 3.89771 30.9203 3.90871 30.3462 4.10563L30.6262 0.944383C30.6361 0.817824 30.6072 0.69125 30.5434 0.581504C30.4796 0.471757 30.3839 0.384042 30.269 0.330028C30.1541 0.276014 30.0255 0.258264 29.9003 0.279138C29.7751 0.300013 29.6592 0.358523 29.568 0.446883L27.5149 2.50001C27.4026 2.61719 27.3406 2.77372 27.3424 2.93604C27.3441 3.09836 27.4093 3.25354 27.5241 3.36832C27.6389 3.48311 27.7941 3.54835 27.9564 3.55007C28.1187 3.55178 28.2752 3.48984 28.3924 3.37751L29.2387 2.53751L28.9649 5.68563L28.9462 5.86626C28.8168 7.60376 31.1149 8.92751 32.7474 8.15563C33.033 8.04059 33.288 7.86098 33.4925 7.63087C33.6971 7.40077 33.8455 7.12643 33.9263 6.82935C34.0071 6.53227 34.0179 6.22052 33.9581 5.91854C33.8982 5.61656 33.7692 5.33254 33.5812 5.08876ZM27.628 23.7863C27.5369 23.6983 27.4212 23.6401 27.2962 23.6193C27.1713 23.5985 27.043 23.6161 26.9283 23.6697C26.8135 23.7233 26.7177 23.8105 26.6535 23.9197C26.5893 24.0288 26.5597 24.1549 26.5687 24.2813L26.8462 27.4431C24.183 26.4488 21.5499 30.0013 24.4474 31.4944C26.0012 32.2106 28.258 31.1044 28.2555 29.3169C28.2556 29.2797 28.2535 29.2426 28.2493 29.2056L27.9574 25.8744L28.7993 26.7156C28.9174 26.8249 29.0733 26.8841 29.2342 26.881C29.3951 26.8778 29.5485 26.8124 29.6623 26.6986C29.776 26.5848 29.8413 26.4313 29.8443 26.2704C29.8474 26.1095 29.788 25.9537 29.6787 25.8356L27.628 23.7863Z" fill="url(#paint1_linear_589_401)"/>
    <defs>
      <linearGradient id="paint0_linear_589_401" x1="16.567" y1="2.03479" x2="16.567" y2="35.2395" gradientUnits="userSpaceOnUse">
        <stop stop-color="#00588C"/>
        <stop offset="1" stop-color="#0074B7"/>
      </linearGradient>
      <linearGradient id="paint1_linear_589_401" x1="16.9979" y1="0.27063" x2="16.9979" y2="31.7151" gradientUnits="userSpaceOnUse">
        <stop stop-color="#F37021"/>
        <stop offset="1" stop-color="#F89C3C"/>
      </linearGradient>
    </defs>
  </symbol>

  
  <symbol id="pain" viewBox="0 0 26 36">
    <path d="M22.7968 10.1363L7.8062 0.791883C7.40221 0.538893 6.91833 0.445828 6.44932 0.530914C5.98031 0.616 5.55995 0.873106 5.27058 1.25188L0.549952 7.41563C0.26731 7.78485 0.128362 8.24415 0.158941 8.70813C0.189521 9.17211 0.387547 9.6092 0.716202 9.93813C2.26808 11.4838 5.80683 14.5113 12.0787 17.36C12.2307 17.4308 12.3501 17.5566 12.413 17.7121C12.4758 17.8675 12.4774 18.041 12.4175 18.1975C11.7981 19.73 11.0893 21.9206 11.2175 23.6644C11.4352 26.4481 11.1362 29.2481 10.3356 31.9231C10.2474 32.1948 10.2205 32.4827 10.2569 32.766C10.2932 33.0493 10.3919 33.3211 10.5458 33.5617C10.6996 33.8024 10.9049 34.0059 11.1468 34.1578C11.3888 34.3097 11.6613 34.406 11.945 34.44C11.945 34.44 20.6381 35.5 20.715 35.5C21.159 35.4992 21.5892 35.3449 21.9325 35.0632C22.2758 34.7815 22.5112 34.3898 22.5987 33.9544L25.805 17.75C26.2431 12.73 22.9487 10.2031 22.7968 10.1363ZM12.36 14.62C10.4131 14.2294 10.1012 12.7169 10.265 11.8544L4.59995 7.90688C4.46925 7.80637 4.38238 7.65929 4.35745 7.4963C4.33253 7.33331 4.37147 7.16699 4.46616 7.03201C4.56085 6.89703 4.70398 6.8038 4.86572 6.77175C5.02746 6.73971 5.19532 6.77132 5.33433 6.86001L11.1018 10.8838C11.2865 11.0424 11.422 11.2505 11.4922 11.4837C11.5624 11.7168 11.5645 11.9651 11.4981 12.1994C11.3606 13.5613 13.9781 13.9706 13.8675 12.0013C13.9281 11.1469 14.5756 11.6181 15.0875 10.7556C15.1883 10.5453 15.2256 10.31 15.1946 10.0788C15.1636 9.8476 15.0658 9.63046 14.9131 9.45408C14.7604 9.27769 14.5595 9.14975 14.3351 9.08596C14.1107 9.02217 13.8726 9.02532 13.65 9.09501C13.402 9.23804 13.1214 9.3149 12.8352 9.31818C12.549 9.32146 12.2667 9.25107 12.0156 9.11376L6.22808 5.32001C6.15674 5.27425 6.09518 5.21481 6.04695 5.14512C5.99873 5.07543 5.96479 4.99687 5.94712 4.91398C5.92944 4.83109 5.92837 4.74552 5.94397 4.66222C5.95956 4.57892 5.99152 4.49953 6.03799 4.42865C6.08445 4.35778 6.14451 4.29681 6.21468 4.24929C6.28485 4.20176 6.36375 4.16862 6.44681 4.15178C6.52987 4.13493 6.61545 4.13472 6.69859 4.15115C6.78173 4.16758 6.86079 4.20033 6.9312 4.24751L12.6925 8.03501C12.7943 8.09251 13.005 7.99001 13.0562 7.95813C13.6229 7.7382 14.2493 7.72668 14.8237 7.92562C15.3981 8.12457 15.8832 8.52105 16.1925 9.04438C16.4968 9.63158 16.5561 10.3155 16.3573 10.9463C16.1585 11.5771 15.7179 12.1034 15.1318 12.41C15.1041 12.7408 15.0092 13.0624 14.8528 13.3552C14.6964 13.648 14.4819 13.9057 14.2224 14.1126C13.9628 14.3195 13.6638 14.4713 13.3435 14.5585C13.0233 14.6458 12.6886 14.6667 12.36 14.62ZM20.4018 24.4631C20.3312 24.4956 20.2712 24.4713 20.2099 24.5206L18.875 31.8656C18.8399 32.0273 18.7436 32.1692 18.6062 32.2614C18.4688 32.3535 18.301 32.3888 18.1381 32.3599C17.9752 32.3309 17.8299 32.2399 17.7327 32.106C17.6355 31.9721 17.5939 31.8057 17.6168 31.6419L18.9775 24.1688C19.0494 23.9258 19.1891 23.7084 19.3803 23.5421C19.5715 23.3758 19.8062 23.2675 20.0568 23.23C20.3607 23.108 20.6048 22.8721 20.7372 22.5726C20.8696 22.2731 20.8798 21.9338 20.7656 21.6269C20.709 21.4271 20.6057 21.2435 20.4644 21.0914C20.323 20.9392 20.1475 20.8228 19.9524 20.7517C19.7572 20.6806 19.548 20.6569 19.3419 20.6825C19.1358 20.708 18.9387 20.7822 18.7668 20.8988C17.9256 21.205 18.1106 20.3606 17.0231 20.26C16.7609 20.2542 16.5028 20.3253 16.2806 20.4644C16.0583 20.6036 15.8816 20.8047 15.7723 21.043C15.6629 21.2813 15.6256 21.5464 15.6651 21.8057C15.7046 22.0649 15.819 22.3069 15.9943 22.5019C16.2415 22.6744 16.4397 22.9081 16.5696 23.1801C16.6995 23.4521 16.7567 23.7531 16.7356 24.0538L15.5981 31.4313C15.5727 31.5981 15.4821 31.748 15.3462 31.8481C15.2103 31.9481 15.0402 31.9901 14.8734 31.9647C14.7066 31.9393 14.5566 31.8487 14.4566 31.7128C14.3565 31.5769 14.3146 31.4068 14.34 31.24L15.465 23.8819C15.49 23.7025 15.215 23.5113 15.2087 23.5113C14.7498 23.0616 14.4653 22.4637 14.4058 21.824C14.3463 21.1842 14.5156 20.5441 14.8837 20.0175C15.0994 19.7433 15.367 19.5144 15.6713 19.3438C15.9756 19.1732 16.3105 19.0643 16.657 19.0234C17.0034 18.9824 17.3545 19.0103 17.6902 19.1052C18.0258 19.2002 18.3395 19.3605 18.6131 19.5769C20.3212 18.8656 21.7249 20.29 21.9856 21.2694C22.1988 21.9029 22.1517 22.5952 21.8547 23.1941C21.5578 23.7929 21.0352 24.2494 20.4018 24.4631ZM22.4074 16.7406C22.2547 16.9539 22.0486 17.1234 21.8099 17.2321C21.5711 17.3408 21.308 17.3849 21.0468 17.36L18.5556 17.1238C18.296 17.0967 18.0481 17.0023 17.8362 16.85C17.6243 16.6977 17.4559 16.4927 17.3475 16.2554C17.2392 16.018 17.1947 15.7564 17.2185 15.4965C17.2423 15.2367 17.3335 14.9875 17.4831 14.7738L18.9331 12.73C19.0869 12.5191 19.293 12.352 19.5311 12.2451C19.7692 12.1381 20.0311 12.0951 20.2909 12.1202C20.5507 12.1453 20.7995 12.2377 21.0127 12.3883C21.2259 12.5388 21.3962 12.7423 21.5068 12.9788L22.5481 15.2588C22.6558 15.4966 22.6995 15.7585 22.6748 16.0184C22.6502 16.2783 22.558 16.5273 22.4074 16.7406Z" fill="url(#paint0_linear_577_387)"/>
    <path d="M20.3436 13.5088C20.3293 13.4734 20.3055 13.4425 20.2749 13.4196C20.2444 13.3967 20.2081 13.3825 20.1701 13.3786C20.1321 13.3746 20.0937 13.3811 20.0591 13.3974C20.0245 13.4136 19.9949 13.4389 19.9736 13.4707L18.5236 15.5144C18.5014 15.545 18.4876 15.5809 18.4838 15.6186C18.4799 15.6562 18.4861 15.6942 18.5018 15.7286C18.5174 15.763 18.5419 15.7927 18.5728 15.8146C18.6036 15.8365 18.6397 15.8498 18.6774 15.8532L21.168 16.0894C21.2056 16.0942 21.2438 16.0887 21.2785 16.0737C21.3133 16.0586 21.3434 16.0345 21.3656 16.0038C21.3879 15.9732 21.4014 15.9371 21.4049 15.8993C21.4084 15.8616 21.4017 15.8236 21.3855 15.7894L20.3436 13.5088Z" fill="url(#paint1_linear_577_387)"/>
    <defs>
      <linearGradient id="paint0_linear_577_387" x1="12.9999" y1="0.500183" x2="12.9999" y2="35.5" gradientUnits="userSpaceOnUse">
        <stop stop-color="#F37021"/>
        <stop offset="1" stop-color="#F89C3C"/>
      </linearGradient>
      <linearGradient id="paint1_linear_577_387" x1="19.9443" y1="13.3774" x2="19.9443" y2="16.0911" gradientUnits="userSpaceOnUse">
        <stop stop-color="#00588C"/>
        <stop offset="1" stop-color="#0074B7"/>
      </linearGradient>
    </defs>
  </symbol>

  
  <symbol id="protection" viewBox="0 0 32 36">
    <path d="M30.9874 7.90626C30.9694 7.60806 30.8477 7.32555 30.6434 7.10757C30.4391 6.88959 30.1651 6.74985 29.8687 6.71251C26.5124 6.31876 25.2062 2.90001 24.7937 1.44376C24.7186 1.17182 24.5561 0.932126 24.3314 0.761591C24.1066 0.591057 23.8321 0.499143 23.5499 0.500006H8.44369C8.1628 0.501131 7.88995 0.593909 7.6666 0.764246C7.44324 0.934582 7.28159 1.17317 7.20619 1.44376C6.79369 2.90001 5.48744 6.31876 2.1312 6.71251C1.8348 6.74985 1.56076 6.88959 1.35648 7.10757C1.1522 7.32555 1.0305 7.60806 1.01245 7.90626C0.812445 10.9688 0.549945 26.6625 15.3437 35.3188C15.5419 35.437 15.7683 35.5 15.9991 35.5011C16.2299 35.5022 16.4568 35.4414 16.6562 35.325C31.4499 26.6625 31.1874 10.9688 30.9874 7.90626ZM16.3437 32.2313C16.2411 32.297 16.1218 32.332 15.9999 32.332C15.8781 32.332 15.7588 32.297 15.6562 32.2313C5.09995 25.2688 3.82494 14.1438 3.76244 9.68751C3.76124 9.5597 3.79883 9.43452 3.87024 9.32852C3.94166 9.22251 4.04354 9.14066 4.16245 9.09376C5.36262 8.5766 6.44776 7.82555 7.35452 6.88446C8.26128 5.94336 8.97149 4.83107 9.4437 3.61251C9.49215 3.50046 9.57251 3.40516 9.67476 3.33848C9.77701 3.27179 9.89663 3.23668 10.0187 3.23751H21.9812C22.1033 3.23668 22.2229 3.27179 22.3251 3.33848C22.4274 3.40516 22.5077 3.50046 22.5562 3.61251C23.0296 4.83136 23.741 5.94376 24.6488 6.88483C25.5566 7.8259 26.6427 8.57681 27.8437 9.09376C27.9619 9.14099 28.0629 9.22311 28.1332 9.32918C28.2036 9.43526 28.2399 9.56025 28.2374 9.68751C28.1812 14.1438 26.8999 25.2688 16.3437 32.2313Z" fill="url(#paint0_linear_589_377)"/>
    <path d="M21.575 4.48755H10.425C9.3578 6.94546 7.43762 8.93445 5.0188 10.0875C5.1563 14.5375 6.5688 24.5188 16 30.9563C25.4313 24.5188 26.85 14.5375 26.9813 10.0875C24.5638 8.93264 22.6442 6.94422 21.575 4.48755ZM23.3563 13.7813L22.1125 14.7563C22.2379 15.2655 22.3009 15.7881 22.3 16.3125C22.2987 17.9813 21.6352 19.5814 20.4552 20.7614C19.2752 21.9415 17.6751 22.605 16.0063 22.6063C7.6538 22.2632 7.6613 10.3532 16.0063 10.0125C17.4709 10.0132 18.8896 10.5237 20.0188 11.4563C20.082 11.5088 20.1342 11.5733 20.1725 11.646C20.2108 11.7187 20.2344 11.7983 20.2419 11.8801C20.2495 11.9619 20.2408 12.0444 20.2165 12.1229C20.1921 12.2014 20.1526 12.2744 20.1 12.3375C20.0475 12.4007 19.9831 12.453 19.9103 12.4913C19.8376 12.5296 19.7581 12.5531 19.6763 12.5607C19.5944 12.5682 19.5119 12.5596 19.4334 12.5352C19.3549 12.5109 19.282 12.4713 19.2188 12.4188C18.4809 11.8088 17.5846 11.4215 16.6346 11.3021C15.6847 11.1827 14.7204 11.3361 13.8545 11.7445C12.9886 12.1529 12.2568 12.7993 11.7447 13.6082C11.2325 14.4172 10.9613 15.3551 10.9625 16.3125C11.2394 23.0038 20.7738 23.0019 21.05 16.3125C21.0523 16.0824 21.0356 15.8525 21 15.625L16.3438 19.275C16.2283 19.3644 16.0853 19.4108 15.9393 19.4063C15.7933 19.4017 15.6535 19.3465 15.5438 19.25L12.7438 16.7813C12.6262 16.6693 12.5567 16.516 12.5499 16.3538C12.543 16.1916 12.5994 16.033 12.7071 15.9115C12.8149 15.79 12.9655 15.7151 13.1274 15.7024C13.2893 15.6898 13.4498 15.7405 13.575 15.8438L15.9813 17.9688C17.125 17.0738 21.5313 13.625 22.5875 12.7938C22.7185 12.6919 22.8846 12.6461 23.0493 12.6666C23.2139 12.6871 23.3637 12.7722 23.4657 12.9032C23.5676 13.0341 23.6134 13.2002 23.5928 13.3649C23.5723 13.5296 23.4872 13.6794 23.3563 13.7813Z" fill="url(#paint1_linear_589_377)"/>
    <defs>
      <linearGradient id="paint0_linear_589_377" x1="15.9999" y1="0.5" x2="15.9999" y2="35.5011" gradientUnits="userSpaceOnUse">
        <stop stop-color="#00588C"/>
        <stop offset="1" stop-color="#0074B7"/>
      </linearGradient>
      <linearGradient id="paint1_linear_589_377" x1="16" y1="4.48755" x2="16" y2="30.9563" gradientUnits="userSpaceOnUse">
        <stop stop-color="#F37021"/>
        <stop offset="1" stop-color="#F89C3C"/>
      </linearGradient>
    </defs>
  </symbol>

  
  <symbol id="sneakers" viewBox="0 0 38 22">
    <path d="M13.3737 6.94282C12.5424 6.45824 10.7045 5.35606 9.89685 4.88098C8.79466 5.43886 6.63781 5.88136 3.88235 3.27521C3.55755 2.96764 3.15018 2.76135 2.71003 2.68157C2.26988 2.60179 1.81602 2.65197 1.40393 2.82598C0.991841 2.99999 0.639373 3.29028 0.389612 3.66138C0.13985 4.03248 0.00361471 4.46831 -0.00244141 4.91559V5.82028C3.1738 7.77896 7.78207 9.97247 13.3744 6.94282H13.3737ZM27.7367 16.1892H32.0505C34.1763 16.0973 36.1828 15.1813 37.6449 13.6353C37.7958 13.4742 37.9037 13.2776 37.9586 13.0637C38.0135 12.8499 38.0137 12.6256 37.9591 12.4117C37.1732 10.1462 35.0204 9.48857 32.2955 9.04539C30.8634 8.87273 29.4839 8.39979 28.2471 7.65748C27.9146 8.14138 27.2535 9.15805 26.9271 9.6372C26.8278 9.78696 26.6731 9.89115 26.497 9.92685C26.3209 9.96255 26.1379 9.92684 25.9881 9.82757C25.8384 9.7283 25.7342 9.57361 25.6985 9.39752C25.6628 9.22143 25.6985 9.03837 25.7977 8.88861L27.0635 6.98354L25.1034 5.88815C24.7817 6.37001 24.1126 7.38261 23.7909 7.8543C23.6908 8.00414 23.5353 8.1081 23.3586 8.14329C23.1818 8.17848 22.9984 8.14203 22.8485 8.04195C22.6987 7.94187 22.5947 7.78637 22.5595 7.60964C22.5243 7.43291 22.5608 7.24945 22.6609 7.0996L23.913 5.22168L21.9605 4.13307C21.9387 4.12085 20.6974 6.05171 20.4904 6.21188C20.3649 6.30498 20.2108 6.35127 20.0548 6.34273C19.8987 6.3342 19.7506 6.27138 19.636 6.16515C19.5214 6.05891 19.4475 5.91596 19.4272 5.76101C19.4069 5.60607 19.4413 5.4489 19.5247 5.31669L20.77 3.45914L18.81 2.37053C18.5148 2.83339 17.8381 3.80934 17.5449 4.26202C17.4448 4.41187 17.2892 4.51579 17.1124 4.55092C16.9356 4.58604 16.7521 4.54951 16.6022 4.44934C16.4524 4.34917 16.3485 4.19357 16.3134 4.01678C16.2782 3.84 16.3148 3.65649 16.4149 3.50664C16.6769 3.08993 17.3474 2.12756 17.6196 1.70406L16.5717 1.11225C15.911 0.745388 15.1407 0.627403 14.4005 0.779679C13.6603 0.931955 12.9992 1.34441 12.5369 1.94228L10.9855 3.94915C11.732 4.38893 24.8584 12.1612 24.8584 12.1612C26.1323 12.7951 27.0221 15.0592 27.7367 16.1892Z" fill="url(#paint0_linear_576_372)"/>
    <path d="M-0.00244141 17.55V17.8832C-0.00226147 18.7855 0.356246 19.6507 0.994251 20.2888C1.63226 20.9268 2.49753 21.2853 3.3998 21.2854H29.7504C33.5049 21.3425 36.9886 18.9548 37.8403 15.3388C36.2038 16.6892 34.1698 17.4659 32.0498 17.55H-0.00244141ZM-0.00244141 12.2841V16.1892H5.6924C4.35567 14.2148 2.32104 12.8195 -0.00244141 12.2841Z" fill="url(#paint1_linear_576_372)"/>
    <path d="M7.25763 16.1892H26.1794C25.6778 15.4047 25.0324 13.7731 24.165 13.332L14.6872 7.71856C12.7183 9.04754 10.3953 9.75385 8.0198 9.74579C5.18579 9.6943 2.41664 8.88892 -0.00292969 7.41248V10.9097C1.51886 11.2076 2.95713 11.8345 4.21119 12.7466C5.46525 13.6587 6.50477 14.8339 7.25696 16.1899L7.25763 16.1892Z" fill="url(#paint2_linear_576_372)"/>
    <defs>
      <linearGradient id="paint0_linear_576_372" x1="18.9987" y1="0.714844" x2="18.9987" y2="16.1892" gradientUnits="userSpaceOnUse">
        <stop stop-color="#00588C"/>
        <stop offset="1" stop-color="#0074B7"/>
      </linearGradient>
      <linearGradient id="paint1_linear_576_372" x1="18.9189" y1="12.2841" x2="18.9189" y2="21.2864" gradientUnits="userSpaceOnUse">
        <stop stop-color="#F37021"/>
        <stop offset="1" stop-color="#F89C3C"/>
      </linearGradient>
      <linearGradient id="paint2_linear_576_372" x1="13.0882" y1="7.41248" x2="13.0882" y2="16.1899" gradientUnits="userSpaceOnUse">
        <stop stop-color="#00588C"/>
        <stop offset="1" stop-color="#0074B7"/>
      </linearGradient>
    </defs>
  </symbol>

  
  <symbol id="stairs" viewBox="0 0 36 26">
    <path d="M34.875 19.3674L34.075 19.3668V12.5043C34.0749 12.3941 34.0446 12.286 33.9875 12.1918L27.1375 0.360565C27.0679 0.243249 26.9618 0.151922 26.8355 0.100519C26.7091 0.0491165 26.5694 0.0404601 26.4377 0.0758711C26.306 0.111282 26.1895 0.188816 26.1059 0.296642C26.0224 0.404468 25.9764 0.536667 25.975 0.673065V7.82931H10.025V0.673065C10.0235 0.536719 9.9774 0.404614 9.89381 0.29689C9.81022 0.189166 9.69369 0.111736 9.56199 0.0764039C9.43029 0.0410723 9.29066 0.0497782 9.16437 0.101195C9.03808 0.152611 8.93207 0.243917 8.8625 0.36119L2.0125 12.1924C1.95536 12.2867 1.9251 12.3947 1.925 12.5049V19.3643C1.925 19.3643 1.59438 19.3674 1.125 19.3674C0.959395 19.3679 0.800711 19.4339 0.683607 19.551C0.566504 19.6681 0.500497 19.8268 0.500003 19.9924V25.3237C0.499755 25.4058 0.515752 25.4872 0.547074 25.5632C0.578395 25.6391 0.624423 25.7081 0.682509 25.7662C0.740595 25.8243 0.809593 25.8703 0.885533 25.9016C0.961473 25.9329 1.04286 25.9489 1.125 25.9487H34.875C34.9571 25.9489 35.0385 25.9329 35.1145 25.9016C35.1904 25.8703 35.2594 25.8243 35.3175 25.7662C35.3756 25.7081 35.4216 25.6391 35.4529 25.5632C35.4843 25.4872 35.5003 25.4058 35.5 25.3237V19.9924C35.4995 19.8268 35.4335 19.6681 35.3164 19.551C35.1993 19.4339 35.0406 19.3679 34.875 19.3674ZM32.825 15.1362C32.8269 15.7262 32.825 17.9987 32.8244 19.3662C24.4206 19.3568 7.95188 19.3774 3.17438 19.3631C3.19 17.3824 3.16375 14.6449 3.17438 12.6674L8.77438 2.99869C8.77375 4.57556 8.77563 9.08619 8.77438 10.5924H27.2244C27.2256 9.14056 27.2244 4.52306 27.2244 2.99869L32.8244 12.6674C32.8381 12.8674 32.8156 15.0049 32.825 15.1362Z" fill="url(#paint0_linear_576_367)"/>
    <path d="M31.6937 16.2299C31.6932 16.0643 31.6272 15.9056 31.51 15.7885C31.3929 15.6714 31.2343 15.6054 31.0687 15.6049H30.0499C28.2812 15.6018 6.42615 15.6037 4.93115 15.6049C4.76554 15.6054 4.60686 15.6714 4.48976 15.7885C4.37265 15.9056 4.30665 16.0643 4.30615 16.2299V18.1112H31.6937C31.6949 17.6937 31.6924 16.633 31.6937 16.2299ZM28.7999 14.3487H30.0499C30.0505 13.9324 30.0487 12.8755 30.0499 12.4737C30.0507 12.3914 30.0351 12.3097 30.004 12.2335C29.9729 12.1573 29.9269 12.0881 29.8687 12.0299C29.8105 11.9717 29.7413 11.9257 29.6651 11.8945C29.5889 11.8634 29.5072 11.8478 29.4249 11.8487C28.603 11.8587 26.753 11.8299 25.9749 11.8487C25.9743 11.8424 10.0124 11.8605 10.0249 11.8424H8.7749C8.78553 11.8599 6.57553 11.8424 6.5749 11.8487C6.49259 11.8478 6.41095 11.8634 6.33474 11.8945C6.25853 11.9257 6.1893 11.9717 6.1311 12.0299C6.07289 12.0881 6.02689 12.1573 5.99578 12.2335C5.96466 12.3097 5.94907 12.3914 5.9499 12.4737C5.94803 12.8712 5.95115 13.938 5.9499 14.3487H28.7999Z" fill="url(#paint1_linear_576_367)"/>
    <defs>
      <linearGradient id="paint0_linear_576_367" x1="18" y1="0.0544434" x2="18" y2="25.9487" gradientUnits="userSpaceOnUse">
        <stop stop-color="#F37021"/>
        <stop offset="1" stop-color="#F89C3C"/>
      </linearGradient>
      <linearGradient id="paint1_linear_576_367" x1="18.0001" y1="11.8422" x2="18.0001" y2="18.1112" gradientUnits="userSpaceOnUse">
        <stop stop-color="#00588C"/>
        <stop offset="1" stop-color="#0074B7"/>
      </linearGradient>
    </defs>
  </symbol>

  
  <symbol id="time" viewBox="0 0 36 32">
    <path d="M31.125 0.837524H4.875C3.71508 0.838848 2.60305 1.30021 1.78287 2.12039C0.962685 2.94058 0.501323 4.05261 0.5 5.21252V26.7875C0.501323 27.9474 0.962685 29.0595 1.78287 29.8797C2.60305 30.6998 3.71508 31.1612 4.875 31.1625H31.125C32.2849 31.1612 33.3969 30.6998 34.2171 29.8797C35.0373 29.0595 35.4987 27.9474 35.5 26.7875V5.21252C35.4987 4.05261 35.0373 2.94058 34.2171 2.12039C33.3969 1.30021 32.2849 0.838848 31.125 0.837524ZM26.4813 24.3C19.0819 31.8388 6.19375 26.6725 6.125 16C6.12913 12.8518 7.38157 9.8338 9.60767 7.6077C11.8338 5.3816 14.8518 4.12916 18 4.12502C28.5275 4.1644 33.7812 16.8606 26.4813 24.3Z" fill="url(#paint0_linear_588_556)"/>
    <path d="M26.7563 15.375H28.6063C28.4662 12.9938 27.5257 10.7298 25.9375 8.95005L24.6375 10.25C24.5793 10.3083 24.5101 10.3545 24.434 10.3861C24.3578 10.4176 24.2762 10.4339 24.1938 10.4339C24.1114 10.4339 24.0298 10.4176 23.9536 10.3861C23.8775 10.3545 23.8083 10.3083 23.75 10.25C23.6918 10.1918 23.6456 10.1226 23.614 10.0465C23.5825 9.97032 23.5662 9.88871 23.5662 9.8063C23.5662 9.72389 23.5825 9.64228 23.614 9.56614C23.6456 9.49001 23.6918 9.42082 23.75 9.36255L25.05 8.06255C23.2703 6.47436 21.0063 5.53394 18.625 5.3938V7.2438C18.625 7.40956 18.5592 7.56853 18.442 7.68574C18.3248 7.80295 18.1658 7.8688 18 7.8688C17.8343 7.8688 17.6753 7.80295 17.5581 7.68574C17.4409 7.56853 17.375 7.40956 17.375 7.2438V5.3938C14.9938 5.53394 12.7298 6.47436 10.95 8.06255L12.25 9.36255C12.3358 9.45088 12.3938 9.56239 12.4168 9.6833C12.4399 9.80422 12.427 9.92925 12.3798 10.0429C12.3326 10.1566 12.2532 10.254 12.1512 10.323C12.0493 10.392 11.9294 10.4297 11.8063 10.4313C11.6407 10.4295 11.482 10.3647 11.3625 10.25L10.0625 8.95005C8.47436 10.7298 7.53394 12.9938 7.3938 15.375H9.2438C9.40956 15.375 9.56853 15.4409 9.68574 15.5581C9.80295 15.6753 9.8688 15.8343 9.8688 16C9.8688 16.1658 9.80295 16.3248 9.68574 16.442C9.56853 16.5592 9.40956 16.625 9.2438 16.625H7.3938C7.53394 19.0063 8.47436 21.2703 10.0625 23.05L11.3625 21.75C11.4208 21.6918 11.49 21.6456 11.5661 21.614C11.6423 21.5825 11.7239 21.5662 11.8063 21.5662C11.8887 21.5662 11.9703 21.5825 12.0465 21.614C12.1226 21.6456 12.1918 21.6918 12.25 21.75C12.3083 21.8083 12.3545 21.8775 12.3861 21.9536C12.4176 22.0298 12.4339 22.1114 12.4339 22.1938C12.4339 22.2762 12.4176 22.3578 12.3861 22.434C12.3545 22.5101 12.3083 22.5793 12.25 22.6375L10.95 23.9375C12.7298 25.5257 14.9938 26.4662 17.375 26.6063V24.7563C17.375 24.5905 17.4409 24.4316 17.5581 24.3144C17.6753 24.1971 17.8343 24.1313 18 24.1313C18.1658 24.1313 18.3248 24.1971 18.442 24.3144C18.5592 24.4316 18.625 24.5905 18.625 24.7563V26.6063C21.0063 26.4662 23.2703 25.5257 25.05 23.9375L23.75 22.6375C23.6918 22.5793 23.6456 22.5101 23.614 22.434C23.5825 22.3578 23.5662 22.2762 23.5662 22.1938C23.5662 22.1114 23.5825 22.0298 23.614 21.9536C23.6456 21.8775 23.6918 21.8083 23.75 21.75C23.8083 21.6918 23.8775 21.6456 23.9536 21.614C24.0298 21.5825 24.1114 21.5662 24.1938 21.5662C24.2762 21.5662 24.3578 21.5825 24.434 21.614C24.5101 21.6456 24.5793 21.6918 24.6375 21.75L25.9375 23.05C27.5257 21.2703 28.4662 19.0063 28.6063 16.625H26.7563C26.5905 16.625 26.4316 16.5592 26.3144 16.442C26.1971 16.3248 26.1313 16.1658 26.1313 16C26.1313 15.8343 26.1971 15.6753 26.3144 15.5581C26.4316 15.4409 26.5905 15.375 26.7563 15.375ZM23.3313 16.6625H20.1938C20.0854 17.0168 19.8871 17.3369 19.6184 17.5918C19.3496 17.8467 19.0194 18.0278 18.66 18.1173C18.3005 18.2069 17.924 18.2019 17.567 18.1029C17.2101 18.0039 16.8848 17.8142 16.6229 17.5522C16.3609 17.2903 16.1712 16.965 16.0722 16.6081C15.9732 16.2511 15.9682 15.8746 16.0578 15.5151C16.1473 15.1557 16.3284 14.8255 16.5833 14.5567C16.8382 14.288 17.1583 14.0897 17.5125 13.9813V10.65C17.5125 10.4843 17.5784 10.3253 17.6956 10.2081C17.8128 10.0909 17.9718 10.025 18.1376 10.025C18.3033 10.025 18.4623 10.0909 18.5795 10.2081C18.6967 10.3253 18.7626 10.4843 18.7626 10.65V13.9813C19.1009 14.0828 19.4088 14.2667 19.6586 14.5165C19.9084 14.7663 20.0923 15.0742 20.1938 15.4125H23.3313C23.4971 15.4125 23.656 15.4784 23.7732 15.5956C23.8905 15.7128 23.9563 15.8718 23.9563 16.0375C23.9563 16.2033 23.8905 16.3623 23.7732 16.4795C23.656 16.5967 23.4971 16.6625 23.3313 16.6625Z" fill="url(#paint1_linear_588_556)"/>
    <path d="M18.1376 15.1376C17.8997 15.1376 17.6716 15.2321 17.5034 15.4003C17.3352 15.5685 17.2407 15.7966 17.2407 16.0344C17.2407 16.2723 17.3352 16.5004 17.5034 16.6686C17.6716 16.8368 17.8997 16.9313 18.1376 16.9313C18.3755 16.9313 18.6036 16.8368 18.7718 16.6686C18.94 16.5004 19.0345 16.2723 19.0345 16.0344C19.0345 15.7966 18.94 15.5685 18.7718 15.4003C18.6036 15.2321 18.3755 15.1376 18.1376 15.1376Z" fill="url(#paint2_linear_588_556)"/>
    <defs>
      <linearGradient id="paint0_linear_588_556" x1="18" y1="0.837524" x2="18" y2="31.1625" gradientUnits="userSpaceOnUse">
        <stop stop-color="#00588C"/>
        <stop offset="1" stop-color="#0074B7"/>
      </linearGradient>
      <linearGradient id="paint1_linear_588_556" x1="18" y1="5.3938" x2="18" y2="26.6063" gradientUnits="userSpaceOnUse">
        <stop stop-color="#F37021"/>
        <stop offset="1" stop-color="#F89C3C"/>
      </linearGradient>
      <linearGradient id="paint2_linear_588_556" x1="18.1376" y1="15.1376" x2="18.1376" y2="16.9313" gradientUnits="userSpaceOnUse">
        <stop stop-color="#00588C"/>
        <stop offset="1" stop-color="#0074B7"/>
      </linearGradient>
    </defs>
  </symbol>

  
  <symbol id="close-icon" viewBox="0 0 14 14">
    <path fill-rule="evenodd" clip-rule="evenodd" d="M5.93961 7.00059L-0.00146484 12.9417L1.05919 14.0024L7.00027 8.06125L12.9413 14.0024L14.002 12.9417L8.06093 7.00059L14.002 1.0595L12.9413 -0.00115967L7.00027 5.93992L1.05921 -0.00115967L-0.0014461 1.0595L5.93961 7.00059Z" fill="white"/>
  </symbol>

  
  <symbol id="play" viewBox="0 0 39 39">
    <path fill-rule="evenodd" clip-rule="evenodd" d="M0.204264 38.6024L0.197754 0.628906L38.427 19.6818L0.204264 38.6024V38.6024Z" fill="white"/>
  </symbol>

</svg>
