<svg id="stairs" width="36" height="26" viewBox="0 0 36 26" fill="none" xmlns="http://www.w3.org/2000/svg">
<path d="M34.875 19.3674L34.075 19.3668V12.5043C34.0749 12.3941 34.0446 12.286 33.9875 12.1918L27.1375 0.360565C27.0679 0.243249 26.9618 0.151922 26.8355 0.100519C26.7091 0.0491165 26.5694 0.0404601 26.4377 0.0758711C26.306 0.111282 26.1895 0.188816 26.1059 0.296642C26.0224 0.404468 25.9764 0.536667 25.975 0.673065V7.82931H10.025V0.673065C10.0235 0.536719 9.9774 0.404614 9.89381 0.29689C9.81022 0.189166 9.69369 0.111736 9.56199 0.0764039C9.43029 0.0410723 9.29066 0.0497782 9.16437 0.101195C9.03808 0.152611 8.93207 0.243917 8.8625 0.36119L2.0125 12.1924C1.95536 12.2867 1.9251 12.3947 1.925 12.5049V19.3643C1.925 19.3643 1.59438 19.3674 1.125 19.3674C0.959395 19.3679 0.800711 19.4339 0.683607 19.551C0.566504 19.6681 0.500497 19.8268 0.500003 19.9924V25.3237C0.499755 25.4058 0.515752 25.4872 0.547074 25.5632C0.578395 25.6391 0.624423 25.7081 0.682509 25.7662C0.740595 25.8243 0.809593 25.8703 0.885533 25.9016C0.961473 25.9329 1.04286 25.9489 1.125 25.9487H34.875C34.9571 25.9489 35.0385 25.9329 35.1145 25.9016C35.1904 25.8703 35.2594 25.8243 35.3175 25.7662C35.3756 25.7081 35.4216 25.6391 35.4529 25.5632C35.4843 25.4872 35.5003 25.4058 35.5 25.3237V19.9924C35.4995 19.8268 35.4335 19.6681 35.3164 19.551C35.1993 19.4339 35.0406 19.3679 34.875 19.3674ZM32.825 15.1362C32.8269 15.7262 32.825 17.9987 32.8244 19.3662C24.4206 19.3568 7.95188 19.3774 3.17438 19.3631C3.19 17.3824 3.16375 14.6449 3.17438 12.6674L8.77438 2.99869C8.77375 4.57556 8.77563 9.08619 8.77438 10.5924H27.2244C27.2256 9.14056 27.2244 4.52306 27.2244 2.99869L32.8244 12.6674C32.8381 12.8674 32.8156 15.0049 32.825 15.1362Z" fill="url(#paint0_linear_576_367)"/>
<path d="M31.6937 16.2299C31.6932 16.0643 31.6272 15.9056 31.51 15.7885C31.3929 15.6714 31.2343 15.6054 31.0687 15.6049H30.0499C28.2812 15.6018 6.42615 15.6037 4.93115 15.6049C4.76554 15.6054 4.60686 15.6714 4.48976 15.7885C4.37265 15.9056 4.30665 16.0643 4.30615 16.2299V18.1112H31.6937C31.6949 17.6937 31.6924 16.633 31.6937 16.2299ZM28.7999 14.3487H30.0499C30.0505 13.9324 30.0487 12.8755 30.0499 12.4737C30.0507 12.3914 30.0351 12.3097 30.004 12.2335C29.9729 12.1573 29.9269 12.0881 29.8687 12.0299C29.8105 11.9717 29.7413 11.9257 29.6651 11.8945C29.5889 11.8634 29.5072 11.8478 29.4249 11.8487C28.603 11.8587 26.753 11.8299 25.9749 11.8487C25.9743 11.8424 10.0124 11.8605 10.0249 11.8424H8.7749C8.78553 11.8599 6.57553 11.8424 6.5749 11.8487C6.49259 11.8478 6.41095 11.8634 6.33474 11.8945C6.25853 11.9257 6.1893 11.9717 6.1311 12.0299C6.07289 12.0881 6.02689 12.1573 5.99578 12.2335C5.96466 12.3097 5.94907 12.3914 5.9499 12.4737C5.94803 12.8712 5.95115 13.938 5.9499 14.3487H28.7999Z" fill="url(#paint1_linear_576_367)"/>
<defs>
<linearGradient id="paint0_linear_576_367" x1="18" y1="0.0544434" x2="18" y2="25.9487" gradientUnits="userSpaceOnUse">
<stop stop-color="#F37021"/>
<stop offset="1" stop-color="#F89C3C"/>
</linearGradient>
<linearGradient id="paint1_linear_576_367" x1="18.0001" y1="11.8422" x2="18.0001" y2="18.1112" gradientUnits="userSpaceOnUse">
<stop stop-color="#00588C"/>
<stop offset="1" stop-color="#0074B7"/>
</linearGradient>
</defs>
</svg>
