<svg id="time" width="36" height="32" viewBox="0 0 36 32" fill="none" xmlns="http://www.w3.org/2000/svg">
<path d="M31.125 0.837524H4.875C3.71508 0.838848 2.60305 1.30021 1.78287 2.12039C0.962685 2.94058 0.501323 4.05261 0.5 5.21252V26.7875C0.501323 27.9474 0.962685 29.0595 1.78287 29.8797C2.60305 30.6998 3.71508 31.1612 4.875 31.1625H31.125C32.2849 31.1612 33.3969 30.6998 34.2171 29.8797C35.0373 29.0595 35.4987 27.9474 35.5 26.7875V5.21252C35.4987 4.05261 35.0373 2.94058 34.2171 2.12039C33.3969 1.30021 32.2849 0.838848 31.125 0.837524ZM26.4813 24.3C19.0819 31.8388 6.19375 26.6725 6.125 16C6.12913 12.8518 7.38157 9.8338 9.60767 7.6077C11.8338 5.3816 14.8518 4.12916 18 4.12502C28.5275 4.1644 33.7812 16.8606 26.4813 24.3Z" fill="url(#paint0_linear_588_556)"/>
<path d="M26.7563 15.375H28.6063C28.4662 12.9938 27.5257 10.7298 25.9375 8.95005L24.6375 10.25C24.5793 10.3083 24.5101 10.3545 24.434 10.3861C24.3578 10.4176 24.2762 10.4339 24.1938 10.4339C24.1114 10.4339 24.0298 10.4176 23.9536 10.3861C23.8775 10.3545 23.8083 10.3083 23.75 10.25C23.6918 10.1918 23.6456 10.1226 23.614 10.0465C23.5825 9.97032 23.5662 9.88871 23.5662 9.8063C23.5662 9.72389 23.5825 9.64228 23.614 9.56614C23.6456 9.49001 23.6918 9.42082 23.75 9.36255L25.05 8.06255C23.2703 6.47436 21.0063 5.53394 18.625 5.3938V7.2438C18.625 7.40956 18.5592 7.56853 18.442 7.68574C18.3248 7.80295 18.1658 7.8688 18 7.8688C17.8343 7.8688 17.6753 7.80295 17.5581 7.68574C17.4409 7.56853 17.375 7.40956 17.375 7.2438V5.3938C14.9938 5.53394 12.7298 6.47436 10.95 8.06255L12.25 9.36255C12.3358 9.45088 12.3938 9.56239 12.4168 9.6833C12.4399 9.80422 12.427 9.92925 12.3798 10.0429C12.3326 10.1566 12.2532 10.254 12.1512 10.323C12.0493 10.392 11.9294 10.4297 11.8063 10.4313C11.6407 10.4295 11.482 10.3647 11.3625 10.25L10.0625 8.95005C8.47436 10.7298 7.53394 12.9938 7.3938 15.375H9.2438C9.40956 15.375 9.56853 15.4409 9.68574 15.5581C9.80295 15.6753 9.8688 15.8343 9.8688 16C9.8688 16.1658 9.80295 16.3248 9.68574 16.442C9.56853 16.5592 9.40956 16.625 9.2438 16.625H7.3938C7.53394 19.0063 8.47436 21.2703 10.0625 23.05L11.3625 21.75C11.4208 21.6918 11.49 21.6456 11.5661 21.614C11.6423 21.5825 11.7239 21.5662 11.8063 21.5662C11.8887 21.5662 11.9703 21.5825 12.0465 21.614C12.1226 21.6456 12.1918 21.6918 12.25 21.75C12.3083 21.8083 12.3545 21.8775 12.3861 21.9536C12.4176 22.0298 12.4339 22.1114 12.4339 22.1938C12.4339 22.2762 12.4176 22.3578 12.3861 22.434C12.3545 22.5101 12.3083 22.5793 12.25 22.6375L10.95 23.9375C12.7298 25.5257 14.9938 26.4662 17.375 26.6063V24.7563C17.375 24.5905 17.4409 24.4316 17.5581 24.3144C17.6753 24.1971 17.8343 24.1313 18 24.1313C18.1658 24.1313 18.3248 24.1971 18.442 24.3144C18.5592 24.4316 18.625 24.5905 18.625 24.7563V26.6063C21.0063 26.4662 23.2703 25.5257 25.05 23.9375L23.75 22.6375C23.6918 22.5793 23.6456 22.5101 23.614 22.434C23.5825 22.3578 23.5662 22.2762 23.5662 22.1938C23.5662 22.1114 23.5825 22.0298 23.614 21.9536C23.6456 21.8775 23.6918 21.8083 23.75 21.75C23.8083 21.6918 23.8775 21.6456 23.9536 21.614C24.0298 21.5825 24.1114 21.5662 24.1938 21.5662C24.2762 21.5662 24.3578 21.5825 24.434 21.614C24.5101 21.6456 24.5793 21.6918 24.6375 21.75L25.9375 23.05C27.5257 21.2703 28.4662 19.0063 28.6063 16.625H26.7563C26.5905 16.625 26.4316 16.5592 26.3144 16.442C26.1971 16.3248 26.1313 16.1658 26.1313 16C26.1313 15.8343 26.1971 15.6753 26.3144 15.5581C26.4316 15.4409 26.5905 15.375 26.7563 15.375ZM23.3313 16.6625H20.1938C20.0854 17.0168 19.8871 17.3369 19.6184 17.5918C19.3496 17.8467 19.0194 18.0278 18.66 18.1173C18.3005 18.2069 17.924 18.2019 17.567 18.1029C17.2101 18.0039 16.8848 17.8142 16.6229 17.5522C16.3609 17.2903 16.1712 16.965 16.0722 16.6081C15.9732 16.2511 15.9682 15.8746 16.0578 15.5151C16.1473 15.1557 16.3284 14.8255 16.5833 14.5567C16.8382 14.288 17.1583 14.0897 17.5125 13.9813V10.65C17.5125 10.4843 17.5784 10.3253 17.6956 10.2081C17.8128 10.0909 17.9718 10.025 18.1376 10.025C18.3033 10.025 18.4623 10.0909 18.5795 10.2081C18.6967 10.3253 18.7626 10.4843 18.7626 10.65V13.9813C19.1009 14.0828 19.4088 14.2667 19.6586 14.5165C19.9084 14.7663 20.0923 15.0742 20.1938 15.4125H23.3313C23.4971 15.4125 23.656 15.4784 23.7732 15.5956C23.8905 15.7128 23.9563 15.8718 23.9563 16.0375C23.9563 16.2033 23.8905 16.3623 23.7732 16.4795C23.656 16.5967 23.4971 16.6625 23.3313 16.6625Z" fill="url(#paint1_linear_588_556)"/>
<path d="M18.1376 15.1376C17.8997 15.1376 17.6716 15.2321 17.5034 15.4003C17.3352 15.5685 17.2407 15.7966 17.2407 16.0344C17.2407 16.2723 17.3352 16.5004 17.5034 16.6686C17.6716 16.8368 17.8997 16.9313 18.1376 16.9313C18.3755 16.9313 18.6036 16.8368 18.7718 16.6686C18.94 16.5004 19.0345 16.2723 19.0345 16.0344C19.0345 15.7966 18.94 15.5685 18.7718 15.4003C18.6036 15.2321 18.3755 15.1376 18.1376 15.1376Z" fill="url(#paint2_linear_588_556)"/>
<defs>
<linearGradient id="paint0_linear_588_556" x1="18" y1="0.837524" x2="18" y2="31.1625" gradientUnits="userSpaceOnUse">
<stop stop-color="#00588C"/>
<stop offset="1" stop-color="#0074B7"/>
</linearGradient>
<linearGradient id="paint1_linear_588_556" x1="18" y1="5.3938" x2="18" y2="26.6063" gradientUnits="userSpaceOnUse">
<stop stop-color="#F37021"/>
<stop offset="1" stop-color="#F89C3C"/>
</linearGradient>
<linearGradient id="paint2_linear_588_556" x1="18.1376" y1="15.1376" x2="18.1376" y2="16.9313" gradientUnits="userSpaceOnUse">
<stop stop-color="#00588C"/>
<stop offset="1" stop-color="#0074B7"/>
</linearGradient>
</defs>
</svg>
