<svg id="yoga" width="36" height="22" viewBox="0 0 36 22" fill="none" xmlns="http://www.w3.org/2000/svg">
<path d="M12.8099 15.6462C11.8805 14.77 10.2455 15.6437 10.0974 16.7025C9.83554 17.5812 10.6912 18.9537 11.7537 18.79C11.8862 18.7498 12.0017 18.6669 12.0821 18.5542C12.1626 18.4415 12.2035 18.3053 12.1985 18.1669C12.1936 18.0285 12.1429 17.8957 12.0545 17.789C11.9662 17.6824 11.845 17.608 11.7099 17.5775C11.5823 17.5392 11.4729 17.4562 11.4017 17.3437C11.3305 17.2311 11.3023 17.0966 11.3224 16.965C11.3403 16.8903 11.3741 16.8203 11.4213 16.7597C11.4686 16.6992 11.5283 16.6494 11.5964 16.6139C11.6645 16.5784 11.7395 16.5578 11.8162 16.5537C11.8929 16.5496 11.9696 16.562 12.0412 16.59C12.168 16.654 12.3128 16.6727 12.4517 16.6431C12.5907 16.6135 12.7153 16.5373 12.805 16.4272C12.8947 16.3171 12.9441 16.1796 12.945 16.0376C12.9459 15.8956 12.8982 15.7575 12.8099 15.6462Z" fill="url(#paint0_linear_611_585)"/>
<path d="M15.3786 14.765C13.9536 12.8019 10.0511 7.3963 8.57863 5.3588C8.16926 4.78942 7.33738 3.65067 6.92863 3.07755C6.42638 2.29848 5.63521 1.75083 4.72917 1.55509C3.82314 1.35935 2.87645 1.53154 2.09738 2.0338C1.31831 2.53605 0.770663 3.32722 0.574922 4.23326C0.379181 5.13929 0.551378 6.08598 1.05363 6.86505L6.44113 16.1775L8.12238 19.0775C11.0949 24.0944 18.3555 19.7688 15.3786 14.765ZM11.2224 19.9838C7.77738 19.2194 8.28551 14.165 11.8099 14.0963C12.2282 14.092 12.6427 14.176 13.0264 14.3427C13.41 14.5094 13.7543 14.7551 14.0366 15.0638C14.3189 15.3725 14.533 15.7373 14.6648 16.1343C14.7967 16.5313 14.8433 16.9517 14.8018 17.3679C14.7603 17.7842 14.6314 18.187 14.4237 18.5501C14.216 18.9133 13.9341 19.2285 13.5964 19.4753C13.2586 19.7222 12.8726 19.895 12.4636 19.9826C12.0545 20.0703 11.6316 20.0706 11.2224 19.9838ZM35.2093 13.5275L24.753 1.1338C24.6074 0.959627 24.4166 0.828971 24.2016 0.756196C23.9866 0.683421 23.7557 0.671346 23.5343 0.721299L19.553 1.61505C19.4405 1.5038 31.853 16.2025 31.853 16.2025L34.5655 15.5213C34.7676 15.4687 34.9532 15.3659 35.1051 15.2226C35.257 15.0792 35.3703 14.8998 35.4344 14.7011C35.4986 14.5023 35.5116 14.2906 35.4723 14.0854C35.4329 13.8803 35.3424 13.6884 35.2093 13.5275Z" fill="url(#paint1_linear_611_585)"/>
<path d="M14.766 2.69001L9.10352 3.95876C9.23227 4.14251 15.6879 13.065 16.0848 13.615C16.8177 14.5183 17.2442 15.6314 17.3026 16.7932C17.361 17.955 17.0483 19.1052 16.4098 20.0775L27.1598 17.3775L14.766 2.69001ZM18.1723 1.92126L16.141 2.37751L28.5098 17.04L30.5035 16.54C30.5035 16.54 18.1785 1.92126 18.1723 1.92126Z" fill="url(#paint2_linear_611_585)"/>
<defs>
<linearGradient id="paint0_linear_611_585" x1="11.4974" y1="15.2872" x2="11.4974" y2="18.8034" gradientUnits="userSpaceOnUse">
<stop stop-color="#F37021"/>
<stop offset="1" stop-color="#F89C3C"/>
</linearGradient>
<linearGradient id="paint1_linear_611_585" x1="17.9953" y1="0.69104" x2="17.9953" y2="21.3083" gradientUnits="userSpaceOnUse">
<stop stop-color="#F37021"/>
<stop offset="1" stop-color="#F89C3C"/>
</linearGradient>
<linearGradient id="paint2_linear_611_585" x1="19.8035" y1="1.92126" x2="19.8035" y2="20.0775" gradientUnits="userSpaceOnUse">
<stop stop-color="#00588C"/>
<stop offset="1" stop-color="#0074B7"/>
</linearGradient>
</defs>
</svg>
