<svg id="yoga" width="70" height="70" viewBox="0 0 70 70" fill="none" xmlns="http://www.w3.org/2000/svg">
<path d="M25.9183 43.617C24.2918 42.0551 21.4304 43.6125 21.1712 45.4997C20.7129 47.0661 22.2103 49.5126 24.0698 49.2207C24.3017 49.149 24.5038 49.0012 24.6446 48.8003C24.7855 48.5994 24.8571 48.3567 24.8484 48.11C24.8396 47.8633 24.751 47.6265 24.5963 47.4365C24.4416 47.2465 24.2296 47.1139 23.9932 47.0594C23.77 46.9912 23.5784 46.8432 23.4538 46.6426C23.3292 46.442 23.2799 46.2023 23.3151 45.9676C23.3464 45.8345 23.4055 45.7097 23.4882 45.6018C23.5709 45.4938 23.6754 45.4052 23.7946 45.3418C23.9138 45.2785 24.045 45.2419 24.1792 45.2346C24.3135 45.2272 24.4477 45.2492 24.5729 45.2992C24.7948 45.4133 25.0484 45.4467 25.2915 45.3939C25.5346 45.3411 25.7527 45.2054 25.9097 45.0091C26.0667 44.8128 26.1531 44.5677 26.1547 44.3146C26.1563 44.0614 26.0728 43.8153 25.9183 43.617Z" fill="url(#paint0_linear_2164_416)"/>
<path d="M30.4138 42.0462C27.9199 38.547 21.0902 28.9115 18.5132 25.2797C17.7968 24.2648 16.341 22.235 15.6256 21.2134C14.7466 19.8247 13.362 18.8485 11.7764 18.4996C10.1908 18.1507 8.53398 18.4577 7.17054 19.3529C5.8071 20.2482 4.84868 21.6584 4.50612 23.2734C4.16356 24.8884 4.46492 26.5759 5.3439 27.9646L14.7724 44.564L17.7148 49.7332C22.9169 58.6757 35.6235 50.9653 30.4138 42.0462ZM23.14 51.3486C17.111 49.9861 18.0002 40.9767 24.1682 40.8542C24.9003 40.8466 25.6257 40.9962 26.2971 41.2934C26.9686 41.5906 27.571 42.0286 28.0651 42.5788C28.5592 43.1291 28.9338 43.7793 29.1645 44.4869C29.3953 45.1946 29.477 45.9438 29.4043 46.6858C29.3316 47.4278 29.1061 48.1458 28.7426 48.7931C28.3791 49.4404 27.8858 50.0023 27.2947 50.4423C26.7036 50.8822 26.0281 51.1904 25.3122 51.3465C24.5963 51.5027 23.8562 51.5034 23.14 51.3486ZM65.1189 39.8404L46.8197 17.7487C46.5649 17.4382 46.231 17.2053 45.8547 17.0756C45.4784 16.9459 45.0743 16.9244 44.6868 17.0134L37.7193 18.6065C37.5224 18.4082 59.2452 44.6086 59.2452 44.6086L63.9923 43.3942C64.3461 43.3004 64.6709 43.1173 64.9367 42.8617C65.2025 42.6062 65.4007 42.2865 65.513 41.9322C65.6253 41.5779 65.6481 41.2005 65.5792 40.8348C65.5103 40.4692 65.352 40.1272 65.1189 39.8404Z" fill="url(#paint1_linear_2164_416)"/>
<path d="M29.3415 20.5226L19.4316 22.7842C19.657 23.1117 30.9548 39.0159 31.6494 39.9963C32.932 41.6065 33.6785 43.5905 33.7807 45.6614C33.883 47.7322 33.3357 49.7825 32.2181 51.5156L51.0315 46.7029L29.3415 20.5226ZM35.3027 19.1523L31.7478 19.9656L53.3941 46.1013L56.8833 45.2101C56.8833 45.2101 35.3136 19.1523 35.3027 19.1523Z" fill="url(#paint2_linear_2164_416)"/>
<defs>
<linearGradient id="paint0_linear_2164_416" x1="23.6213" y1="42.9771" x2="23.6213" y2="49.2446" gradientUnits="userSpaceOnUse">
<stop stop-color="#F37021"/>
<stop offset="1" stop-color="#F89C3C"/>
</linearGradient>
<linearGradient id="paint1_linear_2164_416" x1="34.9932" y1="16.9595" x2="34.9932" y2="53.7095" gradientUnits="userSpaceOnUse">
<stop stop-color="#F37021"/>
<stop offset="1" stop-color="#F89C3C"/>
</linearGradient>
<linearGradient id="paint2_linear_2164_416" x1="38.1575" y1="19.1523" x2="38.1575" y2="51.5156" gradientUnits="userSpaceOnUse">
<stop stop-color="#00588C"/>
<stop offset="1" stop-color="#0074B7"/>
</linearGradient>
</defs>
</svg>
